<svg width="73" height="73" xmlns="http://www.w3.org/2000/svg" xmlns:xlink="http://www.w3.org/1999/xlink" overflow="hidden"><defs><clipPath id="clip0"><rect x="656" y="389" width="73" height="73"/></clipPath><clipPath id="clip1"><rect x="657" y="390" width="72" height="72"/></clipPath><clipPath id="clip2"><rect x="657" y="390" width="72" height="72"/></clipPath><clipPath id="clip3"><rect x="657" y="390" width="72" height="72"/></clipPath></defs><g clip-path="url(#clip0)" transform="translate(-656 -389)"><g clip-path="url(#clip1)"><g clip-path="url(#clip2)"><g clip-path="url(#clip3)"><path d="M692.259 418.366C688.614 418.366 685.659 415.412 685.659 411.767 685.659 408.121 688.614 405.167 692.259 405.167 695.904 405.167 698.859 408.121 698.859 411.767 698.855 415.41 695.902 418.362 692.259 418.366ZM692.259 406.366C689.277 406.366 686.859 408.784 686.859 411.767 686.859 414.749 689.277 417.167 692.259 417.167 695.241 417.167 697.659 414.749 697.659 411.767 697.656 408.786 695.24 406.37 692.259 406.366ZM692.25 448.671 678.15 434.637 678.15 405.042C678.15 398.194 683.025 394.575 692.25 394.575 701.475 394.575 706.35 398.194 706.35 405.04L706.35 434.637ZM679.35 434.139 692.25 446.979 705.15 434.139 705.15 405.04C705.15 397.383 698.135 395.775 692.25 395.775 686.365 395.775 679.35 397.383 679.35 405.04ZM678.15 449.244C678.15 452.142 684.474 454.5 692.25 454.5 700.026 454.5 706.35 452.142 706.35 449.246 706.35 447.336 703.776 445.954 700.26 445.145L699.245 446.154C702.851 446.883 705.15 448.105 705.15 449.244 705.15 450.898 700.125 453.3 692.25 453.3 684.375 453.3 679.35 450.9 679.35 449.246 679.35 448.105 681.649 446.883 685.255 446.155L684.24 445.145C680.724 445.954 678.15 447.336 678.15 449.246ZM706.095 439.335 705.03 440.396C714.765 442.048 721.65 445.487 721.65 449.364 721.65 454.759 708.462 459.15 692.25 459.15 676.038 459.15 662.85 454.759 662.85 449.364 662.85 445.487 669.735 442.048 679.47 440.396L678.405 439.335C668.393 441.159 661.65 444.915 661.65 449.364 661.65 455.626 674.805 460.35 692.25 460.35 709.695 460.35 722.85 455.626 722.85 449.364 722.85 444.915 716.107 441.159 706.095 439.335Z" stroke="#225733" stroke-width="1.33333" stroke-linecap="butt" stroke-linejoin="miter" stroke-miterlimit="4" stroke-opacity="1" fill="#225733" fill-rule="nonzero" fill-opacity="1"/></g></g></g></g></svg>