<svg width="2338" height="2342" xmlns="http://www.w3.org/2000/svg" xmlns:xlink="http://www.w3.org/1999/xlink" xml:space="preserve" overflow="hidden"><defs><clipPath id="clip0"><rect x="1287" y="45" width="2338" height="2342"/></clipPath></defs><g clip-path="url(#clip0)" transform="translate(-1287 -45)"><path d="M3565.54 1303.89C3546.66 1555.13 3438.26 1791.26 3260.01 1969.4L3077.11 1786.54C3211.59 1652.17 3293.39 1474.05 3307.63 1284.53Z" stroke="#6A6A6A" stroke-width="22.9167" stroke-linecap="butt" stroke-linejoin="miter" stroke-miterlimit="8" stroke-opacity="1" fill="none" fill-rule="evenodd"/><path d="M2327.39 2267.11C2051.07 2224.34 1803.12 2073.49 1638.19 1847.79L1840.98 1699.72C1966.59 1871.56 2155.41 1986.41 2365.83 2018.97Z" stroke="#6A6A6A" stroke-width="22.9167" stroke-linecap="butt" stroke-linejoin="miter" stroke-miterlimit="8" stroke-opacity="1" fill="none" fill-rule="evenodd"/><path d="M1479.19 817.27C1643.11 260.351 2228.31-58.4939 2786.29 105.109 2942.71 150.972 3086.32 232.46 3205.82 343.152L3044.47 516.667C2714.04 210.915 2197.7 230.266 1891.2 559.888 1805.36 652.205 1742.15 763.129 1706.56 883.936Z" stroke="#6A6A6A" stroke-width="22.9167" stroke-linecap="butt" stroke-linejoin="miter" stroke-miterlimit="8" stroke-opacity="1" fill="none" fill-rule="evenodd"/><path d="M3202.95 658.765C3293.45 564.334 3443.42 561.192 3537.9 651.747 3632.38 742.302 3635.6 892.263 3545.09 986.694 3454.59 1081.13 3304.62 1084.27 3210.14 993.713 3115.66 903.158 3112.44 753.197 3202.95 658.765Z" stroke="#6A6A6A" stroke-width="22.9167" stroke-linecap="butt" stroke-linejoin="miter" stroke-miterlimit="8" stroke-opacity="1" fill="none" fill-rule="evenodd"/><path d="M2681.3 1940.74C2788.64 1865.86 2936.32 1892.13 3011.15 1999.41 3085.99 2106.69 3059.64 2254.35 2952.3 2329.23 2844.97 2404.1 2697.29 2377.83 2622.46 2270.55 2547.62 2163.28 2573.97 2015.61 2681.3 1940.74Z" stroke="#6A6A6A" stroke-width="22.9167" stroke-linecap="butt" stroke-linejoin="miter" stroke-miterlimit="8" stroke-opacity="1" fill="none" fill-rule="evenodd"/><path d="M1320.51 1230.58C1370.19 1109.59 1508.61 1051.8 1629.67 1101.51 1750.73 1151.22 1808.59 1289.61 1758.91 1410.61 1709.22 1531.6 1570.8 1589.39 1449.74 1539.68 1328.68 1489.97 1270.82 1351.58 1320.51 1230.58Z" stroke="#6A6A6A" stroke-width="22.9167" stroke-linecap="butt" stroke-linejoin="miter" stroke-miterlimit="8" stroke-opacity="1" fill="none" fill-rule="evenodd"/><rect x="2049.5" y="733.5" width="343" height="835" stroke="#6A6A6A" stroke-width="22.9167" stroke-linecap="butt" stroke-linejoin="miter" stroke-miterlimit="8" stroke-opacity="1" fill="#6A6A6A" fill-opacity="1"/><rect x="2601.5" y="738.5" width="344" height="223" stroke="#6A6A6A" stroke-width="22.9167" stroke-linecap="butt" stroke-linejoin="miter" stroke-miterlimit="8" stroke-opacity="1" fill="#6A6A6A" fill-opacity="1"/><rect x="2599.5" y="1200.5" width="344" height="361" stroke="#6A6A6A" stroke-width="22.9167" stroke-linecap="butt" stroke-linejoin="miter" stroke-miterlimit="8" stroke-opacity="1" fill="#6A6A6A" fill-opacity="1"/></g></svg>