<svg width="2337" height="2337" xmlns="http://www.w3.org/2000/svg" xmlns:xlink="http://www.w3.org/1999/xlink" xml:space="preserve" overflow="hidden"><defs><clipPath id="clip0"><rect x="921" y="55" width="2337" height="2337"/></clipPath></defs><g clip-path="url(#clip0)" transform="translate(-921 -55)"><path d="M3198.54 1311.89C3179.66 1563.13 3071.26 1799.26 2893.01 1977.4L2710.11 1794.54C2844.59 1660.17 2926.39 1482.05 2940.63 1292.53Z" stroke="#6A6A6A" stroke-width="22.9167" stroke-linecap="butt" stroke-linejoin="miter" stroke-miterlimit="8" stroke-opacity="1" fill="none" fill-rule="evenodd"/><path d="M1960.9 2275.12C1684.51 2232.39 1436.47 2081.62 1271.44 1856.03L1474.23 1707.97C1599.93 1879.7 1788.84 1994.47 1999.33 2027Z" stroke="#6A6A6A" stroke-width="22.9167" stroke-linecap="butt" stroke-linejoin="miter" stroke-miterlimit="8" stroke-opacity="1" fill="none" fill-rule="evenodd"/><path d="M1112.19 825.27C1276.11 268.351 1861.31-50.494 2419.29 113.109 2575.71 158.972 2719.32 240.459 2838.82 351.152L2677.47 524.667C2347.04 218.915 1830.7 238.266 1524.2 567.888 1438.36 660.205 1375.15 771.128 1339.56 891.936Z" stroke="#6A6A6A" stroke-width="22.9167" stroke-linecap="butt" stroke-linejoin="miter" stroke-miterlimit="8" stroke-opacity="1" fill="none" fill-rule="evenodd"/><path d="M2836.1 667.037C2926.61 572.606 3076.57 569.463 3171.05 660.018 3265.54 750.573 3268.76 900.534 3178.25 994.966 3087.74 1089.4 2937.78 1092.54 2843.3 1001.98 2748.82 911.43 2745.6 761.469 2836.1 667.037Z" stroke="#6A6A6A" stroke-width="22.9167" stroke-linecap="butt" stroke-linejoin="miter" stroke-miterlimit="8" stroke-opacity="1" fill="#6A6A6A" fill-rule="evenodd" fill-opacity="1"/><path d="M2314.46 1949.01C2421.8 1874.14 2569.47 1900.4 2644.31 2007.68 2719.14 2114.96 2692.79 2262.62 2585.46 2337.5 2478.12 2412.37 2330.45 2386.1 2255.61 2278.83 2180.78 2171.55 2207.12 2023.88 2314.46 1949.01Z" stroke="#6A6A6A" stroke-width="22.9167" stroke-linecap="butt" stroke-linejoin="miter" stroke-miterlimit="8" stroke-opacity="1" fill="#6A6A6A" fill-rule="evenodd" fill-opacity="1"/><path d="M953.663 1238.85C1003.35 1117.86 1141.77 1060.07 1262.83 1109.78 1383.89 1159.49 1441.75 1297.88 1392.06 1418.88 1342.38 1539.87 1203.96 1597.66 1082.9 1547.95 961.837 1498.24 903.977 1359.85 953.663 1238.85Z" stroke="#6A6A6A" stroke-width="22.9167" stroke-linecap="butt" stroke-linejoin="miter" stroke-miterlimit="8" stroke-opacity="1" fill="#6A6A6A" fill-rule="evenodd" fill-opacity="1"/><rect x="1682.5" y="742.5" width="343" height="834" stroke="#6A6A6A" stroke-width="22.9167" stroke-linecap="butt" stroke-linejoin="miter" stroke-miterlimit="8" stroke-opacity="1" fill="#6A6A6A" fill-opacity="1"/><rect x="2235.5" y="746.5" width="343" height="224" stroke="#6A6A6A" stroke-width="22.9167" stroke-linecap="butt" stroke-linejoin="miter" stroke-miterlimit="8" stroke-opacity="1" fill="#6A6A6A" fill-opacity="1"/><rect x="2232.5" y="1208.5" width="344" height="361" stroke="#6A6A6A" stroke-width="22.9167" stroke-linecap="butt" stroke-linejoin="miter" stroke-miterlimit="8" stroke-opacity="1" fill="#6A6A6A" fill-opacity="1"/></g></svg>