<svg width="2338" height="2337" xmlns="http://www.w3.org/2000/svg" xmlns:xlink="http://www.w3.org/1999/xlink" xml:space="preserve" overflow="hidden"><defs><clipPath id="clip0"><rect x="1310" y="32" width="2338" height="2337"/></clipPath></defs><g clip-path="url(#clip0)" transform="translate(-1310 -32)"><path d="M3589.54 1288.89C3570.66 1540.13 3462.26 1776.26 3284.01 1954.4L3101.11 1771.54C3235.59 1637.17 3317.39 1459.05 3331.63 1269.53Z" stroke="#6A6A6A" stroke-width="22.9167" stroke-linecap="butt" stroke-linejoin="miter" stroke-miterlimit="8" stroke-opacity="1" fill="#6A6A6A" fill-rule="evenodd" fill-opacity="1"/><path d="M2351.9 2252.12C2075.51 2209.39 1827.47 2058.62 1662.44 1833.03L1865.23 1684.97C1990.93 1856.7 2179.84 1971.47 2390.33 2004Z" stroke="#6A6A6A" stroke-width="22.9167" stroke-linecap="butt" stroke-linejoin="miter" stroke-miterlimit="8" stroke-opacity="1" fill="#6A6A6A" fill-rule="evenodd" fill-opacity="1"/><path d="M1503.19 802.27C1667.11 245.351 2252.31-73.494 2810.29 90.1092 2966.71 135.972 3110.32 217.459 3229.82 328.152L3068.47 501.667C2738.04 195.915 2221.7 215.266 1915.2 544.888 1829.36 637.205 1766.15 748.128 1730.56 868.936Z" stroke="#6A6A6A" stroke-width="22.9167" stroke-linecap="butt" stroke-linejoin="miter" stroke-miterlimit="8" stroke-opacity="1" fill="#6A6A6A" fill-rule="evenodd" fill-opacity="1"/><path d="M3227.14 643.665C3317.65 549.234 3467.61 546.091 3562.09 636.646 3656.57 727.202 3659.8 877.163 3569.29 971.594 3478.78 1066.03 3328.82 1069.17 3234.34 978.613 3139.86 888.058 3136.64 738.097 3227.14 643.665Z" stroke="#6A6A6A" stroke-width="22.9167" stroke-linecap="butt" stroke-linejoin="miter" stroke-miterlimit="8" stroke-opacity="1" fill="#6A6A6A" fill-rule="evenodd" fill-opacity="1"/><path d="M2705.5 1925.64C2812.83 1850.76 2960.51 1877.03 3035.35 1984.31 3110.18 2091.59 3083.83 2239.25 2976.5 2314.13 2869.16 2389 2721.49 2362.73 2646.65 2255.45 2571.82 2148.18 2598.16 2000.51 2705.5 1925.64Z" stroke="#6A6A6A" stroke-width="22.9167" stroke-linecap="butt" stroke-linejoin="miter" stroke-miterlimit="8" stroke-opacity="1" fill="#6A6A6A" fill-rule="evenodd" fill-opacity="1"/><path d="M1344.7 1215.48C1394.39 1094.49 1532.81 1036.7 1653.87 1086.41 1774.93 1136.12 1832.79 1274.51 1783.1 1395.51 1733.42 1516.5 1595 1574.29 1473.94 1524.58 1352.88 1474.86 1295.02 1336.48 1344.7 1215.48Z" stroke="#6A6A6A" stroke-width="22.9167" stroke-linecap="butt" stroke-linejoin="miter" stroke-miterlimit="8" stroke-opacity="1" fill="#6A6A6A" fill-rule="evenodd" fill-opacity="1"/><rect x="2073.5" y="718.5" width="343" height="835" stroke="#6A6A6A" stroke-width="22.9167" stroke-linecap="butt" stroke-linejoin="miter" stroke-miterlimit="8" stroke-opacity="1" fill="#6A6A6A" fill-opacity="1"/><rect x="2626.5" y="722.5" width="343" height="224" stroke="#6A6A6A" stroke-width="22.9167" stroke-linecap="butt" stroke-linejoin="miter" stroke-miterlimit="8" stroke-opacity="1" fill="#6A6A6A" fill-opacity="1"/><rect x="2623.5" y="1185.5" width="344" height="361" stroke="#6A6A6A" stroke-width="22.9167" stroke-linecap="butt" stroke-linejoin="miter" stroke-miterlimit="8" stroke-opacity="1" fill="#6A6A6A" fill-opacity="1"/></g></svg>