<svg width="73" height="72" xmlns="http://www.w3.org/2000/svg" xmlns:xlink="http://www.w3.org/1999/xlink" overflow="hidden"><defs><clipPath id="clip0"><rect x="988" y="276" width="73" height="72"/></clipPath><clipPath id="clip1"><rect x="989" y="276" width="72" height="72"/></clipPath><clipPath id="clip2"><rect x="989" y="276" width="72" height="72"/></clipPath><clipPath id="clip3"><rect x="989" y="276" width="72" height="72"/></clipPath></defs><g clip-path="url(#clip0)" transform="translate(-988 -276)"><g clip-path="url(#clip1)"><g clip-path="url(#clip2)"><g clip-path="url(#clip3)"><path d="M1027.02 340.35C1011.94 340.364 999.698 328.17 999.648 313.09 999.722 298.578 1011.42 286.808 1025.94 286.65 1028.07 286.649 1030.2 286.928 1032.27 287.478L1032.85 287.633 1030.68 295.717 1030.1 295.559C1028.72 295.186 1027.31 294.999 1025.89 295.004 1016.4 295.181 1008.79 302.882 1008.71 312.367 1008.77 322.455 1017 330.584 1027.09 330.524 1031.4 330.499 1035.56 328.95 1038.84 326.151 1039.32 325.736 1040.05 325.773 1040.49 326.235L1045.52 331.506C1045.98 331.984 1045.96 332.744 1045.48 333.203 1045.47 333.211 1045.46 333.22 1045.46 333.228 1040.41 337.808 1033.84 340.347 1027.02 340.35ZM1025.94 287.85C1012.09 288.006 1000.92 299.24 1000.85 313.09 1000.92 327.551 1012.7 339.219 1027.16 339.15 1033.63 339.12 1039.86 336.693 1044.65 332.339L1039.62 327.063C1031.45 334.044 1019.16 333.074 1012.17 324.895 1009.19 321.4 1007.54 316.963 1007.51 312.367 1007.59 302.223 1015.74 293.991 1025.89 293.805 1027.21 293.802 1028.54 293.952 1029.83 294.252L1031.38 288.491C1029.59 288.065 1027.77 287.85 1025.93 287.85ZM1049.25 317.85 1025.31 317.85C1021.07 317.829 1017.64 314.373 1017.65 310.125 1017.65 309.586 1018.09 309.15 1018.62 309.15L1040.79 309.15C1040.33 306.081 1039.08 303.187 1037.14 300.762L1036.95 300.523 1039.45 291.102 1040.16 291.636C1046.62 296.574 1050.38 304.247 1050.35 312.372L1050.35 316.749C1050.35 317.357 1049.86 317.849 1049.25 317.85ZM1018.85 310.35C1018.96 313.846 1021.82 316.63 1025.31 316.65L1049.15 316.65 1049.15 312.372C1049.18 304.94 1045.88 297.885 1040.15 293.148L1038.26 300.238C1040.3 302.9 1041.61 306.054 1042.04 309.381L1042.23 310.35Z" stroke="#5864FA" stroke-width="0.666666" stroke-linecap="butt" stroke-linejoin="miter" stroke-miterlimit="4" stroke-opacity="1" fill="#292B47" fill-rule="nonzero" fill-opacity="1"/></g></g></g></g></svg>