<svg width="96" height="97" xmlns="http://www.w3.org/2000/svg" xmlns:xlink="http://www.w3.org/1999/xlink" overflow="hidden"><defs><clipPath id="clip0"><rect x="1096" y="268" width="96" height="97"/></clipPath><clipPath id="clip1"><rect x="1096" y="269" width="96" height="96"/></clipPath><clipPath id="clip2"><rect x="1096" y="269" width="96" height="96"/></clipPath><clipPath id="clip3"><rect x="1096" y="269" width="96" height="96"/></clipPath></defs><g clip-path="url(#clip0)" transform="translate(-1096 -268)"><g clip-path="url(#clip1)"><g clip-path="url(#clip2)"><g clip-path="url(#clip3)"><path d="M1154.51 344.114 1182.64 315.986 1170 303.348 1172.74 296.144 1142.97 284.84 1135.33 277.2 1108.2 277.2 1108.2 338.8 1117.22 338.8 1123.51 341.19 1140.49 358.13 1148.11 350.532 1151.57 351.85 1154.09 345.238 1154.09 345.238ZM1180.37 315.986 1155.9 340.46 1169.37 304.99ZM1135.8 279.932 1151.07 295.2 1135.8 295.2ZM1109.8 278.8 1134.67 278.8 1134.87 279 1134.2 279 1134.2 296.8 1152 296.8 1152 296.13 1152.2 296.332 1152.2 337.2 1109.8 337.2ZM1140.49 355.868 1127.17 342.58 1146.47 349.91ZM1150.65 349.788 1121.73 338.8 1153.8 338.8 1153.8 295.668 1145.73 287.596 1170.67 297.07 1153.29 342.844Z" stroke="#0079C1" stroke-width="0.666666" stroke-linecap="butt" stroke-linejoin="miter" stroke-miterlimit="4" stroke-opacity="1" fill="#0079C1" fill-rule="nonzero" fill-opacity="1"/></g></g></g></g></svg>