<svg width="97" height="98" xmlns="http://www.w3.org/2000/svg" xmlns:xlink="http://www.w3.org/1999/xlink" overflow="hidden"><defs><clipPath id="clip0"><rect x="568" y="218" width="97" height="98"/></clipPath><clipPath id="clip1"><rect x="569" y="219" width="96" height="96"/></clipPath><clipPath id="clip2"><rect x="569" y="219" width="96" height="96"/></clipPath><clipPath id="clip3"><rect x="569" y="219" width="96" height="96"/></clipPath></defs><g clip-path="url(#clip0)" transform="translate(-568 -218)"><g clip-path="url(#clip1)"><g clip-path="url(#clip2)"><g clip-path="url(#clip3)"><path d="M627.514 294.114 655.636 265.986 643 253.348 645.736 246.144 615.97 234.84 608.332 227.2 581.2 227.2 581.2 288.8 590.222 288.8 596.512 291.19 613.492 308.13 621.108 300.532 624.574 301.85 627.086 295.238 627.088 295.238ZM653.374 265.986 628.9 290.46 642.372 254.99ZM608.8 229.932 624.068 245.2 608.8 245.2ZM582.8 228.8 607.668 228.8 607.868 229 607.2 229 607.2 246.8 625 246.8 625 246.13 625.2 246.332 625.2 287.2 582.8 287.2ZM613.492 305.868 600.172 292.58 619.466 299.91ZM623.648 299.788 594.728 288.8 626.8 288.8 626.8 245.668 618.73 237.596 643.67 247.07 626.286 292.844Z" stroke="#5864FA" stroke-width="0.666666" stroke-linecap="butt" stroke-linejoin="miter" stroke-miterlimit="4" stroke-opacity="1" fill="#292B47" fill-rule="nonzero" fill-opacity="1"/></g></g></g></g></svg>