<svg width="96" height="98" xmlns="http://www.w3.org/2000/svg" xmlns:xlink="http://www.w3.org/1999/xlink" overflow="hidden"><defs><clipPath id="clip0"><rect x="544" y="330" width="96" height="98"/></clipPath><clipPath id="clip1"><rect x="544" y="331" width="96" height="96"/></clipPath><clipPath id="clip2"><rect x="544" y="331" width="96" height="96"/></clipPath><clipPath id="clip3"><rect x="544" y="331" width="96" height="96"/></clipPath></defs><g clip-path="url(#clip0)" transform="translate(-544 -330)"><g clip-path="url(#clip1)"><g clip-path="url(#clip2)"><g clip-path="url(#clip3)"><path d="M602.514 406.114 630.636 377.986 618 365.348 620.736 358.144 590.97 346.84 583.332 339.2 556.2 339.2 556.2 400.8 565.222 400.8 571.512 403.19 588.492 420.13 596.108 412.532 599.574 413.85 602.086 407.238 602.088 407.238ZM628.374 377.986 603.9 402.46 617.372 366.99ZM583.8 341.932 599.068 357.2 583.8 357.2ZM557.8 340.8 582.668 340.8 582.868 341 582.2 341 582.2 358.8 600 358.8 600 358.13 600.2 358.332 600.2 399.2 557.8 399.2ZM588.492 417.868 575.172 404.58 594.466 411.91ZM598.648 411.788 569.728 400.8 601.8 400.8 601.8 357.668 593.73 349.596 618.67 359.07 601.286 404.844Z" stroke="#557A71" stroke-width="0.888888" stroke-linecap="butt" stroke-linejoin="miter" stroke-miterlimit="4" stroke-opacity="1" fill="#557A71" fill-rule="nonzero" fill-opacity="1"/></g></g></g></g></svg>