<svg width="74" height="74" xmlns="http://www.w3.org/2000/svg" xmlns:xlink="http://www.w3.org/1999/xlink" overflow="hidden"><defs><clipPath id="clip0"><rect x="718" y="506" width="74" height="74"/></clipPath><clipPath id="clip1"><rect x="719" y="507" width="72" height="72"/></clipPath><clipPath id="clip2"><rect x="719" y="507" width="72" height="72"/></clipPath><clipPath id="clip3"><rect x="719" y="507" width="72" height="72"/></clipPath></defs><g clip-path="url(#clip0)" transform="translate(-718 -506)"><g clip-path="url(#clip1)"><g clip-path="url(#clip2)"><g clip-path="url(#clip3)"><path d="M757.023 571.35C741.944 571.364 729.698 559.17 729.648 544.091 729.722 529.578 741.424 517.808 755.936 517.65 758.075 517.649 760.205 517.928 762.272 518.478L762.851 518.633 760.68 526.718 760.097 526.558C758.725 526.186 757.308 525.999 755.886 526.003 746.402 526.18 738.786 533.882 738.714 543.367 738.774 553.455 747 561.584 757.088 561.524 761.398 561.499 765.561 559.95 768.839 557.151 769.325 556.736 770.051 556.773 770.492 557.235L775.517 562.506C775.976 562.984 775.961 563.744 775.483 564.203 775.474 564.211 775.465 564.22 775.456 564.228 770.409 568.808 763.839 571.347 757.023 571.35ZM755.936 518.85C742.086 519.006 730.92 530.24 730.849 544.091 730.917 558.551 742.695 570.219 757.156 570.15 763.628 570.12 769.86 567.693 774.648 563.339L769.623 558.063C761.445 565.044 749.156 564.074 742.174 555.895 739.191 552.4 737.54 547.963 737.513 543.367 737.594 533.223 745.742 524.991 755.885 524.805 757.213 524.802 758.537 524.952 759.83 525.252L761.378 519.49C759.595 519.065 757.768 518.85 755.935 518.85ZM779.25 548.85 755.313 548.85C751.065 548.829 747.636 545.373 747.648 541.125 747.649 540.586 748.086 540.15 748.625 540.15L770.786 540.15C770.333 537.081 769.076 534.187 767.141 531.762L766.946 531.523 769.451 522.102 770.164 522.636C776.615 527.574 780.384 535.247 780.35 543.372L780.35 547.749C780.35 548.357 779.858 548.849 779.25 548.85ZM748.853 541.35C748.961 544.846 751.816 547.63 755.313 547.65L779.148 547.65 779.148 543.372C779.178 535.94 775.876 528.885 770.148 524.148L768.263 531.239C770.305 533.9 771.608 537.054 772.04 540.381L772.232 541.35Z" stroke="#5864FA" stroke-width="0.666667" stroke-linecap="butt" stroke-linejoin="miter" stroke-miterlimit="4" stroke-opacity="1" fill="#5864FA" fill-rule="nonzero" fill-opacity="1"/></g></g></g></g></svg>