<svg width="72" height="74" xmlns="http://www.w3.org/2000/svg" xmlns:xlink="http://www.w3.org/1999/xlink" overflow="hidden"><defs><clipPath id="clip0"><rect x="784" y="282" width="72" height="74"/></clipPath><clipPath id="clip1"><rect x="784" y="283" width="72" height="72"/></clipPath><clipPath id="clip2"><rect x="784" y="283" width="72" height="72"/></clipPath><clipPath id="clip3"><rect x="784" y="283" width="72" height="72"/></clipPath></defs><g clip-path="url(#clip0)" transform="translate(-784 -282)"><g clip-path="url(#clip1)"><g clip-path="url(#clip2)"><g clip-path="url(#clip3)"><path d="M811.742 317.635C814.4 317.4 816.744 319.365 816.978 322.022 816.987 322.121 816.993 322.22 816.995 322.319 817.039 324.148 816.136 325.868 814.606 326.871 813.06 327.891 812.186 329.667 812.32 331.514L812.32 332.5 811.12 332.5 811.12 331.514C810.978 329.309 812.012 327.193 813.838 325.949 815.097 325.181 815.845 323.794 815.795 322.319 815.724 320.312 814.037 318.743 812.03 318.815 811.934 318.818 811.838 318.825 811.742 318.836 809.169 318.836 807.995 320.322 807.995 321.704L806.795 321.704C806.795 319.682 808.495 317.637 811.742 317.637ZM846.016 313.513 847.281 320.728 841.912 319.207 842.239 318.052 845.77 319.054 844.688 312.888 845.057 312.679C850.198 309.789 853.147 305.518 853.147 300.964 853.147 292.633 843.322 285.856 831.247 285.856 819.172 285.856 809.347 292.633 809.347 300.964 809.437 304.333 810.919 307.513 813.442 309.748L813.911 310.198C828.886 310.705 840.85 319.156 840.85 329.5 840.85 340.169 828.131 348.85 812.5 348.85 810.375 348.85 806.648 348.408 805.851 348.31L791.286 353.75 794.378 344.393C787.87 340.705 784.15 335.301 784.15 329.5 784.15 318.904 796.696 310.28 812.179 310.16 809.672 307.749 808.222 304.442 808.147 300.964 808.147 291.971 818.509 284.656 831.247 284.656 843.985 284.656 854.347 291.971 854.347 300.964 854.347 305.851 851.317 310.406 846.016 313.513ZM812.5 311.35C797.53 311.35 785.35 319.492 785.35 329.5 785.35 334.975 789.01 340.109 795.391 343.583L795.831 343.823 793.211 351.751 805.706 347.083 805.852 347.101C805.897 347.107 810.237 347.65 812.5 347.65 827.47 347.65 839.65 339.508 839.65 329.5 839.65 319.492 827.47 311.35 812.5 311.35ZM813.1 336.25C813.1 336.996 812.496 337.6 811.75 337.6 811.004 337.6 810.4 336.996 810.4 336.25 810.4 335.504 811.004 334.9 811.75 334.9 812.495 334.901 813.099 335.505 813.1 336.25ZM811.9 336.25C811.9 336.167 811.833 336.1 811.75 336.1 811.667 336.1 811.6 336.167 811.6 336.25 811.6 336.415 811.9 336.415 811.9 336.25ZM831.25 298.712C832.099 298.712 832.787 299.401 832.787 300.25 832.787 301.099 832.099 301.788 831.25 301.788 830.401 301.788 829.713 301.099 829.713 300.25 829.713 299.401 830.401 298.713 831.25 298.712ZM831.25 299.913C831.064 299.913 830.912 300.064 830.912 300.25 830.912 300.622 831.588 300.622 831.588 300.25 831.588 300.064 831.436 299.913 831.25 299.913ZM841.713 300.25C841.713 299.401 842.401 298.712 843.25 298.712 844.099 298.712 844.787 299.401 844.787 300.25 844.787 301.099 844.099 301.788 843.25 301.788 842.401 301.787 841.713 301.099 841.713 300.25ZM842.912 300.25C842.912 300.622 843.588 300.622 843.588 300.25 843.588 300.064 843.436 299.913 843.25 299.913 843.064 299.913 842.912 300.064 842.912 300.25ZM819.25 298.712C820.099 298.712 820.787 299.401 820.787 300.25 820.787 301.099 820.099 301.788 819.25 301.788 818.401 301.788 817.713 301.099 817.713 300.25 817.713 299.401 818.401 298.713 819.25 298.712ZM819.25 299.913C819.064 299.913 818.912 300.064 818.912 300.25 818.912 300.622 819.588 300.622 819.588 300.25 819.588 300.064 819.436 299.913 819.25 299.913Z" stroke="#5864FA" stroke-width="0.666666" stroke-linecap="butt" stroke-linejoin="miter" stroke-miterlimit="4" stroke-opacity="1" fill="#292B47" fill-rule="nonzero" fill-opacity="1"/></g></g></g></g></svg>