<svg width="73" height="73" xmlns="http://www.w3.org/2000/svg" xmlns:xlink="http://www.w3.org/1999/xlink" overflow="hidden"><defs><clipPath id="clip0"><rect x="713" y="65" width="73" height="73"/></clipPath><clipPath id="clip1"><rect x="714" y="66" width="72" height="72"/></clipPath><clipPath id="clip2"><rect x="714" y="66" width="72" height="72"/></clipPath><clipPath id="clip3"><rect x="714" y="66" width="72" height="72"/></clipPath></defs><g clip-path="url(#clip0)" transform="translate(-713 -65)"><g clip-path="url(#clip1)"><g clip-path="url(#clip2)"><g clip-path="url(#clip3)"><path d="M741.742 100.635C744.4 100.4 746.744 102.365 746.978 105.022 746.987 105.121 746.993 105.22 746.995 105.319 747.039 107.148 746.136 108.868 744.606 109.87 743.06 110.891 742.186 112.667 742.32 114.514L742.32 115.5 741.12 115.5 741.12 114.514C740.978 112.309 742.012 110.193 743.838 108.95 745.097 108.181 745.845 106.794 745.795 105.319 745.724 103.312 744.037 101.743 742.03 101.815 741.934 101.818 741.838 101.825 741.742 101.837 739.169 101.837 737.995 103.322 737.995 104.704L736.795 104.704C736.795 102.683 738.495 100.636 741.742 100.636ZM776.016 96.513 777.281 103.728 771.912 102.207 772.239 101.052 775.77 102.054 774.688 95.8875 775.057 95.679C780.198 92.7885 783.147 88.518 783.147 83.964 783.147 75.633 773.322 68.856 761.247 68.856 749.172 68.856 739.347 75.633 739.347 83.964 739.437 87.3327 740.919 90.5135 743.442 92.748L743.911 93.198C758.886 93.705 770.85 102.156 770.85 112.5 770.85 123.169 758.131 131.85 742.5 131.85 740.375 131.85 736.648 131.408 735.851 131.31L721.286 136.751 724.378 127.394C717.87 123.705 714.15 118.3 714.15 112.5 714.15 101.904 726.696 93.2805 742.179 93.1605 739.672 90.7488 738.222 87.442 738.147 83.964 738.147 74.9715 748.509 67.656 761.247 67.656 773.985 67.656 784.347 74.9715 784.347 83.964 784.347 88.851 781.317 93.4065 776.016 96.513ZM742.5 94.35C727.53 94.35 715.35 102.492 715.35 112.5 715.35 117.975 719.01 123.11 725.391 126.583L725.831 126.824 723.211 134.751 735.706 130.083 735.852 130.101C735.897 130.107 740.237 130.65 742.5 130.65 757.47 130.65 769.65 122.508 769.65 112.5 769.65 102.492 757.47 94.35 742.5 94.35ZM743.1 119.25C743.1 119.996 742.496 120.6 741.75 120.6 741.004 120.6 740.4 119.996 740.4 119.25 740.4 118.504 741.004 117.9 741.75 117.9 742.495 117.901 743.099 118.505 743.1 119.25ZM741.9 119.25C741.9 119.167 741.833 119.1 741.75 119.1 741.667 119.1 741.6 119.167 741.6 119.25 741.6 119.415 741.9 119.415 741.9 119.25ZM761.25 81.7125C762.099 81.7125 762.787 82.4008 762.787 83.25 762.787 84.0992 762.099 84.7875 761.25 84.7875 760.401 84.7875 759.713 84.0992 759.713 83.25 759.713 82.4012 760.401 81.7134 761.25 81.7125ZM761.25 82.9125C761.064 82.9125 760.912 83.0636 760.912 83.25 760.912 83.622 761.588 83.622 761.588 83.25 761.588 83.0636 761.436 82.9125 761.25 82.9125ZM771.713 83.25C771.713 82.4008 772.401 81.7125 773.25 81.7125 774.099 81.7125 774.787 82.4008 774.787 83.25 774.787 84.0992 774.099 84.7875 773.25 84.7875 772.401 84.7866 771.713 84.0988 771.713 83.25ZM772.912 83.25C772.912 83.622 773.588 83.622 773.588 83.25 773.588 83.0636 773.436 82.9125 773.25 82.9125 773.064 82.9125 772.912 83.0636 772.912 83.25ZM749.25 81.7125C750.099 81.7125 750.787 82.4008 750.787 83.25 750.787 84.0992 750.099 84.7875 749.25 84.7875 748.401 84.7875 747.713 84.0992 747.713 83.25 747.713 82.4012 748.401 81.7134 749.25 81.7125ZM749.25 82.9125C749.064 82.9125 748.912 83.0636 748.912 83.25 748.912 83.622 749.588 83.622 749.588 83.25 749.588 83.0636 749.436 82.9125 749.25 82.9125Z" stroke="#557A71" stroke-width="1.50005" stroke-linecap="butt" stroke-linejoin="miter" stroke-miterlimit="4" stroke-opacity="1" fill="#557A71" fill-rule="nonzero" fill-opacity="1"/></g></g></g></g></svg>