<svg width="72" height="73" xmlns="http://www.w3.org/2000/svg" xmlns:xlink="http://www.w3.org/1999/xlink" overflow="hidden"><defs><clipPath id="clip0"><rect x="720" y="65" width="72" height="73"/></clipPath><clipPath id="clip1"><rect x="720" y="66" width="72" height="72"/></clipPath><clipPath id="clip2"><rect x="720" y="66" width="72" height="72"/></clipPath><clipPath id="clip3"><rect x="720" y="66" width="72" height="72"/></clipPath></defs><g clip-path="url(#clip0)" transform="translate(-720 -65)"><g clip-path="url(#clip1)"><g clip-path="url(#clip2)"><g clip-path="url(#clip3)"><path d="M747.742 100.635C750.4 100.4 752.744 102.365 752.978 105.022 752.987 105.121 752.993 105.22 752.995 105.319 753.039 107.148 752.136 108.868 750.606 109.87 749.06 110.891 748.186 112.667 748.32 114.514L748.32 115.5 747.12 115.5 747.12 114.514C746.978 112.309 748.012 110.193 749.838 108.95 751.097 108.181 751.845 106.794 751.795 105.319 751.724 103.312 750.037 101.743 748.03 101.815 747.934 101.818 747.838 101.825 747.742 101.837 745.169 101.837 743.995 103.322 743.995 104.704L742.795 104.704C742.795 102.683 744.495 100.636 747.742 100.636ZM782.016 96.513 783.281 103.728 777.912 102.207 778.239 101.052 781.77 102.054 780.688 95.8875 781.057 95.679C786.198 92.7885 789.147 88.518 789.147 83.964 789.147 75.633 779.322 68.856 767.247 68.856 755.172 68.856 745.347 75.633 745.347 83.964 745.437 87.3327 746.919 90.5135 749.442 92.748L749.911 93.198C764.886 93.705 776.85 102.156 776.85 112.5 776.85 123.169 764.131 131.85 748.5 131.85 746.375 131.85 742.648 131.408 741.851 131.31L727.286 136.751 730.378 127.394C723.87 123.705 720.15 118.3 720.15 112.5 720.15 101.904 732.696 93.2805 748.179 93.1605 745.672 90.7488 744.222 87.442 744.147 83.964 744.147 74.9715 754.509 67.656 767.247 67.656 779.985 67.656 790.347 74.9715 790.347 83.964 790.347 88.851 787.317 93.4065 782.016 96.513ZM748.5 94.35C733.53 94.35 721.35 102.492 721.35 112.5 721.35 117.975 725.01 123.11 731.391 126.583L731.831 126.824 729.211 134.751 741.706 130.083 741.852 130.101C741.897 130.107 746.237 130.65 748.5 130.65 763.47 130.65 775.65 122.508 775.65 112.5 775.65 102.492 763.47 94.35 748.5 94.35ZM749.1 119.25C749.1 119.996 748.496 120.6 747.75 120.6 747.004 120.6 746.4 119.996 746.4 119.25 746.4 118.504 747.004 117.9 747.75 117.9 748.495 117.901 749.099 118.505 749.1 119.25ZM747.9 119.25C747.9 119.167 747.833 119.1 747.75 119.1 747.667 119.1 747.6 119.167 747.6 119.25 747.6 119.415 747.9 119.415 747.9 119.25ZM767.25 81.7125C768.099 81.7125 768.787 82.4008 768.787 83.25 768.787 84.0992 768.099 84.7875 767.25 84.7875 766.401 84.7875 765.713 84.0992 765.713 83.25 765.713 82.4012 766.401 81.7134 767.25 81.7125ZM767.25 82.9125C767.064 82.9125 766.912 83.0636 766.912 83.25 766.912 83.622 767.588 83.622 767.588 83.25 767.588 83.0636 767.436 82.9125 767.25 82.9125ZM777.713 83.25C777.713 82.4008 778.401 81.7125 779.25 81.7125 780.099 81.7125 780.787 82.4008 780.787 83.25 780.787 84.0992 780.099 84.7875 779.25 84.7875 778.401 84.7866 777.713 84.0988 777.713 83.25ZM778.912 83.25C778.912 83.622 779.588 83.622 779.588 83.25 779.588 83.0636 779.436 82.9125 779.25 82.9125 779.064 82.9125 778.912 83.0636 778.912 83.25ZM755.25 81.7125C756.099 81.7125 756.787 82.4008 756.787 83.25 756.787 84.0992 756.099 84.7875 755.25 84.7875 754.401 84.7875 753.713 84.0992 753.713 83.25 753.713 82.4012 754.401 81.7134 755.25 81.7125ZM755.25 82.9125C755.064 82.9125 754.912 83.0636 754.912 83.25 754.912 83.622 755.588 83.622 755.588 83.25 755.588 83.0636 755.436 82.9125 755.25 82.9125Z" stroke="#5864FA" stroke-width="0.666666" stroke-linecap="butt" stroke-linejoin="miter" stroke-miterlimit="4" stroke-opacity="1" fill="#292B47" fill-rule="nonzero" fill-opacity="1"/></g></g></g></g></svg>