<svg width="72" height="74" xmlns="http://www.w3.org/2000/svg" xmlns:xlink="http://www.w3.org/1999/xlink" overflow="hidden"><defs><clipPath id="clip0"><rect x="644" y="530" width="72" height="74"/></clipPath><clipPath id="clip1"><rect x="644" y="531" width="72" height="72"/></clipPath><clipPath id="clip2"><rect x="644" y="531" width="72" height="72"/></clipPath><clipPath id="clip3"><rect x="644" y="531" width="72" height="72"/></clipPath></defs><g clip-path="url(#clip0)" transform="translate(-644 -530)"><g clip-path="url(#clip1)"><g clip-path="url(#clip2)"><g clip-path="url(#clip3)"><path d="M679.259 559.367C675.614 559.367 672.659 556.412 672.659 552.766 672.659 549.121 675.614 546.167 679.259 546.167 682.904 546.167 685.859 549.121 685.859 552.766 685.855 556.41 682.902 559.362 679.259 559.367ZM679.259 547.367C676.277 547.367 673.859 549.784 673.859 552.766 673.859 555.749 676.277 558.167 679.259 558.167 682.241 558.167 684.659 555.749 684.659 552.766 684.656 549.786 682.24 547.37 679.259 547.367ZM679.25 589.671 665.15 575.637 665.15 546.042C665.15 539.195 670.025 535.575 679.25 535.575 688.475 535.575 693.35 539.195 693.35 546.041L693.35 575.637ZM666.35 575.139 679.25 587.979 692.15 575.139 692.15 546.041C692.15 538.383 685.135 536.775 679.25 536.775 673.365 536.775 666.35 538.383 666.35 546.041ZM665.15 590.244C665.15 593.142 671.474 595.5 679.25 595.5 687.026 595.5 693.35 593.142 693.35 590.245 693.35 588.336 690.776 586.955 687.26 586.145L686.245 587.154C689.851 587.883 692.15 589.105 692.15 590.244 692.15 591.898 687.125 594.3 679.25 594.3 671.375 594.3 666.35 591.9 666.35 590.245 666.35 589.105 668.649 587.883 672.255 587.156L671.24 586.145C667.724 586.955 665.15 588.336 665.15 590.245ZM693.095 580.335 692.03 581.396C701.765 583.049 708.65 586.487 708.65 590.364 708.65 595.76 695.462 600.15 679.25 600.15 663.038 600.15 649.85 595.76 649.85 590.364 649.85 586.487 656.735 583.049 666.47 581.396L665.405 580.335C655.393 582.159 648.65 585.915 648.65 590.364 648.65 596.627 661.805 601.35 679.25 601.35 696.695 601.35 709.85 596.627 709.85 590.364 709.85 585.915 703.107 582.159 693.095 580.335Z" stroke="#0079C1" stroke-width="1.33333" stroke-linecap="butt" stroke-linejoin="miter" stroke-miterlimit="4" stroke-opacity="1" fill="#0079C1" fill-rule="nonzero" fill-opacity="1"/></g></g></g></g></svg>