<svg width="74" height="73" xmlns="http://www.w3.org/2000/svg" xmlns:xlink="http://www.w3.org/1999/xlink" overflow="hidden"><defs><clipPath id="clip0"><rect x="774" y="480" width="74" height="73"/></clipPath><clipPath id="clip1"><rect x="775" y="481" width="72" height="72"/></clipPath><clipPath id="clip2"><rect x="775" y="481" width="72" height="72"/></clipPath><clipPath id="clip3"><rect x="775" y="481" width="72" height="72"/></clipPath></defs><g clip-path="url(#clip0)" transform="translate(-774 -480)"><g clip-path="url(#clip1)"><g clip-path="url(#clip2)"><g clip-path="url(#clip3)"><path d="M810.259 509.366C806.614 509.366 803.659 506.412 803.659 502.767 803.659 499.121 806.614 496.167 810.259 496.167 813.904 496.167 816.859 499.121 816.859 502.767 816.855 506.41 813.902 509.362 810.259 509.366ZM810.259 497.366C807.277 497.366 804.859 499.784 804.859 502.767 804.859 505.749 807.277 508.167 810.259 508.167 813.241 508.167 815.659 505.749 815.659 502.767 815.656 499.786 813.24 497.37 810.259 497.366ZM810.25 539.671 796.15 525.637 796.15 496.042C796.15 489.194 801.025 485.575 810.25 485.575 819.475 485.575 824.35 489.194 824.35 496.04L824.35 525.637ZM797.35 525.139 810.25 537.979 823.15 525.139 823.15 496.04C823.15 488.383 816.135 486.775 810.25 486.775 804.365 486.775 797.35 488.383 797.35 496.04ZM796.15 540.244C796.15 543.142 802.474 545.5 810.25 545.5 818.026 545.5 824.35 543.142 824.35 540.245 824.35 538.336 821.776 536.955 818.26 536.145L817.245 537.154C820.851 537.883 823.15 539.105 823.15 540.244 823.15 541.898 818.125 544.3 810.25 544.3 802.375 544.3 797.35 541.9 797.35 540.245 797.35 539.105 799.649 537.883 803.255 537.156L802.24 536.145C798.724 536.955 796.15 538.336 796.15 540.245ZM824.095 530.335 823.03 531.396C832.765 533.049 839.65 536.487 839.65 540.364 839.65 545.76 826.462 550.15 810.25 550.15 794.038 550.15 780.85 545.76 780.85 540.364 780.85 536.487 787.735 533.049 797.47 531.396L796.405 530.335C786.393 532.159 779.65 535.915 779.65 540.364 779.65 546.627 792.805 551.35 810.25 551.35 827.695 551.35 840.85 546.627 840.85 540.364 840.85 535.915 834.107 532.159 824.095 530.335Z" stroke="#FFC000" stroke-width="1.33333" stroke-linecap="butt" stroke-linejoin="miter" stroke-miterlimit="4" stroke-opacity="1" fill="#FFC000" fill-rule="nonzero" fill-opacity="1"/></g></g></g></g></svg>