<svg width="72" height="73" xmlns="http://www.w3.org/2000/svg" xmlns:xlink="http://www.w3.org/1999/xlink" overflow="hidden"><defs><clipPath id="clip0"><rect x="712" y="484" width="72" height="73"/></clipPath><clipPath id="clip1"><rect x="712" y="485" width="72" height="72"/></clipPath><clipPath id="clip2"><rect x="712" y="485" width="72" height="72"/></clipPath><clipPath id="clip3"><rect x="712" y="485" width="72" height="72"/></clipPath></defs><g clip-path="url(#clip0)" transform="translate(-712 -484)"><g clip-path="url(#clip1)"><g clip-path="url(#clip2)"><g clip-path="url(#clip3)"><path d="M747.259 513.367C743.614 513.367 740.659 510.412 740.659 506.767 740.659 503.121 743.614 500.167 747.259 500.167 750.904 500.167 753.859 503.121 753.859 506.767 753.855 510.41 750.902 513.362 747.259 513.367ZM747.259 501.366C744.277 501.366 741.859 503.784 741.859 506.767 741.859 509.749 744.277 512.167 747.259 512.167 750.241 512.167 752.659 509.749 752.659 506.767 752.656 503.786 750.24 501.37 747.259 501.366ZM747.25 543.671 733.15 529.637 733.15 500.042C733.15 493.194 738.025 489.575 747.25 489.575 756.475 489.575 761.35 493.194 761.35 500.04L761.35 529.637ZM734.35 529.139 747.25 541.979 760.15 529.139 760.15 500.04C760.15 492.383 753.135 490.775 747.25 490.775 741.365 490.775 734.35 492.383 734.35 500.04ZM733.15 544.244C733.15 547.142 739.474 549.5 747.25 549.5 755.026 549.5 761.35 547.142 761.35 544.245 761.35 542.336 758.776 540.955 755.26 540.145L754.245 541.154C757.851 541.883 760.15 543.105 760.15 544.244 760.15 545.898 755.125 548.3 747.25 548.3 739.375 548.3 734.35 545.9 734.35 544.245 734.35 543.105 736.649 541.883 740.255 541.156L739.24 540.145C735.724 540.955 733.15 542.336 733.15 544.245ZM761.095 534.335 760.03 535.396C769.765 537.049 776.65 540.487 776.65 544.364 776.65 549.76 763.462 554.15 747.25 554.15 731.038 554.15 717.85 549.76 717.85 544.364 717.85 540.487 724.735 537.049 734.47 535.396L733.405 534.335C723.393 536.159 716.65 539.915 716.65 544.364 716.65 550.627 729.805 555.35 747.25 555.35 764.695 555.35 777.85 550.627 777.85 544.364 777.85 539.915 771.107 536.159 761.095 534.335Z" stroke="#FFC000" stroke-width="1.33333" stroke-linecap="butt" stroke-linejoin="miter" stroke-miterlimit="4" stroke-opacity="1" fill="#557A71" fill-rule="nonzero" fill-opacity="1"/></g></g></g></g></svg>