<svg width="97" height="96" xmlns="http://www.w3.org/2000/svg" xmlns:xlink="http://www.w3.org/1999/xlink" overflow="hidden"><defs><clipPath id="clip0"><rect x="277" y="208" width="97" height="96"/></clipPath><clipPath id="clip1"><rect x="278" y="208" width="96" height="96"/></clipPath><clipPath id="clip2"><rect x="278" y="208" width="96" height="96"/></clipPath><clipPath id="clip3"><rect x="278" y="208" width="96" height="96"/></clipPath></defs><g clip-path="url(#clip0)" transform="translate(-277 -208)"><g clip-path="url(#clip1)"><g clip-path="url(#clip2)"><g clip-path="url(#clip3)"><path d="M333.6 253.8 341.6 253.8 341.6 244.576 333.6 236.702 333.6 224.08C333.6 215.976 326.58 210.584 326.282 210.36L325.8 209.998 325.318 210.362C325.018 210.586 318 215.978 318 224.08L318 236.7 310 244.574 310 253.8 333.6 253.8ZM340 245.246 340 252.2 333.6 252.2 333.6 238.948ZM319.6 224.082C319.6 217.954 324.266 213.378 325.8 212.04 327.336 213.374 332 217.94 332 224.08L332 252.2 319.6 252.2ZM311.6 252.202 311.6 245.246 318 238.946 318 252.2ZM340 268 341.6 268 341.6 272 340 272ZM341.6 264 340 264 340 256 341.6 256ZM311.6 266 310 266 310 256 311.6 256ZM316 260 316 256 317.6 256 317.6 260ZM334 262 334 256 335.6 256 335.6 262ZM328.2 276 328.2 256 329.8 256 329.8 276ZM322.2 280 322.2 256 323.8 256 323.8 280ZM366.236 284.286C366.063 283.716 365.839 283.162 365.568 282.632 363.55 278.626 358.666 277.014 354.66 279.033 350.815 280.97 349.15 285.571 350.864 289.52 350.681 289.654 350.506 289.798 350.338 289.95 350.153 290.155 349.981 290.372 349.822 290.598 347.794 289.666 345.433 289.815 343.538 290.996 343.538 290.93 343.558 290.866 343.558 290.8 343.528 284.839 338.671 280.03 332.71 280.06 326.93 280.089 322.199 284.666 321.978 290.442 320.32 288.385 317.59 287.524 315.052 288.256 313.811 282.894 308.692 279.358 303.238 280.096 301.683 273.213 294.844 268.894 287.961 270.449 282.13 271.766 277.992 276.95 278 282.928 278.001 286.234 279.262 289.415 281.526 291.824 280.454 292.909 279.851 294.371 279.846 295.896 279.849 299.151 282.487 301.789 285.742 301.792L361.708 301.792 365 301.8C369.86 301.805 373.804 297.869 373.809 293.009 373.813 288.619 370.582 284.898 366.236 284.286ZM365 300.2 285.74 300.192C283.368 300.19 281.446 298.268 281.444 295.896 281.447 294.784 281.888 293.717 282.67 292.926 285.017 294.907 287.99 295.994 291.062 295.992L291.062 294.392C284.735 294.383 279.608 289.255 279.6 282.928 279.589 276.755 284.585 271.741 290.759 271.731 295.978 271.722 300.509 275.326 301.674 280.414 297.023 281.727 293.809 285.967 293.8 290.8L295.4 290.8C295.381 285.73 299.475 281.605 304.545 281.586 308.894 281.569 312.657 284.606 313.56 288.86 311.375 290.039 310.009 292.317 310 294.8L311.6 294.8C311.6 291.928 313.928 289.6 316.8 289.6 319.672 289.6 322 291.928 322 294.8L323.6 294.8C323.6 294.646 323.564 294.502 323.554 294.352L323.558 294.352 323.558 290.8C323.53 285.719 327.627 281.578 332.708 281.55 337.789 281.522 341.93 285.619 341.958 290.7 341.961 291.317 341.902 291.934 341.782 292.54 340.795 293.738 340.253 295.24 340.246 296.792L341.846 296.792C341.846 293.92 344.174 291.592 347.046 291.592 349.918 291.592 352.246 293.92 352.246 296.792L353.846 296.792C353.839 294.69 352.856 292.711 351.186 291.436 351.284 291.32 351.362 291.188 351.468 291.08 353.502 289.049 356.797 289.052 358.828 291.085 359.337 291.595 359.735 292.206 359.996 292.878L361.488 292.298C360.135 288.809 356.21 287.077 352.721 288.429 352.568 288.489 352.417 288.554 352.268 288.624 350.985 285.269 352.666 281.509 356.021 280.226 359.132 279.037 362.638 280.39 364.144 283.36 364.445 283.947 364.674 284.567 364.828 285.208L364.962 285.776 365.546 285.82C369.511 286.116 372.486 289.571 372.19 293.536 371.909 297.297 368.773 300.204 365.002 300.2Z" stroke="#557A71" stroke-width="0.666667" stroke-linecap="butt" stroke-linejoin="miter" stroke-miterlimit="4" stroke-opacity="1" fill="#557A71" fill-rule="nonzero" fill-opacity="1"/></g></g></g></g></svg>