<svg width="98" height="98" xmlns="http://www.w3.org/2000/svg" xmlns:xlink="http://www.w3.org/1999/xlink" overflow="hidden"><defs><clipPath id="clip0"><rect x="258" y="218" width="98" height="98"/></clipPath><clipPath id="clip1"><rect x="259" y="219" width="96" height="96"/></clipPath><clipPath id="clip2"><rect x="259" y="219" width="96" height="96"/></clipPath><clipPath id="clip3"><rect x="259" y="219" width="96" height="96"/></clipPath></defs><g clip-path="url(#clip0)" transform="translate(-258 -218)"><g clip-path="url(#clip1)"><g clip-path="url(#clip2)"><g clip-path="url(#clip3)"><path d="M314.6 264.8 322.6 264.8 322.6 255.576 314.6 247.702 314.6 235.08C314.6 226.976 307.58 221.584 307.282 221.36L306.8 220.998 306.318 221.362C306.018 221.586 299 226.978 299 235.08L299 247.7 291 255.574 291 264.8 314.6 264.8ZM321 256.246 321 263.2 314.6 263.2 314.6 249.948ZM300.6 235.082C300.6 228.954 305.266 224.378 306.8 223.04 308.336 224.374 313 228.94 313 235.08L313 263.2 300.6 263.2ZM292.6 263.202 292.6 256.246 299 249.946 299 263.2ZM321 279 322.6 279 322.6 283 321 283ZM322.6 275 321 275 321 267 322.6 267ZM292.6 277 291 277 291 267 292.6 267ZM297 271 297 267 298.6 267 298.6 271ZM315 273 315 267 316.6 267 316.6 273ZM309.2 287 309.2 267 310.8 267 310.8 287ZM303.2 291 303.2 267 304.8 267 304.8 291ZM347.236 295.286C347.063 294.716 346.839 294.162 346.568 293.632 344.55 289.626 339.666 288.014 335.66 290.033 331.815 291.97 330.15 296.571 331.864 300.52 331.681 300.654 331.506 300.798 331.338 300.95 331.153 301.155 330.981 301.372 330.822 301.598 328.794 300.666 326.433 300.815 324.538 301.996 324.538 301.93 324.558 301.866 324.558 301.8 324.528 295.839 319.671 291.03 313.71 291.06 307.93 291.089 303.199 295.666 302.978 301.442 301.32 299.385 298.59 298.524 296.052 299.256 294.811 293.894 289.692 290.358 284.238 291.096 282.683 284.213 275.844 279.894 268.961 281.449 263.13 282.766 258.992 287.95 259 293.928 259.001 297.234 260.262 300.415 262.526 302.824 261.454 303.909 260.851 305.371 260.846 306.896 260.849 310.151 263.487 312.789 266.742 312.792L342.708 312.792 346 312.8C350.86 312.805 354.804 308.869 354.809 304.009 354.813 299.619 351.582 295.898 347.236 295.286ZM346 311.2 266.74 311.192C264.368 311.19 262.446 309.268 262.444 306.896 262.447 305.784 262.888 304.717 263.67 303.926 266.017 305.907 268.99 306.994 272.062 306.992L272.062 305.392C265.735 305.383 260.608 300.255 260.6 293.928 260.589 287.755 265.585 282.741 271.759 282.731 276.978 282.722 281.509 286.326 282.674 291.414 278.023 292.727 274.809 296.967 274.8 301.8L276.4 301.8C276.381 296.73 280.475 292.605 285.545 292.586 289.894 292.569 293.657 295.606 294.56 299.86 292.375 301.039 291.009 303.317 291 305.8L292.6 305.8C292.6 302.928 294.928 300.6 297.8 300.6 300.672 300.6 303 302.928 303 305.8L304.6 305.8C304.6 305.646 304.564 305.502 304.554 305.352L304.558 305.352 304.558 301.8C304.53 296.719 308.627 292.578 313.708 292.55 318.789 292.522 322.93 296.619 322.958 301.7 322.961 302.317 322.902 302.934 322.782 303.54 321.795 304.738 321.253 306.24 321.246 307.792L322.846 307.792C322.846 304.92 325.174 302.592 328.046 302.592 330.918 302.592 333.246 304.92 333.246 307.792L334.846 307.792C334.839 305.69 333.856 303.711 332.186 302.436 332.284 302.32 332.362 302.188 332.468 302.08 334.502 300.049 337.797 300.052 339.828 302.085 340.337 302.595 340.735 303.206 340.996 303.878L342.488 303.298C341.135 299.809 337.21 298.077 333.721 299.429 333.568 299.489 333.417 299.554 333.268 299.624 331.985 296.269 333.666 292.509 337.021 291.226 340.132 290.037 343.638 291.39 345.144 294.36 345.445 294.947 345.674 295.567 345.828 296.208L345.962 296.776 346.546 296.82C350.511 297.116 353.486 300.571 353.19 304.536 352.909 308.297 349.773 311.204 346.002 311.2Z" stroke="#05466C" stroke-width="0.666666" stroke-linecap="butt" stroke-linejoin="miter" stroke-miterlimit="4" stroke-opacity="1" fill="#05466C" fill-rule="nonzero" fill-opacity="1"/></g></g></g></g></svg>