<svg width="72" height="73" xmlns="http://www.w3.org/2000/svg" xmlns:xlink="http://www.w3.org/1999/xlink" overflow="hidden"><defs><clipPath id="clip0"><rect x="892" y="280" width="72" height="73"/></clipPath><clipPath id="clip1"><rect x="892" y="281" width="72" height="72"/></clipPath><clipPath id="clip2"><rect x="892" y="281" width="72" height="72"/></clipPath><clipPath id="clip3"><rect x="892" y="281" width="72" height="72"/></clipPath></defs><g clip-path="url(#clip0)" transform="translate(-892 -280)"><g clip-path="url(#clip1)"><g clip-path="url(#clip2)"><g clip-path="url(#clip3)"><path d="M953.138 300.35 949.15 300.35 949.15 296.362ZM912.849 326.75C912.849 318.797 919.296 312.349 927.249 312.349 935.203 312.349 941.65 318.797 941.65 326.75L941.65 327.35 959.35 327.35 959.35 326.75C959.35 309.022 944.978 294.65 927.25 294.65 909.522 294.65 895.15 309.022 895.15 326.75L895.15 327.35 912.85 327.35ZM958.144 326.15 942.839 326.15C942.648 321.322 940.227 316.856 936.286 314.06L947.135 303.145C953.954 308.864 957.968 317.252 958.146 326.15ZM927.25 295.85C934.119 295.85 940.789 298.151 946.196 302.387L935.261 313.388C927.91 308.948 918.351 311.309 913.911 318.661 913.574 319.22 913.272 319.799 913.008 320.396L898.812 314.708C903.653 303.289 914.847 295.866 927.25 295.85ZM896.356 326.15C896.431 322.619 897.116 319.127 898.381 315.828L912.563 321.51C912.027 323.002 911.722 324.566 911.661 326.15ZM959.5 338.15 959.5 339.35 895 339.35 895 338.15Z" stroke="#0079C1" stroke-width="0.666666" stroke-linecap="butt" stroke-linejoin="miter" stroke-miterlimit="4" stroke-opacity="1" fill="#0079C1" fill-rule="nonzero" fill-opacity="1"/></g></g></g></g></svg>