<svg width="74" height="73" xmlns="http://www.w3.org/2000/svg" xmlns:xlink="http://www.w3.org/1999/xlink" overflow="hidden"><defs><clipPath id="clip0"><rect x="878" y="328" width="74" height="73"/></clipPath><clipPath id="clip1"><rect x="879" y="329" width="72" height="72"/></clipPath><clipPath id="clip2"><rect x="879" y="329" width="72" height="72"/></clipPath><clipPath id="clip3"><rect x="879" y="329" width="72" height="72"/></clipPath></defs><g clip-path="url(#clip0)" transform="translate(-878 -328)"><g clip-path="url(#clip1)"><g clip-path="url(#clip2)"><g clip-path="url(#clip3)"><path d="M940.138 348.35 936.15 348.35 936.15 344.362ZM899.849 374.75C899.849 366.797 906.296 360.349 914.249 360.349 922.203 360.349 928.65 366.797 928.65 374.75L928.65 375.35 946.35 375.35 946.35 374.75C946.35 357.022 931.978 342.65 914.25 342.65 896.522 342.65 882.15 357.022 882.15 374.75L882.15 375.35 899.85 375.35ZM945.144 374.15 929.839 374.15C929.648 369.322 927.227 364.856 923.286 362.06L934.135 351.145C940.954 356.864 944.968 365.252 945.146 374.15ZM914.25 343.85C921.119 343.85 927.789 346.151 933.196 350.387L922.261 361.388C914.91 356.948 905.351 359.309 900.911 366.661 900.574 367.22 900.272 367.799 900.008 368.396L885.812 362.708C890.653 351.289 901.847 343.866 914.25 343.85ZM883.356 374.15C883.431 370.619 884.116 367.127 885.381 363.828L899.563 369.51C899.027 371.002 898.722 372.566 898.661 374.15ZM946.5 386.15 946.5 387.35 882 387.35 882 386.15Z" stroke="#5864FA" stroke-width="1.50005" stroke-linecap="butt" stroke-linejoin="miter" stroke-miterlimit="4" stroke-opacity="1" fill="#5864FA" fill-rule="nonzero" fill-opacity="1"/></g></g></g></g></svg>