<svg width="97" height="97" xmlns="http://www.w3.org/2000/svg" xmlns:xlink="http://www.w3.org/1999/xlink" overflow="hidden"><defs><clipPath id="clip0"><rect x="545" y="53" width="97" height="97"/></clipPath><clipPath id="clip1"><rect x="546" y="54" width="96" height="96"/></clipPath><clipPath id="clip2"><rect x="546" y="54" width="96" height="96"/></clipPath><clipPath id="clip3"><rect x="546" y="54" width="96" height="96"/></clipPath></defs><g clip-path="url(#clip0)" transform="translate(-545 -53)"><g clip-path="url(#clip1)"><g clip-path="url(#clip2)"><g clip-path="url(#clip3)"><path d="M607.982 97.466 593.192 112.254 578.402 97.466 579.536 96.334 592.2 109 592.2 60 593.8 60 593.8 109.382 606.85 96.334ZM621.382 82.2 598 82.2 598 83.8 620.2 83.8 620.2 136.2 565.8 136.2 565.8 83.8 588 83.8 588 82.2 564.62 82.2 547.38 103.496 548.62 104.504 564.2 85.26 564.2 137.8 621.8 137.8 621.8 85.26 637.38 104.504 638.62 103.496Z" stroke="#05466C" stroke-width="0.666666" stroke-linecap="butt" stroke-linejoin="miter" stroke-miterlimit="4" stroke-opacity="1" fill="#05466C" fill-rule="nonzero" fill-opacity="1"/></g></g></g></g></svg>