<svg width="97" height="96" xmlns="http://www.w3.org/2000/svg" xmlns:xlink="http://www.w3.org/1999/xlink" overflow="hidden"><defs><clipPath id="clip0"><rect x="716" y="216" width="97" height="96"/></clipPath><clipPath id="clip1"><rect x="717" y="216" width="96" height="96"/></clipPath><clipPath id="clip2"><rect x="717" y="216" width="96" height="96"/></clipPath><clipPath id="clip3"><rect x="717" y="216" width="96" height="96"/></clipPath></defs><g clip-path="url(#clip0)" transform="translate(-716 -216)"><g clip-path="url(#clip1)"><g clip-path="url(#clip2)"><g clip-path="url(#clip3)"><path d="M789 251.092 741 251.092 741 249.492 789 249.492ZM763.058 283.492 741 283.492 741 285.092 764.906 285.092ZM780.962 265.492 741 265.492 741 267.092 780.29 267.092ZM789 233.492 741 233.492 741 235.092 789 235.092ZM727.2 229.492 734.8 229.492 734.8 237.092 727.2 237.092ZM728.8 235.492 733.2 235.492 733.2 231.092 728.8 231.092ZM727.2 263.492 734.8 263.492 734.8 271.092 727.2 271.092ZM728.8 269.492 733.2 269.492 733.2 265.092 728.8 265.092ZM727.2 279.492 734.8 279.492 734.8 287.092 727.2 287.092ZM728.8 285.492 733.2 285.492 733.2 281.092 728.8 281.092ZM727.2 247.492 734.8 247.492 734.8 255.092 727.2 255.092ZM728.8 253.492 733.2 253.492 733.2 249.092 728.8 249.092ZM787.012 297.192 787.09 297.228 787.1 297.222 799.474 304.744 800.062 304.924 800.492 304.612 800.888 304.154 797.496 289.638 808.452 280.146 808.8 279.646 808.48 278.632 793.526 277.372 787.71 263.492 786.352 263.492 780.54 277.372 766.118 278.588 765.536 278.788 765.212 279.8 776.568 289.64 773.262 303.784 773.274 304.398 774.136 305.018ZM781.144 278.928 781.388 278.894 781.748 278.63 787.032 266.01 792.232 278.426 792.33 278.632 792.684 278.908 806.13 280.04 796.092 288.736 795.924 288.896 795.778 289.316 798.858 302.496 787.524 295.608 787.31 295.49 786.732 295.49 775.206 302.498 778.234 289.542 778.28 289.296 778.132 288.876 767.932 280.04Z" stroke="#05466C" stroke-width="0.666666" stroke-linecap="butt" stroke-linejoin="miter" stroke-miterlimit="4" stroke-opacity="1" fill="#05466C" fill-rule="nonzero" fill-opacity="1"/></g></g></g></g></svg>