<svg width="98" height="97" xmlns="http://www.w3.org/2000/svg" xmlns:xlink="http://www.w3.org/1999/xlink" overflow="hidden"><defs><clipPath id="clip0"><rect x="418" y="77" width="98" height="97"/></clipPath><clipPath id="clip1"><rect x="419" y="78" width="96" height="96"/></clipPath><clipPath id="clip2"><rect x="419" y="78" width="96" height="96"/></clipPath><clipPath id="clip3"><rect x="419" y="78" width="96" height="96"/></clipPath></defs><g clip-path="url(#clip0)" transform="translate(-418 -77)"><g clip-path="url(#clip1)"><g clip-path="url(#clip2)"><g clip-path="url(#clip3)"><path d="M491 113.092 443 113.092 443 111.492 491 111.492ZM465.058 145.492 443 145.492 443 147.092 466.906 147.092ZM482.962 127.492 443 127.492 443 129.092 482.29 129.092ZM491 95.492 443 95.492 443 97.092 491 97.092ZM429.2 91.492 436.8 91.492 436.8 99.092 429.2 99.092ZM430.8 97.492 435.2 97.492 435.2 93.092 430.8 93.092ZM429.2 125.492 436.8 125.492 436.8 133.092 429.2 133.092ZM430.8 131.492 435.2 131.492 435.2 127.092 430.8 127.092ZM429.2 141.492 436.8 141.492 436.8 149.092 429.2 149.092ZM430.8 147.492 435.2 147.492 435.2 143.092 430.8 143.092ZM429.2 109.492 436.8 109.492 436.8 117.092 429.2 117.092ZM430.8 115.492 435.2 115.492 435.2 111.092 430.8 111.092ZM489.012 159.192 489.09 159.228 489.1 159.222 501.474 166.744 502.062 166.924 502.492 166.612 502.888 166.154 499.496 151.638 510.452 142.146 510.8 141.646 510.48 140.632 495.526 139.372 489.71 125.492 488.352 125.492 482.54 139.372 468.118 140.588 467.536 140.788 467.212 141.8 478.568 151.64 475.262 165.784 475.274 166.398 476.136 167.018ZM483.144 140.928 483.388 140.894 483.748 140.63 489.032 128.01 494.232 140.426 494.33 140.632 494.684 140.908 508.13 142.04 498.092 150.736 497.924 150.896 497.778 151.316 500.858 164.496 489.524 157.608 489.31 157.49 488.732 157.49 477.206 164.498 480.234 151.542 480.28 151.296 480.132 150.876 469.932 142.04Z" stroke="#557A71" stroke-width="0.666667" stroke-linecap="butt" stroke-linejoin="miter" stroke-miterlimit="4" stroke-opacity="1" fill="#557A71" fill-rule="nonzero" fill-opacity="1"/></g></g></g></g></svg>