<svg width="96" height="98" xmlns="http://www.w3.org/2000/svg" xmlns:xlink="http://www.w3.org/1999/xlink" overflow="hidden"><defs><clipPath id="clip0"><rect x="100" y="358" width="96" height="98"/></clipPath><clipPath id="clip1"><rect x="100" y="359" width="96" height="96"/></clipPath><clipPath id="clip2"><rect x="100" y="359" width="96" height="96"/></clipPath><clipPath id="clip3"><rect x="100" y="359" width="96" height="96"/></clipPath></defs><g clip-path="url(#clip0)" transform="translate(-100 -358)"><g clip-path="url(#clip1)"><g clip-path="url(#clip2)"><g clip-path="url(#clip3)"><path d="M131 416C131 417.105 130.105 418 129 418 127.895 418 127 417.105 127 416 127 414.895 127.895 414 129 414 130.105 414 131 414.895 131 416Z" stroke="#05466C" stroke-width="0.666667" stroke-linecap="butt" stroke-linejoin="miter" stroke-miterlimit="4" stroke-opacity="1" fill="#05466C" fill-rule="nonzero" fill-opacity="1"/><path d="M135 399.5C135 400.328 134.328 401 133.5 401 132.672 401 132 400.328 132 399.5 132 398.672 132.672 398 133.5 398 134.328 398 135 398.672 135 399.5Z" stroke="#05466C" stroke-width="0.666667" stroke-linecap="butt" stroke-linejoin="miter" stroke-miterlimit="4" stroke-opacity="1" fill="#05466C" fill-rule="nonzero" fill-opacity="1"/><path d="M140 408.5C140 409.328 139.328 410 138.5 410 137.672 410 137 409.328 137 408.5 137 407.672 137.672 407 138.5 407 139.328 407 140 407.672 140 408.5Z" stroke="#05466C" stroke-width="0.666667" stroke-linecap="butt" stroke-linejoin="miter" stroke-miterlimit="4" stroke-opacity="1" fill="#05466C" fill-rule="nonzero" fill-opacity="1"/><path d="M162 415.5C162 416.328 161.328 417 160.5 417 159.672 417 159 416.328 159 415.5 159 414.672 159.672 414 160.5 414 161.328 414 162 414.672 162 415.5Z" stroke="#05466C" stroke-width="0.666667" stroke-linecap="butt" stroke-linejoin="miter" stroke-miterlimit="4" stroke-opacity="1" fill="#05466C" fill-rule="nonzero" fill-opacity="1"/><path d="M165 406C165 407.105 164.105 408 163 408 161.895 408 161 407.105 161 406 161 404.895 161.895 404 163 404 164.105 404 165 404.895 165 406Z" stroke="#05466C" stroke-width="0.666667" stroke-linecap="butt" stroke-linejoin="miter" stroke-miterlimit="4" stroke-opacity="1" fill="#05466C" fill-rule="nonzero" fill-opacity="1"/><path d="M148 371C148.552 371 149 370.552 149 370L149 365C149 364.448 148.552 364 148 364 147.448 364 147 364.448 147 365L147 370C147 370.552 147.448 371 148 371Z" stroke="#05466C" stroke-width="0.666667" stroke-linecap="butt" stroke-linejoin="miter" stroke-miterlimit="4" stroke-opacity="1" fill="#05466C" fill-rule="nonzero" fill-opacity="1"/><path d="M143.061 370.975C143.445 371.372 144.078 371.383 144.475 371 144.872 370.616 144.883 369.983 144.5 369.586 144.492 369.577 144.483 369.569 144.475 369.561L140.939 366.025C140.542 365.641 139.909 365.652 139.525 366.05 139.151 366.437 139.151 367.051 139.525 367.439Z" stroke="#05466C" stroke-width="0.666667" stroke-linecap="butt" stroke-linejoin="miter" stroke-miterlimit="4" stroke-opacity="1" fill="#05466C" fill-rule="nonzero" fill-opacity="1"/><path d="M152.232 371.268C152.497 371.268 152.751 371.163 152.939 370.975L156.475 367.439C156.872 367.055 156.883 366.422 156.5 366.025 156.116 365.628 155.483 365.617 155.086 366 155.077 366.008 155.069 366.017 155.061 366.025L151.525 369.561C151.134 369.952 151.135 370.585 151.525 370.975 151.713 371.163 151.967 371.268 152.232 371.268Z" stroke="#05466C" stroke-width="0.666667" stroke-linecap="butt" stroke-linejoin="miter" stroke-miterlimit="4" stroke-opacity="1" fill="#05466C" fill-rule="nonzero" fill-opacity="1"/><path d="M166.719 442.6C166.011 443.305 165.146 443.832 164.194 444.136L161.361 445.155 161.327 445.168C159.004 446.099 158.687 447.262 158.827 448.076 159.099 449.601 161.327 450.011 163.652 450.011 165.414 449.984 167.17 449.815 168.905 449.506 170.505 449.241 178.467 447.773 177.976 444.794 177.841 443.98 177.155 442.989 174.617 442.883L171.58 442.866C170.588 442.893 169.603 442.683 168.708 442.254L168.548 441.454 166.048 426.895C167.016 426.672 167.941 426.289 168.783 425.762 172.372 423.48 174.234 419.261 173.5 415.071L164.464 373.757C164.318 372.948 163.603 372.368 162.782 372.391 162.668 372.391 162.554 372.401 162.442 372.421L148.43 374.911C148.28 374.939 148.134 374.986 147.995 375.049 147.856 374.986 147.71 374.939 147.56 374.911L133.548 372.421C133.436 372.401 133.322 372.391 133.208 372.391 132.387 372.368 131.672 372.948 131.526 373.757L122.491 415.071C121.757 419.258 123.615 423.475 127.2 425.759 128.042 426.286 128.966 426.669 129.934 426.892L127.434 441.458 127.27 442.258C126.368 442.69 125.376 442.898 124.377 442.867L121.33 442.885C118.83 442.99 118.143 443.985 118.008 444.796 117.517 447.774 125.477 449.242 127.066 449.505 128.794 449.823 130.545 449.993 132.302 450.012 132.702 450.012 133.093 450 133.456 449.976 134.298 449.92 136.856 449.75 137.156 448.076 137.301 447.263 136.985 446.1 134.656 445.168L131.764 444.128C130.821 443.824 129.964 443.3 129.264 442.599L131.9 427.258C132.399 427.337 132.904 427.38 133.409 427.384 133.932 427.385 134.454 427.336 134.967 427.237 139.209 426.383 142.495 423.02 143.251 418.759L147.986 384.247C147.991 384.207 148 384.207 148.006 384.247L152.74 418.759C153.495 423.02 156.782 426.383 161.024 427.237 161.537 427.336 162.059 427.386 162.582 427.384 163.087 427.38 163.591 427.337 164.09 427.258L166.58 441.787ZM131.119 446.019 133.936 447.031C134.345 447.18 134.729 447.389 135.075 447.653 135.083 447.659 135.082 447.666 135.075 447.67 134.275 448.014 131.583 448.27 127.409 447.532 123.248 446.846 120.789 445.712 120.129 445.116 120.124 445.114 120.122 445.109 120.124 445.104 120.124 445.102 120.126 445.1 120.129 445.099 120.531 444.955 120.954 444.882 121.381 444.883L124.365 444.866C125.604 444.873 126.832 444.631 127.976 444.153 128.888 444.98 129.957 445.614 131.119 446.018ZM141.275 418.445C140.643 421.875 137.992 424.577 134.575 425.275 134.189 425.349 133.798 425.385 133.405 425.384 132.911 425.381 132.418 425.335 131.932 425.246L130.975 425.076C130.018 424.925 129.1 424.585 128.275 424.076 125.379 422.237 123.87 418.839 124.447 415.457L129.207 393.694C130.436 394.095 131.719 394.307 133.012 394.323 134.647 394.276 136.265 393.971 137.805 393.418 139.944 392.754 141.831 392.195 144.726 393.246ZM145.011 391.213C141.699 390.124 139.425 390.824 137.219 391.507 134.8 392.48 132.114 392.558 129.643 391.727L133.426 374.427 146.983 376.84ZM162.564 374.431 166.346 391.731C163.875 392.562 161.189 392.484 158.771 391.511 156.563 390.828 154.288 390.128 150.979 391.217L149.007 376.84ZM161.411 425.275C157.994 424.577 155.343 421.875 154.711 418.445L151.254 393.245C154.148 392.196 156.033 392.754 158.175 393.418 159.715 393.971 161.333 394.277 162.968 394.323 164.261 394.307 165.544 394.095 166.773 393.694L171.532 415.457C172.11 418.839 170.601 422.237 167.705 424.076 166.88 424.585 165.962 424.924 165.005 425.076L164.048 425.246C163.562 425.335 163.069 425.381 162.575 425.384 162.184 425.385 161.795 425.349 161.411 425.275ZM168.57 447.533C164.433 448.268 161.748 448.016 160.931 447.675 160.926 447.672 160.925 447.666 160.928 447.661 160.929 447.66 160.93 447.659 160.931 447.658 161.268 447.386 161.649 447.174 162.058 447.03L164.849 446.03C166.02 445.625 167.098 444.988 168.016 444.156 169.151 444.632 170.37 444.874 171.601 444.869L174.575 444.885C175.016 444.888 175.455 444.958 175.875 445.092 175.884 445.092 175.886 445.102 175.875 445.109 175.229 445.7 172.766 446.841 168.57 447.533Z" stroke="#05466C" stroke-width="0.666667" stroke-linecap="butt" stroke-linejoin="miter" stroke-miterlimit="4" stroke-opacity="1" fill="#05466C" fill-rule="nonzero" fill-opacity="1"/></g></g></g></g></svg>