<svg width="96" height="96" xmlns="http://www.w3.org/2000/svg" xmlns:xlink="http://www.w3.org/1999/xlink" overflow="hidden"><defs><clipPath id="clip0"><rect x="428" y="208" width="96" height="96"/></clipPath></defs><g clip-path="url(#clip0)" transform="translate(-428 -208)"><path d="M459 265C459 266.105 458.105 267 457 267 455.895 267 455 266.105 455 265 455 263.895 455.895 263 457 263 458.105 263 459 263.895 459 265Z" stroke="#557A71" stroke-width="0.333333" stroke-linecap="butt" stroke-linejoin="miter" stroke-miterlimit="4" stroke-opacity="1" fill="#557A71" fill-rule="nonzero" fill-opacity="1"/><path d="M463 248.5C463 249.328 462.328 250 461.5 250 460.672 250 460 249.328 460 248.5 460 247.672 460.672 247 461.5 247 462.328 247 463 247.672 463 248.5Z" stroke="#557A71" stroke-width="0.333333" stroke-linecap="butt" stroke-linejoin="miter" stroke-miterlimit="4" stroke-opacity="1" fill="#557A71" fill-rule="nonzero" fill-opacity="1"/><path d="M468 257.5C468 258.328 467.328 259 466.5 259 465.672 259 465 258.328 465 257.5 465 256.672 465.672 256 466.5 256 467.328 256 468 256.672 468 257.5Z" stroke="#557A71" stroke-width="0.333333" stroke-linecap="butt" stroke-linejoin="miter" stroke-miterlimit="4" stroke-opacity="1" fill="#557A71" fill-rule="nonzero" fill-opacity="1"/><path d="M490 264.5C490 265.328 489.328 266 488.5 266 487.672 266 487 265.328 487 264.5 487 263.672 487.672 263 488.5 263 489.328 263 490 263.672 490 264.5Z" stroke="#557A71" stroke-width="0.333333" stroke-linecap="butt" stroke-linejoin="miter" stroke-miterlimit="4" stroke-opacity="1" fill="#557A71" fill-rule="nonzero" fill-opacity="1"/><path d="M493 255C493 256.105 492.105 257 491 257 489.895 257 489 256.105 489 255 489 253.895 489.895 253 491 253 492.105 253 493 253.895 493 255Z" stroke="#557A71" stroke-width="0.333333" stroke-linecap="butt" stroke-linejoin="miter" stroke-miterlimit="4" stroke-opacity="1" fill="#557A71" fill-rule="nonzero" fill-opacity="1"/><path d="M476 220C476.552 220 477 219.552 477 219L477 214C477 213.448 476.552 213 476 213 475.448 213 475 213.448 475 214L475 219C475 219.552 475.448 220 476 220Z" stroke="#557A71" stroke-width="0.333333" stroke-linecap="butt" stroke-linejoin="miter" stroke-miterlimit="4" stroke-opacity="1" fill="#557A71" fill-rule="nonzero" fill-opacity="1"/><path d="M471.061 219.975C471.445 220.372 472.078 220.383 472.475 220 472.872 219.616 472.883 218.983 472.5 218.586 472.492 218.577 472.483 218.569 472.475 218.561L468.939 215.025C468.542 214.641 467.909 214.652 467.525 215.05 467.151 215.437 467.151 216.051 467.525 216.439Z" stroke="#557A71" stroke-width="0.333333" stroke-linecap="butt" stroke-linejoin="miter" stroke-miterlimit="4" stroke-opacity="1" fill="#557A71" fill-rule="nonzero" fill-opacity="1"/><path d="M480.232 220.268C480.497 220.268 480.751 220.163 480.939 219.975L484.475 216.439C484.872 216.055 484.883 215.422 484.5 215.025 484.116 214.628 483.483 214.617 483.086 215 483.077 215.008 483.069 215.017 483.061 215.025L479.525 218.561C479.134 218.952 479.135 219.585 479.525 219.975 479.713 220.163 479.967 220.268 480.232 220.268Z" stroke="#557A71" stroke-width="0.333333" stroke-linecap="butt" stroke-linejoin="miter" stroke-miterlimit="4" stroke-opacity="1" fill="#557A71" fill-rule="nonzero" fill-opacity="1"/><path d="M494.719 291.6C494.011 292.305 493.146 292.832 492.194 293.136L489.361 294.155 489.327 294.168C487.004 295.099 486.687 296.262 486.827 297.076 487.099 298.601 489.327 299.011 491.652 299.011 493.414 298.984 495.17 298.815 496.905 298.506 498.505 298.241 506.467 296.773 505.976 293.794 505.841 292.98 505.155 291.989 502.617 291.883L499.58 291.866C498.588 291.893 497.603 291.683 496.708 291.254L496.548 290.454 494.048 275.895C495.016 275.672 495.941 275.289 496.783 274.762 500.372 272.48 502.234 268.261 501.5 264.071L492.464 222.757C492.318 221.949 491.603 221.368 490.782 221.391 490.668 221.391 490.554 221.401 490.442 221.421L476.43 223.911C476.28 223.939 476.134 223.986 475.995 224.049 475.856 223.986 475.71 223.939 475.56 223.911L461.548 221.421C461.436 221.401 461.322 221.391 461.208 221.391 460.387 221.368 459.672 221.949 459.526 222.757L450.491 264.071C449.757 268.258 451.615 272.475 455.2 274.759 456.042 275.286 456.966 275.669 457.934 275.892L455.434 290.458 455.27 291.258C454.368 291.69 453.376 291.898 452.377 291.867L449.33 291.885C446.83 291.99 446.143 292.985 446.008 293.796 445.517 296.774 453.477 298.242 455.066 298.505 456.794 298.823 458.545 298.993 460.302 299.012 460.702 299.012 461.093 299 461.456 298.976 462.298 298.92 464.856 298.75 465.156 297.076 465.301 296.263 464.985 295.1 462.656 294.168L459.764 293.128C458.821 292.824 457.964 292.3 457.264 291.599L459.9 276.258C460.399 276.337 460.904 276.38 461.409 276.384 461.932 276.385 462.454 276.336 462.967 276.237 467.209 275.383 470.495 272.02 471.251 267.759L475.986 233.247C475.991 233.207 476 233.207 476.006 233.247L480.74 267.759C481.495 272.02 484.782 275.383 489.024 276.237 489.537 276.336 490.059 276.386 490.582 276.384 491.087 276.38 491.591 276.337 492.09 276.258L494.58 290.787ZM459.119 295.019 461.936 296.031C462.345 296.18 462.729 296.389 463.075 296.653 463.083 296.659 463.082 296.666 463.075 296.67 462.275 297.014 459.583 297.27 455.409 296.532 451.248 295.846 448.789 294.712 448.129 294.116 448.124 294.114 448.122 294.109 448.124 294.104 448.124 294.102 448.126 294.1 448.129 294.099 448.531 293.955 448.954 293.882 449.381 293.883L452.365 293.866C453.604 293.873 454.832 293.631 455.976 293.153 456.888 293.98 457.957 294.614 459.119 295.018ZM469.275 267.445C468.643 270.875 465.992 273.577 462.575 274.275 462.189 274.349 461.798 274.385 461.405 274.384 460.911 274.381 460.418 274.335 459.932 274.246L458.975 274.076C458.018 273.925 457.1 273.585 456.275 273.076 453.379 271.237 451.87 267.839 452.447 264.457L457.207 242.694C458.436 243.095 459.719 243.307 461.012 243.323 462.647 243.277 464.265 242.971 465.805 242.418 467.944 241.754 469.831 241.195 472.726 242.246ZM473.011 240.213C469.699 239.124 467.425 239.824 465.219 240.507 462.8 241.48 460.114 241.558 457.643 240.727L461.426 223.427 474.983 225.84ZM490.564 223.431 494.346 240.731C491.875 241.562 489.189 241.484 486.771 240.511 484.563 239.828 482.288 239.128 478.979 240.217L477.007 225.84ZM489.411 274.275C485.994 273.577 483.343 270.875 482.711 267.445L479.254 242.245C482.148 241.196 484.033 241.754 486.175 242.418 487.715 242.971 489.332 243.277 490.968 243.323 492.261 243.307 493.544 243.095 494.773 242.694L499.532 264.457C500.11 267.839 498.601 271.237 495.705 273.076 494.88 273.585 493.962 273.924 493.005 274.076L492.048 274.246C491.562 274.335 491.069 274.381 490.575 274.384 490.184 274.385 489.795 274.349 489.411 274.275ZM496.57 296.533C492.433 297.268 489.748 297.016 488.931 296.675 488.926 296.672 488.925 296.666 488.928 296.661 488.929 296.66 488.93 296.659 488.931 296.658 489.268 296.386 489.649 296.174 490.058 296.03L492.849 295.03C494.02 294.625 495.098 293.988 496.016 293.156 497.151 293.632 498.37 293.874 499.601 293.869L502.575 293.885C503.016 293.888 503.455 293.958 503.875 294.092 503.884 294.092 503.886 294.102 503.875 294.109 503.229 294.7 500.766 295.841 496.57 296.533Z" stroke="#557A71" stroke-width="0.333333" stroke-linecap="butt" stroke-linejoin="miter" stroke-miterlimit="4" stroke-opacity="1" fill="#557A71" fill-rule="nonzero" fill-opacity="1"/></g></svg>