<svg width="97" height="96" xmlns="http://www.w3.org/2000/svg" xmlns:xlink="http://www.w3.org/1999/xlink" overflow="hidden"><defs><clipPath id="clip0"><rect x="117" y="208" width="97" height="96"/></clipPath><clipPath id="clip1"><rect x="118" y="208" width="96" height="96"/></clipPath><clipPath id="clip2"><rect x="118" y="208" width="96" height="96"/></clipPath><clipPath id="clip3"><rect x="118" y="208" width="96" height="96"/></clipPath></defs><g clip-path="url(#clip0)" transform="translate(-117 -208)"><g clip-path="url(#clip1)"><g clip-path="url(#clip2)"><g clip-path="url(#clip3)"><path d="M212.736 226.244C212.566 226.304 195.39 232.2 166 232.2 136.64 232.2 119.434 226.304 119.264 226.244L118.2 225.874 118.2 286.13 119.266 285.754C119.434 285.694 136.48 279.8 166 279.8 195.492 279.8 212.564 285.696 212.734 285.754L213.8 286.13 213.8 225.874ZM212.2 283.904C208.006 282.626 191.624 278.2 166 278.2 140.376 278.2 123.994 282.626 119.8 283.904L119.8 228.094C124.006 229.368 140.476 233.8 166 233.8 191.524 233.8 207.994 229.368 212.2 228.094ZM155.546 259.322 148.946 253.922 131.778 271.09C129.784 271.453 127.798 271.86 125.822 272.312L126.182 273.872C139.261 271.03 152.617 269.664 166 269.8 179.384 269.664 192.741 271.03 205.82 273.872L206.18 272.312C204.222 271.864 202.254 271.46 200.278 271.1L187.108 255.902 178.068 262.936 165 249.87ZM186.892 258.098 197.784 270.664C187.275 268.973 176.644 268.149 166 268.2 155.459 268.151 144.931 268.958 134.52 270.614L149.054 256.078 159.494 264.618 160.506 263.38 156.792 260.34 165 252.13 177.934 265.064ZM198 251.8C201.203 251.8 203.8 249.203 203.8 246 203.8 242.797 201.203 240.2 198 240.2 194.797 240.2 192.2 242.797 192.2 246 192.204 249.201 194.799 251.796 198 251.8ZM198 241.8C200.32 241.8 202.2 243.68 202.2 246 202.2 248.32 200.32 250.2 198 250.2 195.68 250.2 193.8 248.32 193.8 246 193.802 243.681 195.681 241.802 198 241.8Z" stroke="#557A71" stroke-width="0.666667" stroke-linecap="butt" stroke-linejoin="miter" stroke-miterlimit="4" stroke-opacity="1" fill="#557A71" fill-rule="nonzero" fill-opacity="1"/></g></g></g></g></svg>