<svg width="97" height="96" xmlns="http://www.w3.org/2000/svg" xmlns:xlink="http://www.w3.org/1999/xlink" overflow="hidden"><defs><clipPath id="clip0"><rect x="93" y="216" width="97" height="96"/></clipPath><clipPath id="clip1"><rect x="94" y="216" width="96" height="96"/></clipPath><clipPath id="clip2"><rect x="94" y="216" width="96" height="96"/></clipPath><clipPath id="clip3"><rect x="94" y="216" width="96" height="96"/></clipPath></defs><g clip-path="url(#clip0)" transform="translate(-93 -216)"><g clip-path="url(#clip1)"><g clip-path="url(#clip2)"><g clip-path="url(#clip3)"><path d="M188.736 234.244C188.566 234.304 171.39 240.2 142 240.2 112.64 240.2 95.434 234.304 95.264 234.244L94.2 233.874 94.2 294.13 95.266 293.754C95.434 293.694 112.48 287.8 142 287.8 171.492 287.8 188.564 293.696 188.734 293.754L189.8 294.13 189.8 233.874ZM188.2 291.904C184.006 290.626 167.624 286.2 142 286.2 116.376 286.2 99.994 290.626 95.8 291.904L95.8 236.094C100.006 237.368 116.476 241.8 142 241.8 167.524 241.8 183.994 237.368 188.2 236.094ZM131.546 267.322 124.946 261.922 107.778 279.09C105.784 279.453 103.798 279.86 101.822 280.312L102.182 281.872C115.261 279.03 128.617 277.664 142 277.8 155.384 277.664 168.741 279.03 181.82 281.872L182.18 280.312C180.222 279.864 178.254 279.46 176.278 279.1L163.108 263.902 154.068 270.936 141 257.87ZM162.892 266.098 173.784 278.664C163.275 276.973 152.644 276.149 142 276.2 131.459 276.151 120.931 276.958 110.52 278.614L125.054 264.078 135.494 272.618 136.506 271.38 132.792 268.34 141 260.13 153.934 273.064ZM174 259.8C177.203 259.8 179.8 257.203 179.8 254 179.8 250.797 177.203 248.2 174 248.2 170.797 248.2 168.2 250.797 168.2 254 168.204 257.201 170.799 259.796 174 259.8ZM174 249.8C176.32 249.8 178.2 251.68 178.2 254 178.2 256.32 176.32 258.2 174 258.2 171.68 258.2 169.8 256.32 169.8 254 169.802 251.681 171.681 249.802 174 249.8Z" stroke="#05466C" stroke-width="0.666666" stroke-linecap="butt" stroke-linejoin="miter" stroke-miterlimit="4" stroke-opacity="1" fill="#05466C" fill-rule="nonzero" fill-opacity="1"/></g></g></g></g></svg>