<svg width="72" height="72" xmlns="http://www.w3.org/2000/svg" xmlns:xlink="http://www.w3.org/1999/xlink" overflow="hidden"><defs><clipPath id="clip0"><rect x="548" y="424" width="72" height="72"/></clipPath></defs><g clip-path="url(#clip0)" transform="translate(-548 -424)"><path d="M571.571 465.613C571.302 465.99 571.036 466.369 570.781 466.758 567.049 459.455 569.943 450.51 577.246 446.779 584.548 443.047 593.493 445.941 597.225 453.244 600.956 460.546 598.062 469.491 590.759 473.223 589.06 474.091 587.21 474.624 585.31 474.792 584.867 474.832 584.424 474.852 583.99 474.852 581.682 474.852 579.407 474.311 577.347 473.272 577.549 472.921 577.744 472.565 577.958 472.225 580.199 473.345 582.708 473.819 585.203 473.596 592.713 472.935 598.265 466.312 597.604 458.803 596.985 451.756 591.084 446.35 584.01 446.349 583.609 446.349 583.203 446.366 582.795 446.404 575.303 447.048 569.752 453.644 570.396 461.136 570.53 462.684 570.927 464.198 571.571 465.613ZM615.587 459.178 615.849 458.956 614.536 451.423 614.208 451.306C612.119 450.513 609.878 450.195 607.651 450.378L604.691 445.188C605.963 443.315 606.808 441.187 607.169 438.952L607.23 438.613 601.446 433.696 601.117 433.822C599.006 434.582 597.09 435.8 595.506 437.389L589.969 435.349C589.758 433.095 589.059 430.913 587.918 428.957L587.747 428.65 580.193 428.658 580.022 428.965C578.886 430.923 578.191 433.105 577.987 435.359L572.45 437.411C570.864 435.826 568.946 434.611 566.834 433.857L566.503 433.73 560.727 438.661 560.789 439.001C561.157 441.235 562.008 443.361 563.282 445.231L560.334 450.427C558.106 450.25 555.866 450.572 553.778 451.369L553.451 451.489 552.151 459.022 552.414 459.242C554.108 460.712 556.106 461.787 558.265 462.391L559.299 468.301C557.474 469.621 555.961 471.327 554.869 473.298L554.698 473.598 558.47 480.22 558.823 480.217C560.222 480.207 564.19 479.874 565.722 478.492L564.919 477.601C563.938 478.486 561.039 478.945 559.161 479.009L556.085 473.604C557.075 471.983 558.92 469.65 560.165 469.225L560.651 469.06 559.28 461.211 558.761 461.225 558.716 461.225C557.393 461.225 554.914 459.702 553.451 458.54L554.516 452.384C556.298 451.789 559.178 451.208 560.401 451.694L560.886 451.888 564.807 444.976 564.41 444.655C563.381 443.826 562.427 440.991 562.037 439.121L566.74 435.108C568.484 435.819 571.057 437.253 571.685 438.424L571.932 438.884 579.326 436.144 579.224 435.642C578.96 434.331 580.019 431.542 580.904 429.856L587.041 429.85C587.929 431.533 588.994 434.32 588.732 435.633L588.633 436.135 596.033 438.861 596.278 438.4C596.903 437.227 599.472 435.787 601.216 435.073L605.925 439.077C605.54 440.947 604.595 443.782 603.565 444.613L603.167 444.934 607.103 451.84 607.589 451.645C608.812 451.158 611.692 451.732 613.475 452.323L614.549 458.476C613.073 459.656 610.62 461.188 609.247 461.172L608.729 461.158 607.373 469.012 607.859 469.177C609.107 469.597 610.955 471.927 611.948 473.547L608.878 478.96C607 478.897 604.1 478.443 603.117 477.562L602.727 477.212 596.708 482.349 596.972 482.785C597.662 483.925 597.604 486.918 597.339 488.81L591.575 490.948C590.172 489.674 588.236 487.431 588.039 486.107L587.964 485.595 580.093 485.604 580.018 486.116C579.823 487.44 577.892 489.686 576.492 490.961L570.601 488.786C568.277 475.784 577.859 462.318 587.831 458.936L585.471 465.576 586.601 465.976 589.557 457.66 581.539 454.199 581.065 455.301 587.114 457.91C581.663 460.121 577.053 464.002 573.945 468.996 569.866 474.939 568.266 482.239 569.484 489.345L569.549 489.676 576.749 492.336 577.016 492.103C578.745 490.656 580.134 488.846 581.084 486.802L586.976 486.796C587.931 488.839 589.324 490.646 591.056 492.09L591.323 492.32 598.414 489.691 598.471 489.348C598.878 487.117 598.795 484.824 598.227 482.629L602.744 478.774C604.772 479.713 606.984 480.188 609.219 480.166L609.572 480.168 613.334 473.538 613.16 473.239C612.065 471.269 610.549 469.566 608.72 468.25L609.742 462.34C611.899 461.73 613.895 460.651 615.587 459.18Z" stroke="#007AC2" stroke-width="1.50005" stroke-linecap="butt" stroke-linejoin="miter" stroke-miterlimit="4" stroke-opacity="1" fill="#007AC2" fill-rule="nonzero" fill-opacity="1"/></g></svg>