<svg width="74" height="72" xmlns="http://www.w3.org/2000/svg" xmlns:xlink="http://www.w3.org/1999/xlink" overflow="hidden"><defs><clipPath id="clip0"><rect x="366" y="424" width="74" height="72"/></clipPath><clipPath id="clip1"><rect x="367" y="424" width="72" height="72"/></clipPath><clipPath id="clip2"><rect x="367" y="424" width="72" height="72"/></clipPath><clipPath id="clip3"><rect x="367" y="424" width="72" height="72"/></clipPath></defs><g clip-path="url(#clip0)" transform="translate(-366 -424)"><g clip-path="url(#clip1)"><g clip-path="url(#clip2)"><g clip-path="url(#clip3)"><path d="M23.571 41.613C23.3025 41.9895 23.0355 42.369 22.7805 42.7575 19.0488 35.4552 21.9433 26.5103 29.2457 22.7786 36.548 19.0469 45.4929 21.9414 49.2246 29.2437 52.9563 36.5462 50.0618 45.4909 42.7594 49.2227 41.0604 50.0909 39.21 50.6235 37.3095 50.7915 36.867 50.832 36.4245 50.8515 35.9895 50.8515 33.6825 50.8518 31.4074 50.3108 29.3475 49.272 29.5485 48.921 29.7435 48.5655 29.958 48.225 32.1992 49.3449 34.7076 49.8195 37.203 49.596 44.7127 48.9354 50.265 42.3121 49.6044 34.8026 48.9846 27.7559 43.0844 22.3503 36.0105 22.3485 35.6085 22.3485 35.2035 22.3665 34.7955 22.404 27.3034 23.0481 21.7523 29.6438 22.3963 37.1358 22.5296 38.6842 22.9268 40.1985 23.571 41.613ZM67.587 35.178 67.8495 34.956 66.5355 27.423 66.2085 27.306C64.1189 26.5125 61.8783 26.1952 59.6505 26.3775L56.691 21.1875C57.9626 19.3149 58.8084 17.1866 59.169 14.952L59.2305 14.613 53.4465 9.696 53.1165 9.822C51.0058 10.5817 49.0898 11.7999 47.5065 13.389L41.9685 11.349C41.7585 9.09462 41.0588 6.91331 39.918 4.9575L39.747 4.65 32.193 4.6575 32.022 4.965C30.8859 6.92286 30.1912 9.10521 29.9865 11.3595L24.45 13.4115C22.8642 11.8255 20.946 10.6113 18.834 9.8565L18.5025 9.7305 12.7275 14.661 12.789 15.0015C13.1572 17.2346 14.008 19.3605 15.282 21.231L12.3345 26.427C10.1062 26.2499 7.86636 26.5718 5.778 27.369L5.451 27.489 4.1505 35.022 4.4145 35.2425C6.10756 36.7119 8.10559 37.7873 10.2645 38.391L11.2995 44.301C9.47406 45.6215 7.96134 47.3273 6.8685 49.2975L6.6975 49.5975 10.47 56.22 10.8225 56.217C12.222 56.2065 16.1895 55.8735 17.7225 54.492L16.9185 53.601C15.9375 54.486 13.0395 54.945 11.1615 55.0095L8.085 49.6035C9.075 47.9835 10.92 45.6495 12.165 45.225L12.651 45.06 11.28 37.2105 10.761 37.2255 10.716 37.2255C9.393 37.2255 6.9135 35.7015 5.451 34.5405L6.516 28.3845C8.298 27.789 11.178 27.2085 12.4005 27.6945L12.8865 27.888 16.8075 20.976 16.41 20.655C15.381 19.8255 14.427 16.9905 14.037 15.1215L18.7395 11.1075C20.484 11.8185 23.0565 13.2525 23.685 14.424L23.9325 14.8845 31.326 12.144 31.224 11.6415C30.96 10.3305 32.019 7.542 32.904 5.856L39.0405 5.85C39.9285 7.533 40.9935 10.32 40.7325 11.6325L40.6335 12.135 48.033 14.8605 48.2775 14.4C48.903 13.227 51.4725 11.787 53.2155 11.073L57.9255 15.0765C57.54 16.947 56.595 19.782 55.5645 20.613L55.167 20.934 59.103 27.84 59.589 27.645C60.8115 27.1575 63.6915 27.732 65.475 28.323L66.549 34.476C65.073 35.6565 62.6205 37.188 61.2465 37.1715L60.729 37.158 59.373 45.012 59.859 45.177C61.107 45.597 62.955 47.9265 63.948 49.5465L60.8775 54.96C58.9995 54.897 56.1 54.4425 55.1175 53.562L54.7275 53.2125 48.708 58.3485 48.972 58.785C49.662 59.925 49.6035 62.9175 49.3395 64.8105L43.575 66.948C42.1725 65.6745 40.236 63.4305 40.0395 62.1075L39.9645 61.5945 32.0925 61.6035 32.0175 62.1165C31.8225 63.4395 29.892 65.6865 28.4925 66.9615L22.6005 64.7865C20.277 51.7845 29.859 38.3175 39.831 34.9365L37.4715 41.5755 38.601 41.976 41.5575 33.66 33.5385 30.1995 33.0645 31.3005 39.114 33.9105C33.6633 36.121 29.0534 40.0017 25.9455 44.9955 21.8663 50.9391 20.2658 58.2395 21.4845 65.3445L21.549 65.676 28.749 68.3355 29.016 68.103C30.7451 66.6564 32.1341 64.8465 33.084 62.802L38.976 62.796C39.9306 64.8389 41.3237 66.6462 43.056 68.0895L43.323 68.3205 50.4135 65.691 50.4705 65.3475C50.8782 63.1169 50.7952 60.8242 50.2275 58.629L54.744 54.774C56.7725 55.7127 58.9845 56.1882 61.2195 56.166L61.572 56.1675 65.334 49.5375 65.16 49.239C64.0653 47.2693 62.5493 45.5658 60.72 44.25L61.7415 38.34C63.8992 37.7304 65.8955 36.6511 67.587 35.1795Z" stroke="#0079C1" stroke-width="1.50005" stroke-linecap="butt" stroke-linejoin="miter" stroke-miterlimit="4" stroke-opacity="1" fill="#007AC2" fill-rule="nonzero" fill-opacity="1" transform="matrix(1 0 0 -1 367 496)"/></g></g></g></g></svg>