<svg width="72" height="73" xmlns="http://www.w3.org/2000/svg" xmlns:xlink="http://www.w3.org/1999/xlink" overflow="hidden"><defs><clipPath id="clip0"><rect x="624" y="201" width="72" height="73"/></clipPath><clipPath id="clip1"><rect x="624" y="202" width="72" height="72"/></clipPath><clipPath id="clip2"><rect x="624" y="202" width="72" height="72"/></clipPath><clipPath id="clip3"><rect x="624" y="202" width="72" height="72"/></clipPath></defs><g clip-path="url(#clip0)" transform="translate(-624 -201)"><g clip-path="url(#clip1)"><g clip-path="url(#clip2)"><g clip-path="url(#clip3)"><path d="M678.861 251.992 676.779 252.976C687.63 254.056 690.15 255.756 690.15 256.286 690.15 257.72 679.508 260.51 660 260.51 640.492 260.51 629.85 257.72 629.85 256.286 629.85 255.887 631.308 254.731 637.5 253.711L637.5 252.496C628.671 253.918 628.65 255.678 628.65 256.286L628.65 264.076C628.65 267.946 647.4 269.35 660 269.35 672.6 269.35 691.35 267.946 691.35 264.076L691.35 256.286C691.35 254.017 685.146 252.723 678.861 251.992ZM690.15 264.076C690.15 265.498 679.795 268.15 660 268.15 640.205 268.15 629.85 265.498 629.85 264.076L629.85 257.89C634.226 260.644 649.683 261.712 660 261.712 670.317 261.712 685.774 260.644 690.15 257.89ZM640.65 223.212 640.65 251.949 659.295 257.768 677.85 248.984 677.85 220.247 659.205 214.483ZM641.85 223.972 658.65 216.07 658.65 256.309 641.85 251.066ZM676.65 248.224 659.85 256.177 659.85 215.938 676.65 221.131ZM659.85 209.5 658.65 209.5 658.65 205 659.85 205ZM641.535 215.791 638.88 212.206 639.843 211.492 642.5 215.077ZM678.656 211.492 679.62 212.206 676.965 215.791 675.999 215.077ZM627.726 229.033 631.959 230.247 631.629 231.402 627.396 230.188ZM691.104 230.188 686.871 231.4 686.541 230.245 690.774 229.033Z" stroke="#557A71" stroke-width="1.50005" stroke-linecap="butt" stroke-linejoin="miter" stroke-miterlimit="4" stroke-opacity="1" fill="#557A71" fill-rule="nonzero" fill-opacity="1"/></g></g></g></g></svg>