<svg width="96" height="97" xmlns="http://www.w3.org/2000/svg" xmlns:xlink="http://www.w3.org/1999/xlink" overflow="hidden"><defs><clipPath id="clip0"><rect x="592" y="65" width="96" height="97"/></clipPath><clipPath id="clip1"><rect x="592" y="66" width="96" height="96"/></clipPath><clipPath id="clip2"><rect x="592" y="66" width="96" height="96"/></clipPath><clipPath id="clip3"><rect x="592" y="66" width="96" height="96"/></clipPath></defs><g clip-path="url(#clip0)" transform="translate(-592 -65)"><g clip-path="url(#clip1)"><g clip-path="url(#clip2)"><g clip-path="url(#clip3)"><path d="M653.982 109.466 639.192 124.254 624.402 109.466 625.536 108.334 638.2 121 638.2 72 639.8 72 639.8 121.382 652.85 108.334ZM667.382 94.2 644 94.2 644 95.8 666.2 95.8 666.2 148.2 611.8 148.2 611.8 95.8 634 95.8 634 94.2 610.62 94.2 593.38 115.496 594.62 116.504 610.2 97.26 610.2 149.8 667.8 149.8 667.8 97.26 683.38 116.504 684.62 115.496Z" stroke="#557A71" stroke-width="0.666667" stroke-linecap="butt" stroke-linejoin="miter" stroke-miterlimit="4" stroke-opacity="1" fill="#557A71" fill-rule="nonzero" fill-opacity="1"/></g></g></g></g></svg>