<svg width="97" height="97" xmlns="http://www.w3.org/2000/svg" xmlns:xlink="http://www.w3.org/1999/xlink" overflow="hidden"><defs><clipPath id="clip0"><rect x="261" y="65" width="97" height="97"/></clipPath><clipPath id="clip1"><rect x="262" y="66" width="96" height="96"/></clipPath><clipPath id="clip2"><rect x="262" y="66" width="96" height="96"/></clipPath><clipPath id="clip3"><rect x="262" y="66" width="96" height="96"/></clipPath></defs><g clip-path="url(#clip0)" transform="translate(-261 -65)"><g clip-path="url(#clip1)"><g clip-path="url(#clip2)"><g clip-path="url(#clip3)"><path d="M302 94 304 94 304 96 302 96ZM302 122 304 122 304 120 302 120ZM302 148 304 148 304 146 302 146ZM341.8 89.14 341.8 155.918 278.2 155.918 278.2 74.08 326.744 74.08ZM327.812 88.2 338.598 88.2 327.812 77.414ZM340.2 154.32 340.2 89.8 326.212 89.8 326.212 75.816 326.082 75.684 279.8 75.684 279.8 154.32ZM292.2 96 293.8 96 293.8 82 292.2 82 288.2 84 288.2 86 292.2 84ZM297.8 136.536C297.832 135.026 296.999 133.631 295.656 132.942 293.891 132.02 291.774 132.085 290.068 133.112L289.738 133.324 290.604 134.67 290.934 134.458C292.145 133.743 293.638 133.701 294.888 134.346 295.712 134.761 296.223 135.614 296.2 136.536 296.2 137.982 294.508 139.206 292.504 139.206L292.504 140.806C294.508 140.806 296.2 142.026 296.2 143.472 296.233 144.565 295.583 145.562 294.57 145.974 293.263 146.547 291.747 146.35 290.63 145.462L289.554 146.648C290.508 147.474 291.732 147.919 292.994 147.9 293.759 147.902 294.517 147.745 295.218 147.438 296.815 146.777 297.841 145.2 297.798 143.472 297.735 141.998 296.883 140.673 295.568 140.004 296.883 139.335 297.736 138.01 297.8 136.536ZM296.656 113.214C297.385 112.508 297.802 111.541 297.816 110.526 297.814 108.593 296.473 106.919 294.586 106.496 292.435 105.81 290.086 106.588 288.77 108.422 288.635 108.645 288.511 108.871 288.398 109.1L289.832 109.81C289.925 109.621 290.027 109.434 290.138 109.25 291.094 108.047 292.696 107.564 294.158 108.038 295.343 108.282 296.2 109.316 296.218 110.526 296.203 111.128 295.945 111.698 295.502 112.106L288.202 120.01 288.202 121.748 298 121.748 298 120.148 290.252 120.148Z" stroke="#557A71" stroke-width="0.666667" stroke-linecap="butt" stroke-linejoin="miter" stroke-miterlimit="4" stroke-opacity="1" fill="#557A71" fill-rule="nonzero" fill-opacity="1"/></g></g></g></g></svg>