<svg width="97" height="98" xmlns="http://www.w3.org/2000/svg" xmlns:xlink="http://www.w3.org/1999/xlink" overflow="hidden"><defs><clipPath id="clip0"><rect x="117" y="62" width="97" height="98"/></clipPath><clipPath id="clip1"><rect x="118" y="63" width="96" height="96"/></clipPath><clipPath id="clip2"><rect x="118" y="63" width="96" height="96"/></clipPath><clipPath id="clip3"><rect x="118" y="63" width="96" height="96"/></clipPath></defs><g clip-path="url(#clip0)" transform="translate(-117 -62)"><g clip-path="url(#clip1)"><g clip-path="url(#clip2)"><g clip-path="url(#clip3)"><path d="M140.726 97.2 196.354 80.56 192.96 69.214 130.706 87.836 134.098 99.182 134.2 99.152 134.2 146.8 197.8 146.8 197.8 97.2ZM172.292 86.088 161.934 89.186 164.426 79.42 174.782 76.322ZM176.572 75.788 186.928 72.69 184.436 82.456 174.08 85.552ZM160.146 89.72 149.79 92.818 152.282 83.052 162.638 79.956ZM148.002 93.352 137.646 96.45 140.138 86.684 150.494 83.588ZM194.362 79.486 186.224 81.92 188.716 72.156 191.886 71.208ZM132.7 88.91 138.352 87.22 135.86 96.984 135.174 97.19ZM176.088 107.2 181.128 98.8 191.938 98.8 186.898 107.2ZM138.06 107.2 143.1 98.8 153.91 98.8 148.87 107.2ZM155.776 98.8 166.586 98.8 161.546 107.2 150.736 107.2ZM168.452 98.8 179.262 98.8 174.222 107.2 163.412 107.2ZM135.8 98.8 141.232 98.8 136.194 107.2 135.8 107.2ZM196.2 145.2 135.8 145.2 135.8 108.8 196.2 108.8ZM188.764 107.2 193.804 98.8 196.2 98.8 196.2 107.2ZM190 118.8 186 118.8 186 117.2 190 117.2ZM180 118.8 144 118.8 144 117.2 180 117.2ZM144.2 136.8 189.8 136.8 189.8 125.2 144.2 125.2ZM145.8 126.8 188.2 126.8 188.2 135.2 145.8 135.2Z" stroke="#557A71" stroke-width="0.888889" stroke-linecap="butt" stroke-linejoin="miter" stroke-miterlimit="4" stroke-opacity="1" fill="#557A71" fill-rule="nonzero" fill-opacity="1"/></g></g></g></g></svg>