<svg id="ba34437c-7661-487f-898a-6fed3d98b251" data-name="Layer 1" xmlns="http://www.w3.org/2000/svg" width="412.68" height="426.66" viewBox="0 0 412.68 426.66">
  <g>
    <g>
      <g>
        <rect x="155.86" y="152.45" width="65.78" height="122.15" fill="none" stroke="#6e6e6e" stroke-linejoin="round" stroke-width="8"/>
        <rect x="249.7" y="222.55" width="65.78" height="52.05" fill="none" stroke="#6e6e6e" stroke-linejoin="round" stroke-width="8"/>
      </g>
      <rect x="249.7" y="152.6" width="65.78" height="51.95" fill="none" stroke="#6e6e6e" stroke-linejoin="round" stroke-width="8"/>
    </g>
    <path d="M42.32,146.33a62.94,62.94,0,0,0-6.65,112.53h0A189,189,0,0,0,245.13,404.66a63,63,0,0,0,106.64-52,188.88,188.88,0,0,0-22.59-289,63,63,0,0,0-112.9-34.85A189,189,0,0,0,45.59,145.05C44.5,145.45,43.41,145.87,42.32,146.33ZM166,90.87a137.48,137.48,0,0,1,38.88-10.21,64,64,0,0,0,3.52,10.93,63,63,0,0,0,101,21.3c.75.66,1.52,1.32,2.27,2a137.82,137.82,0,0,1,12.58,192.51,63,63,0,0,0-97.79,47.69A137.7,137.7,0,0,1,93.2,271.42c-1.21-2.83-2.31-5.7-3.31-8.56.57-.23,1.13-.45,1.69-.69a62.94,62.94,0,0,0,8.07-111.7A137.05,137.05,0,0,1,166,90.87Z" fill="none" stroke="#6e6e6e" stroke-linejoin="round" stroke-width="8"/>
  </g>
</svg>
