<svg xmlns="http://www.w3.org/2000/svg" xmlns:xlink="http://www.w3.org/1999/xlink" xmlns:lucid="lucid" width="2360.89" height="2076.66"><g transform="translate(-40 60)" lucid:page-tab-id="0_0"><path d="M60-40h2320v377.65H60z" fill="#288835"/><use xlink:href="#a" transform="matrix(1,0,0,1,65,-35) translate(1155 192.38020833333334)"/><path d="M60.9 320h2320v288.65H60.9z" fill="#35ac46"/><path d="M60.9 608.65h2320v452.97H60.9z" fill="#50a7da"/><use xlink:href="#b" transform="matrix(1,0,0,1,65.88841173250717,613.6517589820999) translate(1155 228.57080078125)"/><path d="M60.9 1061.62h2320V1460H60.9z" fill="#007ac2"/><path d="M60.9 1460h2320v428.42H60.9z" fill="#00619b"/><path d="M1940 1728.14h397.86v133.42H1940z" fill="none"/><use xlink:href="#c" transform="matrix(1,0,0,1,1940,1728.1379373274235) translate(61.15495327503902 37.65878629400953)"/><use xlink:href="#d" transform="matrix(1,0,0,1,1940,1728.1379373274235) translate(163.217576517493 37.65878629400953)"/><use xlink:href="#e" transform="matrix(1,0,0,1,1940,1728.1379373274235) translate(299.4656028520818 37.65878629400953)"/><use xlink:href="#f" transform="matrix(1,0,0,1,1940,1728.1379373274235) translate(253.6169445873363 83.5622874514163)"/><use xlink:href="#g" transform="matrix(1,0,0,1,1940,1728.1379373274235) translate(36.80470893347564 129.46578860882306)"/><use xlink:href="#h" transform="matrix(1,0,0,1,1940,1728.1379373274235) translate(186.98283000400392 129.46578860882306)"/><use xlink:href="#i" transform="matrix(1,0,0,1,1940,1728.1379373274235) translate(398 175.36928976622983)"/><use xlink:href="#j" transform="matrix(1,0,0,1,1940,1728.1379373274235) translate(398 221.2727909236366)"/><use xlink:href="#k" transform="matrix(1,0,0,1,1940,1728.1379373274235) translate(199 267.17629208104336)"/><path d="M1550.04 1759.85h220v70h-220z" stroke="#000" stroke-opacity="0" stroke-width="2" fill="#fff"/><use xlink:href="#l" transform="matrix(1,0,0,1,1555.0366304065037,1764.848314789258) translate(44.1162109375 37.8564453125)"/><use xlink:href="#m" transform="matrix(1,0,0,1,1555.0366304065037,1764.848314789258) translate(98.6376953125 37.8564453125)"/><path d="M958.58 1515.67h220v70h-220z" stroke="#000" stroke-opacity="0" stroke-width="2" fill="#fff"/><use xlink:href="#n" transform="matrix(1,0,0,1,963.5842529671547,1520.6749835286541) translate(80.6103515625 37.8564453125)"/><path d="M1971.72 1300h362.9v132.13h-362.9z" fill="none"/><use xlink:href="#o" transform="matrix(1,0,0,1,1971.7243749504478,1300) translate(75.28540562973853 37.097942673642066)"/><use xlink:href="#p" transform="matrix(1,0,0,1,1971.7243749504478,1300) translate(270.1332616530505 37.097942673642066)"/><use xlink:href="#q" transform="matrix(1,0,0,1,1971.7243749504478,1300) translate(226.9217997283475 80.36109294992966)"/><use xlink:href="#r" transform="matrix(1,0,0,1,1971.7243749504478,1300) translate(22.580516464002244 123.62424322621726)"/><use xlink:href="#s" transform="matrix(1,0,0,1,1971.7243749504478,1300) translate(164.1204525530913 123.62424322621726)"/><path d="M1241.9 1222.1h220v70h-220z" stroke="#000" stroke-opacity="0" stroke-width="2" fill="#fff"/><use xlink:href="#t" transform="matrix(1,0,0,1,1246.8974127749434,1227.0860464952298) translate(69.4970703125 37.8564453125)"/><path d="M122.03 1364.04h220v70h-220z" stroke="#000" stroke-opacity="0" stroke-width="2" fill="#f2f3f5"/><use xlink:href="#u" transform="matrix(1,0,0,1,127.03343679113482,1369.0428629536289) translate(80.8544921875 25.595703125)"/><use xlink:href="#v" transform="matrix(1,0,0,1,127.03343679113482,1369.0428629536289) translate(24.9951171875 50.1171875)"/><path d="M655.33 1179.72h220v70h-220z" stroke="#000" stroke-opacity="0" stroke-width="2" fill="#f2f3f5"/><use xlink:href="#w" transform="matrix(1,0,0,1,660.3336969396155,1184.7192014603702) translate(77.0751953125 37.8564453125)"/><path d="M958.58 1103.72h220v82h-220z" stroke="#000" stroke-opacity="0" stroke-width="2" fill="#fff"/><use xlink:href="#x" transform="matrix(1,0,0,1,963.5842529671547,1108.7192014603702) translate(26.787109375 43.8564453125)"/><use xlink:href="#y" transform="matrix(1,0,0,1,963.5842529671547,1108.7192014603702) translate(91.396484375 43.8564453125)"/><path d="M124.07 872.82h219.96v68.8H124.07z" stroke="#000" stroke-opacity="0" stroke-width="2" fill="#fff"/><use xlink:href="#z" transform="matrix(1,0,0,1,129.06687358226964,877.8187493092373) translate(19.08203125 37.3564453125)"/><use xlink:href="#A" transform="matrix(1,0,0,1,129.06687358226964,877.8187493092373) translate(85.380859375 37.3564453125)"/><use xlink:href="#B" transform="matrix(1,0,0,1,129.06687358226964,877.8187493092373) translate(128.642578125 37.3564453125)"/><path d="M1693.32 1164.35h220v70h-220z" stroke="#000" stroke-opacity="0" stroke-width="2" fill="#fff"/><use xlink:href="#C" transform="matrix(1,0,0,1,1698.3172049304962,1169.352543804761) translate(13.173828125 37.8564453125)"/><use xlink:href="#D" transform="matrix(1,0,0,1,1698.3172049304962,1169.352543804761) translate(94.677734375 37.8564453125)"/><path d="M1238.58 664.8h220v70h-220z" stroke="#000" stroke-opacity="0" stroke-width="2" fill="#fff"/><use xlink:href="#E" transform="matrix(1,0,0,1,1243.5842529671547,669.7982376852904) translate(27.7294921875 37.8564453125)"/><use xlink:href="#F" transform="matrix(1,0,0,1,1243.5842529671547,669.7982376852904) translate(109.2333984375 37.8564453125)"/><path d="M1693.32 793.58h220v68.8h-220z" stroke="#000" stroke-opacity="0" stroke-width="2" fill="#fff"/><use xlink:href="#E" transform="matrix(1,0,0,1,1698.3172049304962,798.577983936548) translate(43.056640625 37.3564453125)"/><use xlink:href="#G" transform="matrix(1,0,0,1,1698.3172049304962,798.577983936548) translate(124.560546875 37.3564453125)"/><path d="M1693.32 952.9h220v70h-220z" stroke="#000" stroke-opacity="0" stroke-width="2" fill="#fff"/><use xlink:href="#E" transform="matrix(1,0,0,1,1698.3172049304962,957.9001602379144) translate(31.259765625 37.8564453125)"/><use xlink:href="#H" transform="matrix(1,0,0,1,1698.3172049304962,957.9001602379144) translate(112.763671875 37.8564453125)"/><path d="M1803.32 1023.9v121.95" stroke="#fff" stroke-width="2" fill="none"/><path d="M1804.32 1023.93h-2v-1.03h2z" stroke="#fff" stroke-width=".05" fill="#fff"/><path d="M1803.32 1161.12l-4.64-14.27h9.27z" stroke="#fff" stroke-width="2" fill="#fff"/><path d="M958.58 664.8h220v70h-220z" stroke="#000" stroke-opacity="0" stroke-width="2" fill="#fff"/><use xlink:href="#I" transform="matrix(1,0,0,1,963.5842529671547,669.7982376852904) translate(18.671875 37.8564453125)"/><use xlink:href="#J" transform="matrix(1,0,0,1,963.5842529671547,669.7982376852904) translate(124.345703125 37.8564453125)"/><path d="M1693.32 664.8h220v70h-220z" stroke="#000" stroke-opacity="0" stroke-width="2" fill="#fff"/><use xlink:href="#K" transform="matrix(1,0,0,1,1698.3172049304962,669.7982376852904) translate(59.501953125 37.8564453125)"/><use xlink:href="#L" transform="matrix(1,0,0,1,1698.3172049304962,669.7982376852904) translate(95.7421875 37.8564453125)"/><path d="M956.98 174.66h220v70h-220z" stroke="#fff" stroke-width="2" fill="#fff"/><use xlink:href="#M" transform="matrix(1,0,0,1,961.9842847123018,179.65676009640868) translate(10.849609375 37.8564453125)"/><use xlink:href="#N" transform="matrix(1,0,0,1,961.9842847123018,179.65676009640868) translate(129.150390625 37.8564453125)"/><path d="M1940 895.88h389.98v137.56H1940z" fill="none"/><use xlink:href="#O" transform="matrix(1,0,0,1,1940,895.8773085220593) translate(34.490088806017866 37.65878629400953)"/><use xlink:href="#P" transform="matrix(1,0,0,1,1940,895.8773085220593) translate(44.855395518980686 37.65878629400953)"/><use xlink:href="#e" transform="matrix(1,0,0,1,1940,895.8773085220593) translate(291.4656028520819 37.65878629400953)"/><use xlink:href="#Q" transform="matrix(1,0,0,1,1940,895.8773085220593) translate(258.21252893518704 83.5622874514163)"/><use xlink:href="#R" transform="matrix(1,0,0,1,1940,895.8773085220593) translate(178.98283000400392 129.46578860882306)"/><use xlink:href="#S" transform="matrix(1,0,0,1,1940,895.8773085220593) translate(390 175.36928976622983)"/><path d="M1760 440h567.33v128.3H1760z" fill="none"/><use xlink:href="#T" transform="matrix(1,0,0,1,1760,440) translate(248.0100022862414 37.65878629400953)"/><use xlink:href="#e" transform="matrix(1,0,0,1,1760,440) translate(469.4656028520818 37.65878629400953)"/><use xlink:href="#Q" transform="matrix(1,0,0,1,1760,440) translate(436.21252893518704 83.5622874514163)"/><use xlink:href="#R" transform="matrix(1,0,0,1,1760,440) translate(356.9828300040039 129.46578860882306)"/><use xlink:href="#S" transform="matrix(1,0,0,1,1760,440) translate(568 175.36928976622983)"/><path d="M860 0h411.56v80H860z" stroke="#000" stroke-opacity="0" stroke-width="2" fill="#288835"/><use xlink:href="#U" transform="matrix(1,0,0,1,865,5) translate(119.65885416666666 56.450520833333336)"/><path d="M122 1759.85h220v70H122z" stroke="#000" stroke-opacity="0" stroke-width="2" fill="#fff"/><use xlink:href="#V" transform="matrix(1,0,0,1,127,1764.848314789258) translate(53.3740234375 37.8564453125)"/><path d="M1256.98 1629.54h220v70h-220z" stroke="#000" stroke-opacity="0" stroke-width="2" fill="#fff"/><use xlink:href="#W" transform="matrix(1,0,0,1,1261.9842847123018,1634.5407016205345) translate(87.5537109375 37.8564453125)"/><path d="M343 1794.85h853.98v-244.18h41.5" stroke="#fff" stroke-width="2" fill="none"/><path d="M343.03 1795.85H342v-2h1.03z" stroke="#fff" stroke-width=".05" fill="#fff"/><path d="M1253.75 1550.67l-14.27 4.64v-9.26z" stroke="#fff" stroke-width="2" fill="#fff"/><path d="M343 1794.85h853.98v-130.3h41.5" stroke="#fff" stroke-width="2" fill="none"/><path d="M343.03 1795.85H342v-2h1.03z" stroke="#fff" stroke-width=".05" fill="#fff"/><path d="M1253.75 1664.54l-14.27 4.64v-9.27z" stroke="#fff" stroke-width="2" fill="#fff"/><path d="M1256.98 1515.67h220v70h-220z" stroke="#000" stroke-opacity="0" stroke-width="2" fill="#fff"/><use xlink:href="#X" transform="matrix(1,0,0,1,1261.9842847123018,1520.6749835286541) translate(54.3994140625 37.8564453125)"/><path d="M1477.98 1550.67h182.06v190.68" stroke="#fff" stroke-width="2" fill="none"/><path d="M1478 1551.67H1477v-2h1.03z" stroke="#fff" stroke-width=".05" fill="#fff"/><path d="M1660.04 1756.6l-4.64-14.25h9.27z" stroke="#fff" stroke-width="2" fill="#fff"/><path d="M122 1629.54h220v70H122z" stroke="#000" stroke-opacity="0" stroke-width="2" fill="#fff"/><use xlink:href="#Y" transform="matrix(1,0,0,1,127,1634.5407016205345) translate(73.9892578125 37.8564453125)"/><path d="M124 1515.67h216v70H124z" stroke="#000" stroke-opacity="0" stroke-width="2" fill="#fff"/><use xlink:href="#Z" transform="matrix(1,0,0,1,129,1520.6749835286541) translate(80.880859375 37.8564453125)"/><path d="M1065.34 1586.67v77.87H360.5" stroke="#fff" stroke-width="2" fill="none"/><path d="M1066.34 1586.7h-2v-1.03h2z" stroke="#fff" stroke-width=".05" fill="#fff"/><path d="M345.24 1664.54l14.26-4.63v9.28z" stroke="#fff" stroke-width="2" fill="#fff"/><path d="M232 1700.54v40.8" stroke="#fff" stroke-width="2" fill="none"/><path d="M233 1700.57h-2v-1.03h2z" stroke="#fff" stroke-width=".05" fill="#fff"/><path d="M232 1756.6l-4.64-14.25h9.28z" stroke="#fff" stroke-width="2" fill="#fff"/><path d="M1462.9 1257.1h114.7v-57.75h97.22" stroke="#fff" stroke-width="2" fill="none"/><path d="M1462.92 1258.1h-1.02v-2h1.02z" stroke="#fff" stroke-width=".05" fill="#fff"/><path d="M1690.08 1199.35l-14.26 4.64v-9.28z" stroke="#fff" stroke-width="2" fill="#fff"/><path d="M1459.58 699.8h116.37v288.1h98.87" stroke="#fff" stroke-width="2" fill="none"/><path d="M1459.6 700.8h-1.02v-2h1.03z" stroke="#fff" stroke-width=".05" fill="#fff"/><path d="M1690.08 987.9l-14.26 4.64v-9.28z" stroke="#fff" stroke-width="2" fill="#fff"/><path d="M1459.58 699.8h116.37v128.17h98.87" stroke="#fff" stroke-width="2" fill="none"/><path d="M1459.6 700.8h-1.02v-2h1.03z" stroke="#fff" stroke-width=".05" fill="#fff"/><path d="M1690.08 827.97l-14.26 4.64v-9.26z" stroke="#fff" stroke-width="2" fill="#fff"/><path d="M654.78 658.55h220v70.13h-220z" stroke="#000" stroke-opacity="0" stroke-width="2" fill="#fff"/><use xlink:href="#aa" transform="matrix(1,0,0,1,659.7777777777782,663.5520104774102) translate(65.8349609375 38.3564453125)"/><path d="M654.78 824.88h218.8v70H654.8z" stroke="#000" stroke-opacity="0" stroke-width="2" fill="#fff"/><use xlink:href="#ab" transform="matrix(1,0,0,1,659.7777777777782,829.8764239355071) translate(88.2890625 37.8564453125)"/><path d="M124 658.55h220v73.2H124z" stroke="#000" stroke-opacity="0" stroke-width="2" fill="#fff"/><use xlink:href="#ac" transform="matrix(1,0,0,1,129,663.5520104774102) translate(6.611328125 27.595703125)"/><use xlink:href="#ad" transform="matrix(1,0,0,1,129,663.5520104774102) translate(90.478515625 27.595703125)"/><use xlink:href="#ae" transform="matrix(1,0,0,1,129,663.5520104774102) translate(100.751953125 52.1171875)"/><path d="M2020 164.27h306V301.7h-306z" fill="none"/><use xlink:href="#af" transform="matrix(1,0,0,1,2020,164.27066453896822) translate(54.58189907693543 37.80353455789938)"/><use xlink:href="#e" transform="matrix(1,0,0,1,2020,164.27066453896822) translate(207.46560285208187 37.80353455789938)"/><use xlink:href="#Q" transform="matrix(1,0,0,1,2020,164.27066453896822) translate(174.21252893518707 83.70703571530615)"/><use xlink:href="#ag" transform="matrix(1,0,0,1,2020,164.27066453896822) translate(167.35716735253968 129.6105368727129)"/><path d="M654.78 420.7h220v70h-220z" stroke="#35ac46" stroke-width="2" fill="#fff"/><use xlink:href="#ah" transform="matrix(1,0,0,1,659.7777777777782,425.6954300650382) translate(48.6181640625 37.8564453125)"/><path d="M1241.9 1109.72h220v70h-220z" stroke="#000" stroke-opacity="0" stroke-width="2" fill="#fff"/><use xlink:href="#ai" transform="matrix(1,0,0,1,1246.8974127749434,1114.7192014603702) translate(58.0029296875 37.8564453125)"/><use xlink:href="#aj" transform="matrix(1,0,0,1,1246.8974127749434,1114.7192014603702) translate(89.4970703125 37.8564453125)"/><path d="M1462.9 1144.72h114.7v54.63h97.22" stroke="#fff" stroke-width="2" fill="none"/><path d="M1462.92 1145.72h-1.02v-2h1.02z" stroke="#fff" stroke-width=".05" fill="#fff"/><path d="M1690.08 1199.35l-14.26 4.64v-9.28z" stroke="#fff" stroke-width="2" fill="#fff"/><path d="M1179.58 1144.72h43.82" stroke="#fff" stroke-width="2" fill="none"/><path d="M1179.6 1145.72h-1.02v-2h1.03z" stroke="#fff" stroke-width=".05" fill="#fff"/><path d="M1238.66 1144.72l-14.26 4.63v-9.27z" stroke="#fff" stroke-width="2" fill="#fff"/><path d="M1066.98 246.66V360h280v41.2" stroke="#fff" stroke-width="2" fill="none"/><path d="M1067.98 246.68h-2v-1.02h2z" stroke="#fff" stroke-width=".05" fill="#fff"/><path d="M1346.98 416.46l-4.63-14.27h9.27z" stroke="#fff" stroke-width="2" fill="#fff"/><path d="M122.03 1109.72h220v70h-220z" stroke="#000" stroke-opacity="0" stroke-width="2" fill="#f2f3f5"/><use xlink:href="#ak" transform="matrix(1,0,0,1,127.03343679113482,1114.7192014603702) translate(30.4296875 37.8564453125)"/><use xlink:href="#aj" transform="matrix(1,0,0,1,127.03343679113482,1114.7192014603702) translate(117.0703125 37.8564453125)"/><path d="M1066.98 246.66V360h-302.2v41.2" stroke="#fff" stroke-width="2" fill="none"/><path d="M1067.98 246.68h-2v-1.02h2z" stroke="#fff" stroke-width=".05" fill="#fff"/><path d="M764.78 416.46l-4.64-14.27h9.27z" stroke="#fff" stroke-width="2" fill="#fff"/><path d="M957.58 1550.67H358.5" stroke="#fff" stroke-width="2" fill="none"/><path d="M958.58 1551.67h-1.02v-2h1.02z" stroke="#fff" stroke-width=".05" fill="#fff"/><path d="M343.24 1550.67l14.26-4.63v9.27z" stroke="#fff" stroke-width="2" fill="#fff"/><path d="M232 1586.67v24.37" stroke="#fff" stroke-width="2" fill="none"/><path d="M233 1586.7h-2v-1.03h2z" stroke="#fff" stroke-width=".05" fill="#fff"/><path d="M232 1626.3l-4.64-14.26h9.28z" stroke="#fff" stroke-width="2" fill="#fff"/><path d="M343 1794.85h1188.53" stroke="#fff" stroke-width="2" fill="none"/><path d="M343.03 1795.85H342v-2h1.03z" stroke="#fff" stroke-width=".05" fill="#fff"/><path d="M1546.8 1794.85l-14.27 4.63v-9.27z" stroke="#fff" stroke-width="2" fill="#fff"/><path d="M1689.27 1515.67h220v70h-220z" stroke="#000" stroke-opacity="0" stroke-width="2" fill="#fff"/><use xlink:href="#al" transform="matrix(1,0,0,1,1694.2712908444682,1520.6749835286541) translate(5.537109375 37.8564453125)"/><use xlink:href="#am" transform="matrix(1,0,0,1,1694.2712908444682,1520.6749835286541) translate(110.78125 37.8564453125)"/><use xlink:href="#an" transform="matrix(1,0,0,1,1694.2712908444682,1520.6749835286541) translate(173.408203125 37.8564453125)"/><path d="M1799.27 1586.67v208.18h-10.73" stroke="#fff" stroke-width="2" fill="none"/><path d="M1800.27 1586.7h-2v-1.03h2z" stroke="#fff" stroke-width=".05" fill="#fff"/><path d="M1773.27 1794.85l14.27-4.64v9.28z" stroke="#fff" stroke-width="2" fill="#fff"/><path d="M1477.98 1664.54h182.06v76.8" stroke="#fff" stroke-width="2" fill="none"/><path d="M1478 1665.54H1477v-2h1.03z" stroke="#fff" stroke-width=".05" fill="#fff"/><path d="M1660.04 1756.6l-4.64-14.25h9.27z" stroke="#fff" stroke-width="2" fill="#fff"/><path d="M1366.98 1586.67v24.37" stroke="#fff" stroke-width="2" fill="none"/><path d="M1367.98 1586.7h-2v-1.03h2z" stroke="#fff" stroke-width=".05" fill="#fff"/><path d="M1366.98 1626.3l-4.63-14.26h9.27z" stroke="#fff" stroke-width="2" fill="#fff"/><path d="M655.33 1280.57h220v70h-220z" stroke="#000" stroke-opacity="0" stroke-width="2" fill="#f2f3f5"/><use xlink:href="#ao" transform="matrix(1,0,0,1,660.3336969396155,1285.5727458425124) translate(94.609375 37.8564453125)"/><path d="M1236.98 420.7h220v70h-220z" stroke="#fff" stroke-width="2" fill="#fff"/><use xlink:href="#ap" transform="matrix(1,0,0,1,1241.9842847123018,425.6954300650382) translate(12.177734375 37.8564453125)"/><use xlink:href="#aq" transform="matrix(1,0,0,1,1241.9842847123018,425.6954300650382) translate(114.765625 37.8564453125)"/><path d="M1238.58 911.52h220v68.8h-220z" stroke="#000" stroke-opacity="0" stroke-width="2" fill="#fff"/><use xlink:href="#ar" transform="matrix(1,0,0,1,1243.5842529671547,916.5211309739207) translate(55.5712890625 37.3564453125)"/><use xlink:href="#H" transform="matrix(1,0,0,1,1243.5842529671547,916.5211309739207) translate(88.4521484375 37.3564453125)"/><path d="M764.78 492.7v52.16h303.8V646.3" stroke="#fff" stroke-width="2" fill="none"/><path d="M765.78 492.72h-2v-1.02h2z" stroke="#fff" stroke-width=".05" fill="#fff"/><path d="M1068.58 661.56l-4.63-14.26h9.27z" stroke="#fff" stroke-width="2" fill="#fff"/><path d="M1346.98 492.7v52.16h-278.4V646.3" stroke="#fff" stroke-width="2" fill="none"/><path d="M1347.98 492.72h-2v-1.02h2z" stroke="#fff" stroke-width=".05" fill="#fff"/><path d="M1068.58 661.56l-4.63-14.26h9.27z" stroke="#fff" stroke-width="2" fill="#fff"/><path d="M124.03 771.25H344v68.8H124.03z" stroke="#000" stroke-opacity="0" stroke-width="2" fill="#fff"/><use xlink:href="#as" transform="matrix(1,0,0,1,129.03343679113482,776.246316373587) translate(65.8349609375 25.095703125)"/><use xlink:href="#at" transform="matrix(1,0,0,1,129.03343679113482,776.246316373587) translate(36.23046875 49.6171875)"/><use xlink:href="#au" transform="matrix(1,0,0,1,129.03343679113482,776.246316373587) translate(131.73828125 49.6171875)"/><path d="M362.5 695.15h136.9v-.02h154.38" stroke="#fff" stroke-width="2" fill="none"/><path d="M347.24 695.15l14.26-4.64v9.28z" stroke="#fff" stroke-width="2" fill="#fff"/><path d="M654.78 696.13h-1.03v-2h1.03z" stroke="#fff" stroke-width=".05" fill="#fff"/><path d="M1692.32 680.86H1477.1" stroke="#fff" stroke-width="2" fill="none"/><path d="M1693.32 681.86h-1.03v-2h1.02z" stroke="#fff" stroke-width=".05" fill="#fff"/><path d="M1461.82 680.86l14.27-4.63v9.27z" stroke="#fff" stroke-width="2" fill="#fff"/><path d="M124.03 977.78H344v68.8H124.03z" stroke="#000" stroke-opacity="0" stroke-width="2" fill="#fff"/><use xlink:href="#z" transform="matrix(1,0,0,1,129.03343679113482,982.7811004430891) translate(40.6005859375 37.3564453125)"/><use xlink:href="#av" transform="matrix(1,0,0,1,129.03343679113482,982.7811004430891) translate(106.8994140625 37.3564453125)"/><path d="M345.03 907.2H499.4V859.9H636.3" stroke="#fff" stroke-width="2" fill="none"/><path d="M345.06 908.2h-1.03v-2h1.03z" stroke="#fff" stroke-width=".05" fill="#fff"/><path d="M651.54 859.88l-14.26 4.63v-9.26z" stroke="#fff" stroke-width="2" fill="#fff"/><path d="M234.05 942.6v16.7" stroke="#fff" stroke-width="2" fill="none"/><path d="M235.05 942.64h-2v-1.03h2z" stroke="#fff" stroke-width=".05" fill="#fff"/><path d="M234.02 974.55l-4.6-14.28 9.26.02z" stroke="#fff" stroke-width="2" fill="#fff"/><path d="M345 805.64h154.4v54.24h136.88" stroke="#fff" stroke-width="2" fill="none"/><path d="M345.03 806.64H344v-2h1.03z" stroke="#fff" stroke-width=".05" fill="#fff"/><path d="M651.54 859.88l-14.26 4.63v-9.26z" stroke="#fff" stroke-width="2" fill="#fff"/><path d="M345 1012.18h723.58v73.04" stroke="#fff" stroke-width="2" fill="none"/><path d="M345.03 1013.18H344v-2h1.03z" stroke="#fff" stroke-width=".05" fill="#fff"/><path d="M1068.58 1100.48l-4.63-14.26h9.27z" stroke="#fff" stroke-width="2" fill="#fff"/><path d="M1068.58 735.8v349.42" stroke="#fff" stroke-width="2" fill="none"/><path d="M1069.58 735.82h-2v-1.02h2z" stroke="#fff" stroke-width=".05" fill="#fff"/><path d="M1068.58 1100.48l-4.63-14.26h9.27z" stroke="#fff" stroke-width="2" fill="#fff"/><path d="M1179.58 699.8h40.5" stroke="#fff" stroke-width="2" fill="none"/><path d="M1179.6 700.8h-1.02v-2h1.03z" stroke="#fff" stroke-width=".05" fill="#fff"/><path d="M1235.35 699.8l-14.27 4.63v-9.27z" stroke="#fff" stroke-width="2" fill="#fff"/><path d="M1068.58 735.8v124.08h-176.5" stroke="#fff" stroke-width="2" fill="none"/><path d="M1069.58 735.82h-2v-1.02h2z" stroke="#fff" stroke-width=".05" fill="#fff"/><path d="M876.83 859.88l14.26-4.64v9.27z" stroke="#fff" stroke-width="2" fill="#fff"/><path d="M1803.32 863.37v71.03" stroke="#fff" stroke-width="2" fill="none"/><path d="M1804.32 863.4h-2v-1.03h2z" stroke="#fff" stroke-width=".05" fill="#fff"/><path d="M1803.32 949.66l-4.64-14.26h9.27z" stroke="#fff" stroke-width="2" fill="#fff"/><path d="M764.18 895.88v102.5h.97v12.8" stroke="#fff" stroke-width="2" fill="none"/><path d="M765.18 895.9h-2v-1.02h2z" stroke="#fff" stroke-width=".05" fill="#fff"/><path d="M765.15 1011.15v1.03M957.58 1144.72H360.54" stroke="#fff" stroke-width="2" fill="none"/><path d="M958.58 1145.72h-1.02v-2h1.02z" stroke="#fff" stroke-width=".05" fill="#fff"/><path d="M345.27 1144.72l14.27-4.64v9.27z" stroke="#fff" stroke-width="2" fill="#fff"/><path d="M233.5 1047.57l-.67 43.65" stroke="#fff" stroke-width="2" fill="none"/><path d="M234.5 1047.6l-2-.02v-1h2z" stroke="#fff" stroke-width=".05" fill="#fff"/><path d="M232.6 1106.48l-4.42-14.33 9.27.14z" stroke="#fff" stroke-width="2" fill="#fff"/><path d="M654.33 1315.57h-422.3v29.97" stroke="#fff" stroke-width="2" fill="none"/><path d="M655.33 1316.57h-1.02v-2h1.03z" stroke="#fff" stroke-width=".05" fill="#fff"/><path d="M232.03 1360.8l-4.63-14.26h9.27z" stroke="#fff" stroke-width="2" fill="#fff"/><path d="M232.03 1180.72v164.82" stroke="#fff" stroke-width="2" fill="none"/><path d="M233.03 1180.74h-2v-1.02h2z" stroke="#fff" stroke-width=".05" fill="#fff"/><path d="M232.03 1360.8l-4.63-14.26h9.27z" stroke="#fff" stroke-width="2" fill="#fff"/><path d="M1068.58 1186.72v28H893.84" stroke="#fff" stroke-width="2" fill="none"/><path d="M1069.58 1186.74h-2v-1.02h2z" stroke="#fff" stroke-width=".05" fill="#fff"/><path d="M878.57 1214.72l14.27-4.64v9.27z" stroke="#fff" stroke-width="2" fill="#fff"/><path d="M1068.58 1186.72v310.45" stroke="#fff" stroke-width="2" fill="none"/><path d="M1069.58 1186.74h-2v-1.02h2z" stroke="#fff" stroke-width=".05" fill="#fff"/><path d="M1068.58 1512.44l-4.63-14.27h9.27z" stroke="#fff" stroke-width="2" fill="#fff"/><path d="M1128.34 735.8v104.56h.1v105.56h91.64" stroke="#fff" stroke-width="2" fill="none"/><path d="M1129.34 735.82h-2v-1.02h2z" stroke="#fff" stroke-width=".05" fill="#fff"/><path d="M1235.35 945.92l-14.27 4.63v-9.27z" stroke="#fff" stroke-width="2" fill="#fff"/><path d="M234 732.74v20" stroke="#fff" stroke-width="2" fill="none"/><path d="M235 732.77h-2v-1.03h2z" stroke="#fff" stroke-width=".05" fill="#fff"/><path d="M234 768l-4.64-14.26h9.28z" stroke="#fff" stroke-width="2" fill="#fff"/><path d="M1238.58 795.6h220v73.2h-220z" stroke="#000" stroke-opacity="0" stroke-width="2" fill="#fff"/><g><use xlink:href="#ac" transform="matrix(1,0,0,1,1243.5842529671547,800.6141986290353) translate(6.611328125 27.595703125)"/><use xlink:href="#ad" transform="matrix(1,0,0,1,1243.5842529671547,800.6141986290353) translate(90.478515625 27.595703125)"/><use xlink:href="#ae" transform="matrix(1,0,0,1,1243.5842529671547,800.6141986290353) translate(100.751953125 52.1171875)"/></g><path d="M1348.58 794.6v-41.3" stroke="#fff" stroke-width="2" fill="none"/><path d="M1349.58 795.6h-2v-1h2z" stroke="#fff" stroke-width=".05" fill="#fff"/><path d="M1348.58 738.03l4.64 14.27h-9.27z" stroke="#fff" stroke-width="2" fill="#fff"/><path d="M1803.32 1235.35v163.7H343.02" stroke="#fff" stroke-width="2" fill="none"/><path d="M1804.32 1235.38h-2v-1.03h2zM343.06 1400.04h-1.03v-2h1.03z" stroke="#fff" stroke-width=".05" fill="#fff"/><path d="M343.03 1399.04h725.55v98.13" stroke="#fff" stroke-width="2" fill="none"/><path d="M343.06 1400.04h-1.03v-2h1.03z" stroke="#fff" stroke-width=".05" fill="#fff"/><path d="M1068.58 1512.44l-4.63-14.27h9.27z" stroke="#fff" stroke-width="2" fill="#fff"/><path d="M1351.92 1293.1l1.86 104.94" stroke="#fff" stroke-width="2" fill="none"/><path d="M1352.92 1293.1l-2 .03-.02-1.04h2z" stroke="#fff" stroke-width=".05" fill="#fff"/><path d="M1353.78 1398.02l.02 1.02M876.78 455.7h340.7" stroke="#fff" stroke-width="2" fill="none"/><path d="M876.8 456.7h-1.02v-2h1.02z" stroke="#fff" stroke-width=".05" fill="#fff"/><path d="M1232.75 455.7l-14.27 4.63v-9.27z" stroke="#fff" stroke-width="2" fill="#fff"/><defs><path fill="#fff" d="M179 0v-1471c252-1 643 1 784 53 267 99 455 348 455 701 0 296-152 531-344 637S485-7 179 0zm141-139c198 3 507-8 593-38 210-73 356-262 356-538 0-293-159-499-390-571-96-30-347-45-559-42v1189" id="aw"/><path fill="#fff" d="M669-1116c208 6 337 95 433 228v-200h138V0h-138v-187C999-63 869 23 665 28c-302 8-558-269-558-575 0-302 262-577 562-569zm442 578c6-242-192-448-431-443-175 4-306 97-374 219-77 138-76 302 1 440 68 122 199 222 372 222 254 0 426-176 432-438" id="ax"/><path fill="#fff" d="M278-1492h141v404h222v120H419V0H278v-968H87v-120h191v-404" id="ay"/><g id="c"><use transform="matrix(0.018280964220392975,0,0,0.018280964220392975,0,0)" xlink:href="#aw"/><use transform="matrix(0.018280964220392975,0,0,0.018280964220392975,27.860189471878893,0)" xlink:href="#ax"/><use transform="matrix(0.018280964220392975,0,0,0.018280964220392975,53.43525841620867,0)" xlink:href="#ay"/><use transform="matrix(0.018280964220392975,0,0,0.018280964220392975,66.12224758516139,0)" xlink:href="#ax"/></g><path fill="#fff" d="M111-744c0-427 360-773 794-764 295 6 516 130 644 310l-116 89c-113-149-283-254-526-254-254 0-463 140-559 311-54 96-82 202-82 321 0 355 290 629 650 629 206 0 378-81 517-242l116 88C1415-84 1199 37 907 37c-257 0-460-86-609-257-125-145-187-319-187-524" id="az"/><path fill="#fff" d="M248-533c-5 294 271 519 572 404 131-50 174-105 252-232l118 62C1090-107 947 28 670 28c-177 0-314-60-416-174C65-357 54-688 231-910c108-136 251-206 431-206 316 0 568 245 564 583H248zm824-121c-37-147-100-230-223-287-158-74-343-46-460 62-55 51-98 125-127 225h810" id="aA"/><path fill="#fff" d="M296-893c96-127 212-220 408-223 173-3 303 101 356 229 29 70 45 179 45 327V0H966v-519c0-125-6-209-16-251-31-135-116-216-274-217-178-2-327 143-360 292-32 145-16 495-20 695H156v-1088h140v195" id="aB"/><path fill="#fff" d="M246-929c71-100 144-187 283-187 39 0 80 12 124 37l-73 118c-84-38-142-17-209 39-44 37-76 98-99 178-35 123-24 537-26 744H103v-1088h143v159" id="aC"/><g id="d"><use transform="matrix(0.018280964220392975,0,0,0.018280964220392975,0,0)" xlink:href="#az"/><use transform="matrix(0.018280964220392975,0,0,0.018280964220392975,30.437805426954302,0)" xlink:href="#aA"/><use transform="matrix(0.018280964220392975,0,0,0.018280964220392975,54.76976880429735,0)" xlink:href="#aB"/><use transform="matrix(0.018280964220392975,0,0,0.018280964220392975,77.60269311556817,0)" xlink:href="#ay"/><use transform="matrix(0.018280964220392975,0,0,0.018280964220392975,90.28968228452091,0)" xlink:href="#aA"/><use transform="matrix(0.018280964220392975,0,0,0.018280964220392975,114.62164566186397,0)" xlink:href="#aC"/></g><path fill="#fff" d="M179-1471h148v1329h565V0H179v-1471" id="aD"/><path fill="#fff" d="M39-1088h148l374 838 363-838h149L424 398H276L486-82" id="aE"/><g id="e"><use transform="matrix(0.018280964220392975,0,0,0.018280964220392975,0,0)" xlink:href="#aD"/><use transform="matrix(0.018280964220392975,0,0,0.018280964220392975,17.293792152491754,0)" xlink:href="#ax"/><use transform="matrix(0.018280964220392975,0,0,0.018280964220392975,42.868861096821526,0)" xlink:href="#aE"/><use transform="matrix(0.018280964220392975,0,0,0.018280964220392975,62.94135981081301,0)" xlink:href="#aA"/><use transform="matrix(0.018280964220392975,0,0,0.018280964220392975,87.27332318815606,0)" xlink:href="#aC"/></g><path fill="#fff" d="M178-1471c178 1 530-4 633 22 159 41 286 172 286 370 0 205-123 327-293 371-65 17-310 26-479 24V0H178v-1471zm147 143v500c146 0 371 10 470-24 124-43 201-233 110-362-68-97-139-114-320-114H325" id="aF"/><path fill="#fff" d="M296-893c97-126 213-220 408-223 173-3 303 101 356 228 29 70 45 179 45 328V0H965c-5-230 20-580-15-770-25-136-115-216-274-217-178-2-327 143-360 292-32 144-16 495-20 695H156v-1508h140v615" id="aG"/><path fill="#fff" d="M103-828c0-163 133-288 298-288 100 0 201 49 302 147l-90 93c-75-73-148-109-219-109-84 0-167 70-165 150 0 35 13 69 40 101 27 33 83 71 168 115 104 54 175 106 212 156C801-253 621 39 375 28 236 22 118-41 54-126l88-100c71 81 147 121 227 121 147 0 268-166 163-288-26-31-85-69-176-116-98-51-165-101-200-150s-53-106-53-169" id="aH"/><path fill="#fff" d="M90-1420c0-61 54-116 115-116 62 0 116 54 116 116 0 61-55 115-116 115-60 0-115-55-115-115zm45 332h141V0H135v-1088" id="aI"/><path fill="#fff" d="M703 28C378 35 95-221 105-535c12-350 251-581 609-581 237 0 408 98 498 254l-111 69c-96-127-227-191-393-191-251 0-471 195-462 439 9 266 190 445 463 445 160 0 291-64 392-191l111 73C1116-71 938 23 703 28" id="aJ"/><path fill="#fff" d="M135-1508h140V0H135v-1508" id="aK"/><g id="f"><use transform="matrix(0.018280964220392975,0,0,0.018280964220392975,0,0)" xlink:href="#aF"/><use transform="matrix(0.018280964220392975,0,0,0.018280964220392975,22.156528635116285,0)" xlink:href="#aG"/><use transform="matrix(0.018280964220392975,0,0,0.018280964220392975,44.98945294638711,0)" xlink:href="#aE"/><use transform="matrix(0.018280964220392975,0,0,0.018280964220392975,65.0619516603786,0)" xlink:href="#aH"/><use transform="matrix(0.018280964220392975,0,0,0.018280964220392975,79.595318215591,0)" xlink:href="#aI"/><use transform="matrix(0.018280964220392975,0,0,0.018280964220392975,87.09051354595212,0)" xlink:href="#aJ"/><use transform="matrix(0.018280964220392975,0,0,0.018280964220392975,111.31279113797281,0)" xlink:href="#ax"/><use transform="matrix(0.018280964220392975,0,0,0.018280964220392975,136.88786008230258,0)" xlink:href="#aK"/></g><g id="g"><use transform="matrix(0.018280964220392975,0,0,0.018280964220392975,0,0)" xlink:href="#aF"/><use transform="matrix(0.018280964220392975,0,0,0.018280964220392975,22.156528635116285,0)" xlink:href="#ax"/><use transform="matrix(0.018280964220392975,0,0,0.018280964220392975,47.73159757944606,0)" xlink:href="#aC"/><use transform="matrix(0.018280964220392975,0,0,0.018280964220392975,58.99267153920813,0)" xlink:href="#ay"/><use transform="matrix(0.018280964220392975,0,0,0.018280964220392975,71.67966070816085,0)" xlink:href="#aI"/><use transform="matrix(0.018280964220392975,0,0,0.018280964220392975,79.17485603852198,0)" xlink:href="#ax"/><use transform="matrix(0.018280964220392975,0,0,0.018280964220392975,104.74992498285172,0)" xlink:href="#aK"/><use transform="matrix(0.018280964220392975,0,0,0.018280964220392975,112.24512031321285,0)" xlink:href="#aK"/><use transform="matrix(0.018280964220392975,0,0,0.018280964220392975,119.74031564357396,0)" xlink:href="#aE"/></g><path fill="#fff" d="M780-1471L1466 0h-158l-231-484H443L213 0H49l695-1471h36zm-18 312L509-626h503" id="aL"/><path fill="#fff" d="M138-1088h141v508c0 124 7 209 20 256 36 127 156 216 316 216 157 0 272-87 311-205 14-42 21-131 21-267v-508h143c-11 282 35 679-52 873C971-66 831 28 615 28S257-66 190-216c-85-190-42-593-52-872" id="aM"/><path fill="#fff" d="M104-541c0-310 258-575 567-575s566 265 566 575c0 302-251 569-566 569-317 0-567-267-567-569zm991 3c9-231-197-441-424-441-228 0-433 209-424 441 11 252 169 433 424 433s413-181 424-433" id="aN"/><path fill="#fff" d="M1011-855c78-145 206-261 401-261 163 0 279 92 328 216 27 68 42 170 42 306V0h-143v-594c-4-205-6-272-111-346-94-66-241-50-330 20-138 108-163 217-163 494V0H896v-557c0-131-8-220-24-267-29-88-115-157-231-156-146 2-263 101-307 216-65 169-32 524-40 764H155v-1088h139v188c84-127 198-216 373-216 192 0 294 100 344 261" id="aO"/><path fill="#fff" d="M671-1116c208 6 337 95 433 228v-620h138V0h-138v-187C1001-63 871 23 667 28c-302 8-558-269-558-575 0-302 262-577 562-569zm442 578c6-242-192-448-431-443-175 4-306 97-374 219-77 138-76 302 1 440 68 122 199 222 372 222 254 0 426-176 432-438" id="aP"/><g id="h"><use transform="matrix(0.018280964220392975,0,0,0.018280964220392975,0,0)" xlink:href="#aL"/><use transform="matrix(0.018280964220392975,0,0,0.018280964220392975,27.695660793895357,0)" xlink:href="#aM"/><use transform="matrix(0.018280964220392975,0,0,0.018280964220392975,50.455461248284614,0)" xlink:href="#ay"/><use transform="matrix(0.018280964220392975,0,0,0.018280964220392975,63.14245041723733,0)" xlink:href="#aN"/><use transform="matrix(0.018280964220392975,0,0,0.018280964220392975,87.65722343678432,0)" xlink:href="#aO"/><use transform="matrix(0.018280964220392975,0,0,0.018280964220392975,122.7749557041592,0)" xlink:href="#ax"/><use transform="matrix(0.018280964220392975,0,0,0.018280964220392975,148.35002464848898,0)" xlink:href="#ay"/><use transform="matrix(0.018280964220392975,0,0,0.018280964220392975,161.0370138174417,0)" xlink:href="#aA"/><use transform="matrix(0.018280964220392975,0,0,0.018280964220392975,185.36897719478472,0)" xlink:href="#aP"/></g><path fill="#282c33" d="M179 0v-1471c252-1 643 1 784 53 267 99 455 348 455 701 0 296-152 531-344 637S485-7 179 0zm141-139c198 3 507-8 593-38 210-73 356-262 356-538 0-293-159-499-390-571-96-30-347-45-559-42v1189" id="aQ"/><path fill="#282c33" d="M669-1116c208 6 337 95 433 228v-200h138V0h-138v-187C999-63 869 23 665 28c-302 8-558-269-558-575 0-302 262-577 562-569zm442 578c6-242-192-448-431-443-175 4-306 97-374 219-77 138-76 302 1 440 68 122 199 222 372 222 254 0 426-176 432-438" id="aR"/><path fill="#282c33" d="M278-1492h141v404h222v120H419V0H278v-968H87v-120h191v-404" id="aS"/><g id="l"><use transform="matrix(0.009765625,0,0,0.009765625,0,0)" xlink:href="#aQ"/><use transform="matrix(0.009765625,0,0,0.009765625,14.8828125,0)" xlink:href="#aR"/><use transform="matrix(0.009765625,0,0,0.009765625,28.544921875,0)" xlink:href="#aS"/><use transform="matrix(0.009765625,0,0,0.009765625,35.322265625,0)" xlink:href="#aR"/></g><path fill="#282c33" d="M111-744c0-427 360-773 794-764 295 6 516 130 644 310l-116 89c-113-149-283-254-526-254-254 0-463 140-559 311-54 96-82 202-82 321 0 355 290 629 650 629 206 0 378-81 517-242l116 88C1415-84 1199 37 907 37c-257 0-460-86-609-257-125-145-187-319-187-524" id="aT"/><path fill="#282c33" d="M248-533c-5 294 271 519 572 404 131-50 174-105 252-232l118 62C1090-107 947 28 670 28c-177 0-314-60-416-174C65-357 54-688 231-910c108-136 251-206 431-206 316 0 568 245 564 583H248zm824-121c-37-147-100-230-223-287-158-74-343-46-460 62-55 51-98 125-127 225h810" id="aU"/><path fill="#282c33" d="M296-893c96-127 212-220 408-223 173-3 303 101 356 229 29 70 45 179 45 327V0H966v-519c0-125-6-209-16-251-31-135-116-216-274-217-178-2-327 143-360 292-32 145-16 495-20 695H156v-1088h140v195" id="aV"/><path fill="#282c33" d="M246-929c71-100 144-187 283-187 39 0 80 12 124 37l-73 118c-84-38-142-17-209 39-44 37-76 98-99 178-35 123-24 537-26 744H103v-1088h143v159" id="aW"/><g id="m"><use transform="matrix(0.009765625,0,0,0.009765625,0,0)" xlink:href="#aT"/><use transform="matrix(0.009765625,0,0,0.009765625,16.259765625,0)" xlink:href="#aU"/><use transform="matrix(0.009765625,0,0,0.009765625,29.2578125,0)" xlink:href="#aV"/><use transform="matrix(0.009765625,0,0,0.009765625,41.455078125,0)" xlink:href="#aS"/><use transform="matrix(0.009765625,0,0,0.009765625,48.232421875,0)" xlink:href="#aU"/><use transform="matrix(0.009765625,0,0,0.009765625,61.23046875,0)" xlink:href="#aW"/></g><path fill="#282c33" d="M187-1471c175 1 521-4 625 20 164 38 297 174 295 371-1 173-90 293-218 348-70 31-167 47-290 48L1128 0H946L418-684h-84V0H187v-1471zm147 144v500c148-2 371 13 470-26 84-34 149-117 150-227 0-104-67-190-145-221-94-37-330-23-475-26" id="aX"/><path fill="#282c33" d="M703 28C378 35 95-221 105-535c12-350 251-581 609-581 237 0 408 98 498 254l-111 69c-96-127-227-191-393-191-251 0-471 195-462 439 9 266 190 445 463 445 160 0 291-64 392-191l111 73C1116-71 938 23 703 28" id="aY"/><path fill="#282c33" d="M155-1508h141v858l503-438h206L408-569 1040 0H842L296-489V0H155v-1508" id="aZ"/><g id="n"><use transform="matrix(0.009765625,0,0,0.009765625,0,0)" xlink:href="#aX"/><use transform="matrix(0.009765625,0,0,0.009765625,12.138671875,0)" xlink:href="#aR"/><use transform="matrix(0.009765625,0,0,0.009765625,25.80078125,0)" xlink:href="#aY"/><use transform="matrix(0.009765625,0,0,0.009765625,38.740234375,0)" xlink:href="#aZ"/></g><path fill="#fff" d="M180-1471h843v145H327v460h690v144H327v577h690V0H180v-1471" id="ba"/><path fill="#fff" d="M668-1116c208 6 337 95 433 228v-200h138V398h-138v-585C998-63 868 23 664 28c-302 8-558-269-558-575 0-302 262-577 562-569zm442 578c6-242-192-448-431-443-175 4-305 97-373 219-77 138-77 302 0 440 68 122 199 222 372 222 254 0 426-176 432-438" id="bb"/><path fill="#fff" d="M733 28c-204-5-333-91-436-215v585H158v-1486h139v200c97-133 224-222 432-228 300-9 562 267 562 569 0 306-256 583-558 575zM718-981c-239-6-436 201-431 443 4 182 91 311 215 380 134 75 297 77 430 0 116-67 218-214 218-384 0-253-176-431-432-439" id="bc"/><g id="o"><use transform="matrix(0.017229450528190998,0,0,0.017229450528190998,0,0)" xlink:href="#ba"/><use transform="matrix(0.017229450528190998,0,0,0.017229450528190998,18.917936679953716,0)" xlink:href="#bb"/><use transform="matrix(0.017229450528190998,0,0,0.017229450528190998,42.98747906783654,0)" xlink:href="#aM"/><use transform="matrix(0.017229450528190998,0,0,0.017229450528190998,64.43814497543433,0)" xlink:href="#aI"/><use transform="matrix(0.017229450528190998,0,0,0.017229450528190998,71.50221969199264,0)" xlink:href="#bc"/><use transform="matrix(0.017229450528190998,0,0,0.017229450528190998,95.57176207987546,0)" xlink:href="#aO"/><use transform="matrix(0.017229450528190998,0,0,0.017229450528190998,128.66953654453036,0)" xlink:href="#aA"/><use transform="matrix(0.017229450528190998,0,0,0.017229450528190998,151.60193519755256,0)" xlink:href="#aB"/><use transform="matrix(0.017229450528190998,0,0,0.017229450528190998,173.12151890726312,0)" xlink:href="#ay"/></g><g id="p"><use transform="matrix(0.017229450528190998,0,0,0.017229450528190998,0,0)" xlink:href="#aD"/><use transform="matrix(0.017229450528190998,0,0,0.017229450528190998,16.299060199668684,0)" xlink:href="#ax"/><use transform="matrix(0.017229450528190998,0,0,0.017229450528190998,40.40306148860789,0)" xlink:href="#aE"/><use transform="matrix(0.017229450528190998,0,0,0.017229450528190998,59.3209981685616,0)" xlink:href="#aA"/><use transform="matrix(0.017229450528190998,0,0,0.017229450528190998,82.25339682158382,0)" xlink:href="#aC"/></g><g id="q"><use transform="matrix(0.017229450528190998,0,0,0.017229450528190998,0,0)" xlink:href="#aF"/><use transform="matrix(0.017229450528190998,0,0,0.017229450528190998,20.88209404016749,0)" xlink:href="#aG"/><use transform="matrix(0.017229450528190998,0,0,0.017229450528190998,42.40167774987805,0)" xlink:href="#aE"/><use transform="matrix(0.017229450528190998,0,0,0.017229450528190998,61.31961442983176,0)" xlink:href="#aH"/><use transform="matrix(0.017229450528190998,0,0,0.017229450528190998,75.0170275997436,0)" xlink:href="#aI"/><use transform="matrix(0.017229450528190998,0,0,0.017229450528190998,82.08110231630191,0)" xlink:href="#aJ"/><use transform="matrix(0.017229450528190998,0,0,0.017229450528190998,104.910124266155,0)" xlink:href="#ax"/><use transform="matrix(0.017229450528190998,0,0,0.017229450528190998,129.01412555509418,0)" xlink:href="#aK"/></g><g id="r"><use transform="matrix(0.017229450528190998,0,0,0.017229450528190998,0,0)" xlink:href="#aF"/><use transform="matrix(0.017229450528190998,0,0,0.017229450528190998,20.88209404016749,0)" xlink:href="#ax"/><use transform="matrix(0.017229450528190998,0,0,0.017229450528190998,44.986095329106696,0)" xlink:href="#aC"/><use transform="matrix(0.017229450528190998,0,0,0.017229450528190998,55.59943685447235,0)" xlink:href="#ay"/><use transform="matrix(0.017229450528190998,0,0,0.017229450528190998,67.55667552103691,0)" xlink:href="#aI"/><use transform="matrix(0.017229450528190998,0,0,0.017229450528190998,74.62075023759522,0)" xlink:href="#ax"/><use transform="matrix(0.017229450528190998,0,0,0.017229450528190998,98.72475152653442,0)" xlink:href="#aK"/><use transform="matrix(0.017229450528190998,0,0,0.017229450528190998,105.78882624309273,0)" xlink:href="#aK"/><use transform="matrix(0.017229450528190998,0,0,0.017229450528190998,112.85290095965104,0)" xlink:href="#aE"/></g><g id="s"><use transform="matrix(0.017229450528190998,0,0,0.017229450528190998,0,0)" xlink:href="#aL"/><use transform="matrix(0.017229450528190998,0,0,0.017229450528190998,26.102617550209363,0)" xlink:href="#aM"/><use transform="matrix(0.017229450528190998,0,0,0.017229450528190998,47.553283457807154,0)" xlink:href="#ay"/><use transform="matrix(0.017229450528190998,0,0,0.017229450528190998,59.51052212437171,0)" xlink:href="#aN"/><use transform="matrix(0.017229450528190998,0,0,0.017229450528190998,82.61521528267583,0)" xlink:href="#aO"/><use transform="matrix(0.017229450528190998,0,0,0.017229450528190998,115.71298974733074,0)" xlink:href="#ax"/><use transform="matrix(0.017229450528190998,0,0,0.017229450528190998,139.81699103626994,0)" xlink:href="#ay"/><use transform="matrix(0.017229450528190998,0,0,0.017229450528190998,151.7742297028345,0)" xlink:href="#aA"/><use transform="matrix(0.017229450528190998,0,0,0.017229450528190998,174.7066283558567,0)" xlink:href="#aP"/></g><path fill="#282c33" d="M888-359c0 212-199 396-417 396-89 0-170-23-243-71S88-162 27-274l125-75c88 162 190 243 305 243 154 0 272-98 272-250 0-49-17-98-50-145-46-65-130-144-252-236-123-93-199-160-229-201-52-70-78-144-78-225 0-209 148-345 357-345 69 0 135 18 195 52s124 97 191 189l-120 91c-55-73-103-121-141-145-134-86-338-6-330 152 5 92 36 132 93 191 19 19 83 68 190 147 127 94 215 178 262 251s71 147 71 221" id="bd"/><path fill="#282c33" d="M296-893c97-126 213-220 408-223 173-3 303 101 356 228 29 70 45 179 45 328V0H965c-5-230 20-580-15-770-25-136-115-216-274-217-178-2-327 143-360 292-32 144-16 495-20 695H156v-1508h140v615" id="be"/><path fill="#282c33" d="M135-1508h140V0H135v-1508" id="bf"/><path fill="#282c33" d="M53-1088h149l364 792 361-792h150L579 0h-25" id="bg"/><path fill="#282c33" d="M103-828c0-163 133-288 298-288 100 0 201 49 302 147l-90 93c-75-73-148-109-219-109-84 0-167 70-165 150 0 35 13 69 40 101 27 33 83 71 168 115 104 54 175 106 212 156C801-253 621 39 375 28 236 22 118-41 54-126l88-100c71 81 147 121 227 121 147 0 268-166 163-288-26-31-85-69-176-116-98-51-165-101-200-150s-53-106-53-169" id="bh"/><g id="t"><use transform="matrix(0.009765625,0,0,0.009765625,0,0)" xlink:href="#bd"/><use transform="matrix(0.009765625,0,0,0.009765625,9.9609375,0)" xlink:href="#be"/><use transform="matrix(0.009765625,0,0,0.009765625,22.158203125,0)" xlink:href="#aU"/><use transform="matrix(0.009765625,0,0,0.009765625,35.15625,0)" xlink:href="#bf"/><use transform="matrix(0.009765625,0,0,0.009765625,39.16015625,0)" xlink:href="#bg"/><use transform="matrix(0.009765625,0,0,0.009765625,50.244140625,0)" xlink:href="#aU"/><use transform="matrix(0.009765625,0,0,0.009765625,63.2421875,0)" xlink:href="#bh"/></g><path fill="#282c33" d="M104-541c0-310 258-575 567-575s566 265 566 575c0 302-251 569-566 569-317 0-567-267-567-569zm991 3c9-231-197-441-424-441-228 0-433 209-424 441 11 252 169 433 424 433s413-181 424-433" id="bi"/><g id="u"><use transform="matrix(0.009765625,0,0,0.009765625,0,0)" xlink:href="#aT"/><use transform="matrix(0.009765625,0,0,0.009765625,16.259765625,0)" xlink:href="#bi"/><use transform="matrix(0.009765625,0,0,0.009765625,29.35546875,0)" xlink:href="#aW"/><use transform="matrix(0.009765625,0,0,0.009765625,35.29296875,0)" xlink:href="#aU"/></g><path fill="#282c33" d="M180 0v-1471h32l978 1126v-1126h145V0h-33L332-1112V0H180" id="bj"/><path fill="#282c33" d="M9-1088h144l333 790 349-790h25l348 790 339-790h146L1221 0h-27L848-779 499 0h-26" id="bk"/><path fill="#282c33" d="M836-1508L225 200H72l610-1708h154" id="bl"/><path fill="#282c33" d="M179-1471h737v145H325v460h591v145H325V0H179v-1471" id="bm"/><path fill="#282c33" d="M90-1420c0-61 54-116 115-116 62 0 116 54 116 116 0 61-55 115-116 115-60 0-115-55-115-115zm45 332h141V0H135v-1088" id="bn"/><g id="v"><use transform="matrix(0.009765625,0,0,0.009765625,0,0)" xlink:href="#bj"/><use transform="matrix(0.009765625,0,0,0.009765625,14.794921875,0)" xlink:href="#aU"/><use transform="matrix(0.009765625,0,0,0.009765625,27.79296875,0)" xlink:href="#aS"/><use transform="matrix(0.009765625,0,0,0.009765625,34.5703125,0)" xlink:href="#bk"/><use transform="matrix(0.009765625,0,0,0.009765625,51.19140625,0)" xlink:href="#bi"/><use transform="matrix(0.009765625,0,0,0.009765625,64.287109375,0)" xlink:href="#aW"/><use transform="matrix(0.009765625,0,0,0.009765625,70.302734375,0)" xlink:href="#aZ"/><use transform="matrix(0.009765625,0,0,0.009765625,80.341796875,0)" xlink:href="#bl"/><use transform="matrix(0.009765625,0,0,0.009765625,89.08203125,0)" xlink:href="#bm"/><use transform="matrix(0.009765625,0,0,0.009765625,98.779296875,0)" xlink:href="#bn"/><use transform="matrix(0.009765625,0,0,0.009765625,102.783203125,0)" xlink:href="#aW"/><use transform="matrix(0.009765625,0,0,0.009765625,108.720703125,0)" xlink:href="#aU"/><use transform="matrix(0.009765625,0,0,0.009765625,121.71875,0)" xlink:href="#bk"/><use transform="matrix(0.009765625,0,0,0.009765625,138.33984375,0)" xlink:href="#aR"/><use transform="matrix(0.009765625,0,0,0.009765625,152.001953125,0)" xlink:href="#bf"/><use transform="matrix(0.009765625,0,0,0.009765625,156.005859375,0)" xlink:href="#bf"/></g><path fill="#282c33" d="M1030-584C1163-276 910 0 587 0H183v-1471c185 4 439-14 559 41 112 51 203 167 203 319 0 151-80 252-189 309 139 47 223 100 274 218zm-238-527c0-157-115-218-295-216H327v471c111 2 253-5 309-28 84-35 156-117 156-227zM327-708v564c136 0 339 3 418-32 87-38 166-128 166-243 0-147-110-239-240-271-52-13-226-19-344-18" id="bo"/><path fill="#282c33" d="M671-1116c208 6 337 95 433 228v-620h138V0h-138v-187C1001-63 871 23 667 28c-302 8-558-269-558-575 0-302 262-577 562-569zm442 578c6-242-192-448-431-443-175 4-306 97-374 219-77 138-76 302 1 440 68 122 199 222 372 222 254 0 426-176 432-438" id="bp"/><g id="w"><use transform="matrix(0.009765625,0,0,0.009765625,0,0)" xlink:href="#bo"/><use transform="matrix(0.009765625,0,0,0.009765625,11.484375,0)" xlink:href="#bf"/><use transform="matrix(0.009765625,0,0,0.009765625,15.48828125,0)" xlink:href="#aR"/><use transform="matrix(0.009765625,0,0,0.009765625,29.150390625,0)" xlink:href="#bp"/><use transform="matrix(0.009765625,0,0,0.009765625,42.8515625,0)" xlink:href="#aU"/></g><g id="x"><use transform="matrix(0.009765625,0,0,0.009765625,0,0)" xlink:href="#bd"/><use transform="matrix(0.009765625,0,0,0.009765625,9.9609375,0)" xlink:href="#aU"/><use transform="matrix(0.009765625,0,0,0.009765625,22.958984375,0)" xlink:href="#aW"/><use transform="matrix(0.009765625,0,0,0.009765625,28.974609375,0)" xlink:href="#bg"/><use transform="matrix(0.009765625,0,0,0.009765625,40.05859375,0)" xlink:href="#aU"/><use transform="matrix(0.009765625,0,0,0.009765625,53.056640625,0)" xlink:href="#aW"/></g><path fill="#282c33" d="M180-1471h843v145H327v460h690v144H327v577h690V0H180v-1471" id="bq"/><path fill="#282c33" d="M138-1088h141v508c0 124 7 209 20 256 36 127 156 216 316 216 157 0 272-87 311-205 14-42 21-131 21-267v-508h143c-11 282 35 679-52 873C971-66 831 28 615 28S257-66 190-216c-85-190-42-593-52-872" id="br"/><g id="y"><use transform="matrix(0.009765625,0,0,0.009765625,0,0)" xlink:href="#bq"/><use transform="matrix(0.009765625,0,0,0.009765625,10.72265625,0)" xlink:href="#aV"/><use transform="matrix(0.009765625,0,0,0.009765625,22.919921875,0)" xlink:href="#aY"/><use transform="matrix(0.009765625,0,0,0.009765625,35.859375,0)" xlink:href="#bf"/><use transform="matrix(0.009765625,0,0,0.009765625,39.86328125,0)" xlink:href="#bi"/><use transform="matrix(0.009765625,0,0,0.009765625,52.958984375,0)" xlink:href="#bh"/><use transform="matrix(0.009765625,0,0,0.009765625,60.72265625,0)" xlink:href="#br"/><use transform="matrix(0.009765625,0,0,0.009765625,72.880859375,0)" xlink:href="#aW"/><use transform="matrix(0.009765625,0,0,0.009765625,78.818359375,0)" xlink:href="#aU"/></g><path fill="#282c33" d="M67-1471h160L714-334l496-1137h160L730 0h-32" id="bs"/><g id="z"><use transform="matrix(0.009765625,0,0,0.009765625,0,0)" xlink:href="#bs"/><use transform="matrix(0.009765625,0,0,0.009765625,14.140625,0)" xlink:href="#bn"/><use transform="matrix(0.009765625,0,0,0.009765625,18.14453125,0)" xlink:href="#aW"/><use transform="matrix(0.009765625,0,0,0.009765625,24.16015625,0)" xlink:href="#aS"/><use transform="matrix(0.009765625,0,0,0.009765625,30.9375,0)" xlink:href="#br"/><use transform="matrix(0.009765625,0,0,0.009765625,43.095703125,0)" xlink:href="#aR"/><use transform="matrix(0.009765625,0,0,0.009765625,56.7578125,0)" xlink:href="#bf"/></g><path fill="#282c33" d="M178-1471c178 1 530-4 633 22 159 41 286 172 286 370 0 205-123 327-293 371-65 17-310 26-479 24V0H178v-1471zm147 143v500c146 0 371 10 470-24 124-43 201-233 110-362-68-97-139-114-320-114H325" id="bt"/><g id="A"><use transform="matrix(0.009765625,0,0,0.009765625,0,0)" xlink:href="#bt"/><use transform="matrix(0.009765625,0,0,0.009765625,11.8359375,0)" xlink:href="#bi"/><use transform="matrix(0.009765625,0,0,0.009765625,24.931640625,0)" xlink:href="#aW"/><use transform="matrix(0.009765625,0,0,0.009765625,30.947265625,0)" xlink:href="#aS"/></g><path fill="#282c33" d="M1685-705c4 445-294 742-739 742-272 0-485-95-646-278-207-235-243-598-78-884 127-220 371-383 702-383 307 0 493 114 674 284l-114 108c-134-134-322-246-555-246-253 0-473 145-572 316-113 195-112 428 3 622 106 180 320 318 590 321 299 3 538-196 570-460h-469v-142h634" id="bu"/><path fill="#282c33" d="M733 28c-204-5-333-91-436-215v585H158v-1486h139v200c97-133 224-222 432-228 300-9 562 267 562 569 0 306-256 583-558 575zM718-981c-239-6-436 201-431 443 4 182 91 311 215 380 134 75 297 77 430 0 116-67 218-214 218-384 0-253-176-431-432-439" id="bv"/><g id="B"><use transform="matrix(0.009765625,0,0,0.009765625,0,0)" xlink:href="#bu"/><use transform="matrix(0.009765625,0,0,0.009765625,17.44140625,0)" xlink:href="#aW"/><use transform="matrix(0.009765625,0,0,0.009765625,23.37890625,0)" xlink:href="#bi"/><use transform="matrix(0.009765625,0,0,0.009765625,36.474609375,0)" xlink:href="#br"/><use transform="matrix(0.009765625,0,0,0.009765625,48.6328125,0)" xlink:href="#bv"/></g><path fill="#282c33" d="M662-1116c207 0 320 87 431 217v-189h141v867c0 153-15 264-40 335-69 193-259 312-518 312-184 0-340-58-433-146-47-44-90-109-129-194h152c79 136 196 209 403 212 180 2 321-77 382-188 32-58 45-189 42-317C1002-89 851 0 658 0 333 0 100-223 100-552c0-225 126-401 282-488 89-50 182-76 280-76zm10 984c251 0 431-172 428-421-2-178-86-305-207-372-66-37-137-56-213-56-258 0-432 179-439 436-7 238 187 413 431 413" id="bw"/><g id="C"><use transform="matrix(0.009765625,0,0,0.009765625,0,0)" xlink:href="#bd"/><use transform="matrix(0.009765625,0,0,0.009765625,9.9609375,0)" xlink:href="#aS"/><use transform="matrix(0.009765625,0,0,0.009765625,16.73828125,0)" xlink:href="#bi"/><use transform="matrix(0.009765625,0,0,0.009765625,29.833984375,0)" xlink:href="#aW"/><use transform="matrix(0.009765625,0,0,0.009765625,35.849609375,0)" xlink:href="#aR"/><use transform="matrix(0.009765625,0,0,0.009765625,49.51171875,0)" xlink:href="#bw"/><use transform="matrix(0.009765625,0,0,0.009765625,62.96875,0)" xlink:href="#aU"/></g><g id="D"><use transform="matrix(0.009765625,0,0,0.009765625,0,0)" xlink:href="#aT"/><use transform="matrix(0.009765625,0,0,0.009765625,16.259765625,0)" xlink:href="#bi"/><use transform="matrix(0.009765625,0,0,0.009765625,29.35546875,0)" xlink:href="#aV"/><use transform="matrix(0.009765625,0,0,0.009765625,41.552734375,0)" xlink:href="#aS"/><use transform="matrix(0.009765625,0,0,0.009765625,48.330078125,0)" xlink:href="#aW"/><use transform="matrix(0.009765625,0,0,0.009765625,54.267578125,0)" xlink:href="#bi"/><use transform="matrix(0.009765625,0,0,0.009765625,67.36328125,0)" xlink:href="#bf"/><use transform="matrix(0.009765625,0,0,0.009765625,71.3671875,0)" xlink:href="#bf"/><use transform="matrix(0.009765625,0,0,0.009765625,75.37109375,0)" xlink:href="#aU"/><use transform="matrix(0.009765625,0,0,0.009765625,88.369140625,0)" xlink:href="#aW"/><use transform="matrix(0.009765625,0,0,0.009765625,94.384765625,0)" xlink:href="#bh"/></g><g id="E"><use transform="matrix(0.009765625,0,0,0.009765625,0,0)" xlink:href="#bd"/><use transform="matrix(0.009765625,0,0,0.009765625,9.9609375,0)" xlink:href="#aS"/><use transform="matrix(0.009765625,0,0,0.009765625,16.73828125,0)" xlink:href="#bi"/><use transform="matrix(0.009765625,0,0,0.009765625,29.833984375,0)" xlink:href="#aW"/><use transform="matrix(0.009765625,0,0,0.009765625,35.849609375,0)" xlink:href="#aR"/><use transform="matrix(0.009765625,0,0,0.009765625,49.51171875,0)" xlink:href="#bw"/><use transform="matrix(0.009765625,0,0,0.009765625,62.96875,0)" xlink:href="#aU"/></g><path fill="#282c33" d="M1011-855c78-145 206-261 401-261 163 0 279 92 328 216 27 68 42 170 42 306V0h-143v-594c-4-205-6-272-111-346-94-66-241-50-330 20-138 108-163 217-163 494V0H896v-557c0-131-8-220-24-267-29-88-115-157-231-156-146 2-263 101-307 216-65 169-32 524-40 764H155v-1088h139v188c84-127 198-216 373-216 192 0 294 100 344 261" id="bx"/><g id="F"><use transform="matrix(0.009765625,0,0,0.009765625,0,0)" xlink:href="#bs"/><use transform="matrix(0.009765625,0,0,0.009765625,12.021484375,0)" xlink:href="#bi"/><use transform="matrix(0.009765625,0,0,0.009765625,25.1171875,0)" xlink:href="#bf"/><use transform="matrix(0.009765625,0,0,0.009765625,29.12109375,0)" xlink:href="#br"/><use transform="matrix(0.009765625,0,0,0.009765625,41.279296875,0)" xlink:href="#bx"/><use transform="matrix(0.009765625,0,0,0.009765625,60.0390625,0)" xlink:href="#aU"/></g><path fill="#282c33" d="M112 0l209-1471h24L943-264l592-1207h24L1770 0h-145l-144-1052L961 0h-37L397-1060 254 0H112" id="by"/><g id="G"><use transform="matrix(0.009765625,0,0,0.009765625,0,0)" xlink:href="#bd"/><use transform="matrix(0.009765625,0,0,0.009765625,9.9609375,0)" xlink:href="#bs"/><use transform="matrix(0.009765625,0,0,0.009765625,24.00390625,0)" xlink:href="#by"/></g><g id="H"><use transform="matrix(0.009765625,0,0,0.009765625,0,0)" xlink:href="#aT"/><use transform="matrix(0.009765625,0,0,0.009765625,16.259765625,0)" xlink:href="#bf"/><use transform="matrix(0.009765625,0,0,0.009765625,20.263671875,0)" xlink:href="#br"/><use transform="matrix(0.009765625,0,0,0.009765625,32.421875,0)" xlink:href="#bh"/><use transform="matrix(0.009765625,0,0,0.009765625,40.185546875,0)" xlink:href="#aS"/><use transform="matrix(0.009765625,0,0,0.009765625,46.962890625,0)" xlink:href="#aU"/><use transform="matrix(0.009765625,0,0,0.009765625,59.9609375,0)" xlink:href="#aW"/></g><path fill="#282c33" d="M892 37c-419 0-785-352-777-766 6-310 171-558 382-677 119-67 246-102 383-102 430 0 784 346 784 772 0 417-354 773-772 773zM268-729c0 336 286 630 619 623 250-5 447-139 543-310 105-186 106-451 0-636-95-166-299-312-543-312-242 0-444 146-537 314-53 97-82 203-82 321" id="bz"/><g id="I"><use transform="matrix(0.009765625,0,0,0.009765625,0,0)" xlink:href="#bz"/><use transform="matrix(0.009765625,0,0,0.009765625,17.3828125,0)" xlink:href="#bv"/><use transform="matrix(0.009765625,0,0,0.009765625,31.025390625,0)" xlink:href="#aU"/><use transform="matrix(0.009765625,0,0,0.009765625,44.0234375,0)" xlink:href="#aW"/><use transform="matrix(0.009765625,0,0,0.009765625,50.0390625,0)" xlink:href="#aR"/><use transform="matrix(0.009765625,0,0,0.009765625,63.701171875,0)" xlink:href="#aS"/><use transform="matrix(0.009765625,0,0,0.009765625,70.478515625,0)" xlink:href="#bn"/><use transform="matrix(0.009765625,0,0,0.009765625,74.482421875,0)" xlink:href="#aV"/><use transform="matrix(0.009765625,0,0,0.009765625,86.6796875,0)" xlink:href="#bw"/></g><path fill="#282c33" d="M39-1088h148l374 838 363-838h149L424 398H276L486-82" id="bA"/><g id="J"><use transform="matrix(0.009765625,0,0,0.009765625,0,0)" xlink:href="#bd"/><use transform="matrix(0.009765625,0,0,0.009765625,9.9609375,0)" xlink:href="#bA"/><use transform="matrix(0.009765625,0,0,0.009765625,20.68359375,0)" xlink:href="#bh"/><use transform="matrix(0.009765625,0,0,0.009765625,28.447265625,0)" xlink:href="#aS"/><use transform="matrix(0.009765625,0,0,0.009765625,35.224609375,0)" xlink:href="#aU"/><use transform="matrix(0.009765625,0,0,0.009765625,48.22265625,0)" xlink:href="#bx"/></g><g id="K"><use transform="matrix(0.009765625,0,0,0.009765625,0,0)" xlink:href="#bm"/><use transform="matrix(0.009765625,0,0,0.009765625,9.697265625,0)" xlink:href="#bn"/><use transform="matrix(0.009765625,0,0,0.009765625,13.701171875,0)" xlink:href="#bf"/><use transform="matrix(0.009765625,0,0,0.009765625,17.705078125,0)" xlink:href="#aU"/></g><g id="L"><use transform="matrix(0.009765625,0,0,0.009765625,0,0)" xlink:href="#bd"/><use transform="matrix(0.009765625,0,0,0.009765625,9.9609375,0)" xlink:href="#be"/><use transform="matrix(0.009765625,0,0,0.009765625,22.158203125,0)" xlink:href="#aR"/><use transform="matrix(0.009765625,0,0,0.009765625,35.8203125,0)" xlink:href="#aW"/><use transform="matrix(0.009765625,0,0,0.009765625,41.7578125,0)" xlink:href="#aU"/></g><path fill="#282c33" d="M780-1471L1466 0h-158l-231-484H443L213 0H49l695-1471h36zm-18 312L509-626h503" id="bB"/><g id="M"><use transform="matrix(0.009765625,0,0,0.009765625,0,0)" xlink:href="#bB"/><use transform="matrix(0.009765625,0,0,0.009765625,14.794921875,0)" xlink:href="#bv"/><use transform="matrix(0.009765625,0,0,0.009765625,28.4375,0)" xlink:href="#bv"/><use transform="matrix(0.009765625,0,0,0.009765625,42.080078125,0)" xlink:href="#bf"/><use transform="matrix(0.009765625,0,0,0.009765625,46.083984375,0)" xlink:href="#bn"/><use transform="matrix(0.009765625,0,0,0.009765625,50.087890625,0)" xlink:href="#aY"/><use transform="matrix(0.009765625,0,0,0.009765625,63.02734375,0)" xlink:href="#aR"/><use transform="matrix(0.009765625,0,0,0.009765625,76.689453125,0)" xlink:href="#aS"/><use transform="matrix(0.009765625,0,0,0.009765625,83.466796875,0)" xlink:href="#bn"/><use transform="matrix(0.009765625,0,0,0.009765625,87.470703125,0)" xlink:href="#bi"/><use transform="matrix(0.009765625,0,0,0.009765625,100.56640625,0)" xlink:href="#aV"/></g><g id="N"><use transform="matrix(0.009765625,0,0,0.009765625,0,0)" xlink:href="#bd"/><use transform="matrix(0.009765625,0,0,0.009765625,9.9609375,0)" xlink:href="#aU"/><use transform="matrix(0.009765625,0,0,0.009765625,22.958984375,0)" xlink:href="#aW"/><use transform="matrix(0.009765625,0,0,0.009765625,28.974609375,0)" xlink:href="#bg"/><use transform="matrix(0.009765625,0,0,0.009765625,40.05859375,0)" xlink:href="#bn"/><use transform="matrix(0.009765625,0,0,0.009765625,44.0625,0)" xlink:href="#aY"/><use transform="matrix(0.009765625,0,0,0.009765625,57.001953125,0)" xlink:href="#aU"/></g><path fill="#fff" d="M158-1471h147V0H158v-1471" id="bC"/><path fill="#fff" d="M604-1508v137c-77-31-137-53-200-17-53 31-41 48-41 153v147h227v120H362V0H222v-968H79v-120h143c2-105-6-274 22-337 29-65 101-112 197-111 45 0 100 9 163 28" id="bD"/><g id="P"><use transform="matrix(0.018280964220392975,0,0,0.018280964220392975,0,0)" xlink:href="#bC"/><use transform="matrix(0.018280964220392975,0,0,0.018280964220392975,8.464086434041947,0)" xlink:href="#aB"/><use transform="matrix(0.018280964220392975,0,0,0.018280964220392975,31.29701074531278,0)" xlink:href="#bD"/><use transform="matrix(0.018280964220392975,0,0,0.018280964220392975,43.051670739025454,0)" xlink:href="#aC"/><use transform="matrix(0.018280964220392975,0,0,0.018280964220392975,54.312744698787526,0)" xlink:href="#ax"/><use transform="matrix(0.018280964220392975,0,0,0.018280964220392975,79.8878136431173,0)" xlink:href="#aH"/><use transform="matrix(0.018280964220392975,0,0,0.018280964220392975,94.42118019832972,0)" xlink:href="#ay"/><use transform="matrix(0.018280964220392975,0,0,0.018280964220392975,107.10816936728243,0)" xlink:href="#aC"/><use transform="matrix(0.018280964220392975,0,0,0.018280964220392975,118.3692433270445,0)" xlink:href="#aM"/><use transform="matrix(0.018280964220392975,0,0,0.018280964220392975,141.12904378143375,0)" xlink:href="#aJ"/><use transform="matrix(0.018280964220392975,0,0,0.018280964220392975,165.35132137345445,0)" xlink:href="#ay"/><use transform="matrix(0.018280964220392975,0,0,0.018280964220392975,178.03831054240717,0)" xlink:href="#aM"/><use transform="matrix(0.018280964220392975,0,0,0.018280964220392975,200.79811099679642,0)" xlink:href="#aC"/><use transform="matrix(0.018280964220392975,0,0,0.018280964220392975,211.91293724279538,0)" xlink:href="#aA"/></g><path fill="#fff" d="M662-1116c207 0 320 87 431 217v-189h141v867c0 153-15 264-40 335-69 193-259 312-518 312-184 0-340-58-433-146-47-44-90-109-129-194h152c79 136 196 209 403 212 180 2 321-77 382-188 32-58 45-189 42-317C1002-89 851 0 658 0 333 0 100-223 100-552c0-225 126-401 282-488 89-50 182-76 280-76zm10 984c251 0 431-172 428-421-2-178-86-305-207-372-66-37-137-56-213-56-258 0-432 179-439 436-7 238 187 413 431 413" id="bE"/><g id="Q"><use transform="matrix(0.018280964220392975,0,0,0.018280964220392975,0,0)" xlink:href="#aD"/><use transform="matrix(0.018280964220392975,0,0,0.018280964220392975,17.293792152491754,0)" xlink:href="#aN"/><use transform="matrix(0.018280964220392975,0,0,0.018280964220392975,41.80856517203873,0)" xlink:href="#bE"/><use transform="matrix(0.018280964220392975,0,0,0.018280964220392975,66.99973386774025,0)" xlink:href="#aI"/><use transform="matrix(0.018280964220392975,0,0,0.018280964220392975,74.49492919810136,0)" xlink:href="#aJ"/><use transform="matrix(0.018280964220392975,0,0,0.018280964220392975,98.71720679012205,0)" xlink:href="#ax"/><use transform="matrix(0.018280964220392975,0,0,0.018280964220392975,124.29227573445182,0)" xlink:href="#aK"/></g><g id="R"><use transform="matrix(0.018280964220392975,0,0,0.018280964220392975,0,0)" xlink:href="#aL"/><use transform="matrix(0.018280964220392975,0,0,0.018280964220392975,27.695660793895357,0)" xlink:href="#aM"/><use transform="matrix(0.018280964220392975,0,0,0.018280964220392975,50.455461248284614,0)" xlink:href="#ay"/><use transform="matrix(0.018280964220392975,0,0,0.018280964220392975,63.14245041723733,0)" xlink:href="#aN"/><use transform="matrix(0.018280964220392975,0,0,0.018280964220392975,87.65722343678432,0)" xlink:href="#aO"/><use transform="matrix(0.018280964220392975,0,0,0.018280964220392975,122.7749557041592,0)" xlink:href="#ax"/><use transform="matrix(0.018280964220392975,0,0,0.018280964220392975,148.35002464848898,0)" xlink:href="#ay"/><use transform="matrix(0.018280964220392975,0,0,0.018280964220392975,161.0370138174417,0)" xlink:href="#aA"/><use transform="matrix(0.018280964220392975,0,0,0.018280964220392975,185.36897719478472,0)" xlink:href="#aP"/></g><g id="T"><use transform="matrix(0.018280964220392975,0,0,0.018280964220392975,0,0)" xlink:href="#aL"/><use transform="matrix(0.018280964220392975,0,0,0.018280964220392975,27.695660793895357,0)" xlink:href="#bc"/><use transform="matrix(0.018280964220392975,0,0,0.018280964220392975,53.23416780978433,0)" xlink:href="#bc"/><use transform="matrix(0.018280964220392975,0,0,0.018280964220392975,78.7726748256733,0)" xlink:href="#aK"/><use transform="matrix(0.018280964220392975,0,0,0.018280964220392975,86.26787015603443,0)" xlink:href="#aI"/><use transform="matrix(0.018280964220392975,0,0,0.018280964220392975,93.76306548639555,0)" xlink:href="#aJ"/><use transform="matrix(0.018280964220392975,0,0,0.018280964220392975,117.98534307841625,0)" xlink:href="#ax"/><use transform="matrix(0.018280964220392975,0,0,0.018280964220392975,143.560412022746,0)" xlink:href="#ay"/><use transform="matrix(0.018280964220392975,0,0,0.018280964220392975,156.2474011916987,0)" xlink:href="#aI"/><use transform="matrix(0.018280964220392975,0,0,0.018280964220392975,163.74259652205984,0)" xlink:href="#aN"/><use transform="matrix(0.018280964220392975,0,0,0.018280964220392975,188.25736954160683,0)" xlink:href="#aB"/></g><path fill="#fff" d="M112 0l209-1471h24L943-264l592-1207h24L1770 0h-145l-144-1052L961 0h-37L397-1060 254 0H112" id="bF"/><path fill="#fff" d="M1030-584C1163-276 910 0 587 0H183v-1471c185 4 439-14 559 41 112 51 203 167 203 319 0 151-80 252-189 309 139 47 223 100 274 218zm-238-527c0-157-115-218-295-216H327v471c111 2 253-5 309-28 84-35 156-117 156-227zM327-708v564c136 0 339 3 418-32 87-38 166-128 166-243 0-147-110-239-240-271-52-13-226-19-344-18" id="bG"/><g id="U"><use transform="matrix(0.026041666666666668,0,0,0.026041666666666668,0,0)" xlink:href="#az"/><use transform="matrix(0.026041666666666668,0,0,0.026041666666666668,43.359375,0)" xlink:href="#bF"/><use transform="matrix(0.026041666666666668,0,0,0.026041666666666668,92.36979166666667,0)" xlink:href="#aw"/><use transform="matrix(0.026041666666666668,0,0,0.026041666666666668,132.05729166666669,0)" xlink:href="#bG"/></g><path fill="#282c33" d="M184-1471h147v888c0 105 2 171 6 197 18 128 70 194 174 244 99 48 207 54 307 8 89-41 150-115 178-219 10-37 15-114 15-230v-888h147v888c-4 272-38 405-192 530C817 69 537 59 381-48c-84-58-141-132-170-225-18-57-27-161-27-310v-888" id="bH"/><g id="V"><use transform="matrix(0.009765625,0,0,0.009765625,0,0)" xlink:href="#bt"/><use transform="matrix(0.009765625,0,0,0.009765625,11.8359375,0)" xlink:href="#aQ"/><use transform="matrix(0.009765625,0,0,0.009765625,26.71875,0)" xlink:href="#bH"/><use transform="matrix(0.009765625,0,0,0.009765625,39.814453125,0)" xlink:href="#bl"/><use transform="matrix(0.009765625,0,0,0.009765625,48.5546875,0)" xlink:href="#bt"/><use transform="matrix(0.009765625,0,0,0.009765625,60.390625,0)" xlink:href="#aR"/><use transform="matrix(0.009765625,0,0,0.009765625,74.052734375,0)" xlink:href="#aV"/><use transform="matrix(0.009765625,0,0,0.009765625,86.25,0)" xlink:href="#aU"/><use transform="matrix(0.009765625,0,0,0.009765625,99.248046875,0)" xlink:href="#bf"/></g><g id="W"><use transform="matrix(0.009765625,0,0,0.009765625,0,0)" xlink:href="#bH"/><use transform="matrix(0.009765625,0,0,0.009765625,13.095703125,0)" xlink:href="#bt"/><use transform="matrix(0.009765625,0,0,0.009765625,24.931640625,0)" xlink:href="#bd"/></g><g id="X"><use transform="matrix(0.009765625,0,0,0.009765625,0,0)" xlink:href="#bu"/><use transform="matrix(0.009765625,0,0,0.009765625,17.44140625,0)" xlink:href="#aU"/><use transform="matrix(0.009765625,0,0,0.009765625,30.439453125,0)" xlink:href="#aV"/><use transform="matrix(0.009765625,0,0,0.009765625,42.63671875,0)" xlink:href="#aU"/><use transform="matrix(0.009765625,0,0,0.009765625,55.634765625,0)" xlink:href="#aW"/><use transform="matrix(0.009765625,0,0,0.009765625,61.650390625,0)" xlink:href="#aR"/><use transform="matrix(0.009765625,0,0,0.009765625,75.3125,0)" xlink:href="#aS"/><use transform="matrix(0.009765625,0,0,0.009765625,82.08984375,0)" xlink:href="#bi"/><use transform="matrix(0.009765625,0,0,0.009765625,95.185546875,0)" xlink:href="#aW"/></g><g id="Y"><use transform="matrix(0.009765625,0,0,0.009765625,0,0)" xlink:href="#aT"/><use transform="matrix(0.009765625,0,0,0.009765625,16.259765625,0)" xlink:href="#bn"/><use transform="matrix(0.009765625,0,0,0.009765625,20.263671875,0)" xlink:href="#aW"/><use transform="matrix(0.009765625,0,0,0.009765625,26.142578125,0)" xlink:href="#aY"/><use transform="matrix(0.009765625,0,0,0.009765625,39.08203125,0)" xlink:href="#br"/><use transform="matrix(0.009765625,0,0,0.009765625,51.240234375,0)" xlink:href="#bn"/><use transform="matrix(0.009765625,0,0,0.009765625,55.244140625,0)" xlink:href="#aS"/></g><g id="Z"><use transform="matrix(0.009765625,0,0,0.009765625,0,0)" xlink:href="#aT"/><use transform="matrix(0.009765625,0,0,0.009765625,16.259765625,0)" xlink:href="#aQ"/><use transform="matrix(0.009765625,0,0,0.009765625,31.142578125,0)" xlink:href="#bH"/></g><g id="aa"><use transform="matrix(0.009765625,0,0,0.009765625,0,0)" xlink:href="#bg"/><use transform="matrix(0.009765625,0,0,0.009765625,11.083984375,0)" xlink:href="#aT"/><use transform="matrix(0.009765625,0,0,0.009765625,27.34375,0)" xlink:href="#aU"/><use transform="matrix(0.009765625,0,0,0.009765625,40.341796875,0)" xlink:href="#aV"/><use transform="matrix(0.009765625,0,0,0.009765625,52.5390625,0)" xlink:href="#aS"/><use transform="matrix(0.009765625,0,0,0.009765625,59.31640625,0)" xlink:href="#aU"/><use transform="matrix(0.009765625,0,0,0.009765625,72.314453125,0)" xlink:href="#aW"/></g><g id="ab"><use transform="matrix(0.009765625,0,0,0.009765625,0,0)" xlink:href="#bs"/><use transform="matrix(0.009765625,0,0,0.009765625,14.04296875,0)" xlink:href="#by"/></g><g id="ac"><use transform="matrix(0.009765625,0,0,0.009765625,0,0)" xlink:href="#bg"/><use transform="matrix(0.009765625,0,0,0.009765625,11.083984375,0)" xlink:href="#aT"/><use transform="matrix(0.009765625,0,0,0.009765625,27.34375,0)" xlink:href="#aU"/><use transform="matrix(0.009765625,0,0,0.009765625,40.341796875,0)" xlink:href="#aV"/><use transform="matrix(0.009765625,0,0,0.009765625,52.5390625,0)" xlink:href="#aS"/><use transform="matrix(0.009765625,0,0,0.009765625,59.31640625,0)" xlink:href="#aU"/><use transform="matrix(0.009765625,0,0,0.009765625,72.314453125,0)" xlink:href="#aW"/></g><g id="ad"><use transform="matrix(0.009765625,0,0,0.009765625,0,0)" xlink:href="#aQ"/><use transform="matrix(0.009765625,0,0,0.009765625,14.8828125,0)" xlink:href="#aR"/><use transform="matrix(0.009765625,0,0,0.009765625,28.544921875,0)" xlink:href="#aS"/><use transform="matrix(0.009765625,0,0,0.009765625,35.322265625,0)" xlink:href="#aR"/><use transform="matrix(0.009765625,0,0,0.009765625,48.984375,0)" xlink:href="#aY"/><use transform="matrix(0.009765625,0,0,0.009765625,61.923828125,0)" xlink:href="#aU"/><use transform="matrix(0.009765625,0,0,0.009765625,74.921875,0)" xlink:href="#aV"/><use transform="matrix(0.009765625,0,0,0.009765625,87.119140625,0)" xlink:href="#aS"/><use transform="matrix(0.009765625,0,0,0.009765625,93.896484375,0)" xlink:href="#aU"/><use transform="matrix(0.009765625,0,0,0.009765625,106.89453125,0)" xlink:href="#aW"/></g><path fill="#282c33" d="M369-1508h130l-29 297 246-176 66 112-277 125 277 123-66 113-246-174 29 297H369l31-297-246 174-66-113 281-123-281-125 66-112 246 176" id="bI"/><use transform="matrix(0.009765625,0,0,0.009765625,0,0)" xlink:href="#bI" id="ae"/><g id="af"><use transform="matrix(0.018280964220392975,0,0,0.018280964220392975,0,0)" xlink:href="#bG"/><use transform="matrix(0.018280964220392975,0,0,0.018280964220392975,21.498413923182138,0)" xlink:href="#aM"/><use transform="matrix(0.018280964220392975,0,0,0.018280964220392975,44.25821437757139,0)" xlink:href="#aH"/><use transform="matrix(0.018280964220392975,0,0,0.018280964220392975,58.79158093278381,0)" xlink:href="#aI"/><use transform="matrix(0.018280964220392975,0,0,0.018280964220392975,66.28677626314493,0)" xlink:href="#aB"/><use transform="matrix(0.018280964220392975,0,0,0.018280964220392975,89.11970057441576,0)" xlink:href="#aA"/><use transform="matrix(0.018280964220392975,0,0,0.018280964220392975,113.4516639517588,0)" xlink:href="#aH"/><use transform="matrix(0.018280964220392975,0,0,0.018280964220392975,127.98503050697121,0)" xlink:href="#aH"/></g><g id="ag"><use transform="matrix(0.018280964220392975,0,0,0.018280964220392975,0,0)" xlink:href="#bF"/><use transform="matrix(0.018280964220392975,0,0,0.018280964220392975,34.40477466277958,0)" xlink:href="#ax"/><use transform="matrix(0.018280964220392975,0,0,0.018280964220392975,59.97984360710935,0)" xlink:href="#aB"/><use transform="matrix(0.018280964220392975,0,0,0.018280964220392975,82.81276791838017,0)" xlink:href="#aM"/><use transform="matrix(0.018280964220392975,0,0,0.018280964220392975,105.57256837276942,0)" xlink:href="#ax"/><use transform="matrix(0.018280964220392975,0,0,0.018280964220392975,131.1476373170992,0)" xlink:href="#aK"/></g><g id="ah"><use transform="matrix(0.009765625,0,0,0.009765625,0,0)" xlink:href="#bB"/><use transform="matrix(0.009765625,0,0,0.009765625,14.794921875,0)" xlink:href="#bv"/><use transform="matrix(0.009765625,0,0,0.009765625,28.4375,0)" xlink:href="#bv"/><use transform="matrix(0.009765625,0,0,0.009765625,42.080078125,0)" xlink:href="#bf"/><use transform="matrix(0.009765625,0,0,0.009765625,46.083984375,0)" xlink:href="#bn"/><use transform="matrix(0.009765625,0,0,0.009765625,50.087890625,0)" xlink:href="#aY"/><use transform="matrix(0.009765625,0,0,0.009765625,63.02734375,0)" xlink:href="#aR"/><use transform="matrix(0.009765625,0,0,0.009765625,76.689453125,0)" xlink:href="#aS"/><use transform="matrix(0.009765625,0,0,0.009765625,83.466796875,0)" xlink:href="#bn"/><use transform="matrix(0.009765625,0,0,0.009765625,87.470703125,0)" xlink:href="#bi"/><use transform="matrix(0.009765625,0,0,0.009765625,100.56640625,0)" xlink:href="#aV"/></g><g id="ai"><use transform="matrix(0.009765625,0,0,0.009765625,0,0)" xlink:href="#bm"/><use transform="matrix(0.009765625,0,0,0.009765625,9.697265625,0)" xlink:href="#aT"/></g><g id="aj"><use transform="matrix(0.009765625,0,0,0.009765625,0,0)" xlink:href="#bd"/><use transform="matrix(0.009765625,0,0,0.009765625,9.9609375,0)" xlink:href="#bk"/><use transform="matrix(0.009765625,0,0,0.009765625,26.58203125,0)" xlink:href="#bn"/><use transform="matrix(0.009765625,0,0,0.009765625,30.5859375,0)" xlink:href="#aS"/><use transform="matrix(0.009765625,0,0,0.009765625,37.36328125,0)" xlink:href="#aY"/><use transform="matrix(0.009765625,0,0,0.009765625,50.302734375,0)" xlink:href="#be"/></g><g id="ak"><use transform="matrix(0.009765625,0,0,0.009765625,0,0)" xlink:href="#bq"/><use transform="matrix(0.009765625,0,0,0.009765625,10.72265625,0)" xlink:href="#be"/><use transform="matrix(0.009765625,0,0,0.009765625,22.919921875,0)" xlink:href="#aS"/><use transform="matrix(0.009765625,0,0,0.009765625,29.697265625,0)" xlink:href="#aU"/><use transform="matrix(0.009765625,0,0,0.009765625,42.6953125,0)" xlink:href="#aW"/><use transform="matrix(0.009765625,0,0,0.009765625,49.130859375,0)" xlink:href="#aV"/><use transform="matrix(0.009765625,0,0,0.009765625,61.328125,0)" xlink:href="#aU"/><use transform="matrix(0.009765625,0,0,0.009765625,74.326171875,0)" xlink:href="#aS"/></g><g id="al"><use transform="matrix(0.009765625,0,0,0.009765625,0,0)" xlink:href="#aT"/><use transform="matrix(0.009765625,0,0,0.009765625,16.259765625,0)" xlink:href="#bi"/><use transform="matrix(0.009765625,0,0,0.009765625,29.35546875,0)" xlink:href="#bx"/><use transform="matrix(0.009765625,0,0,0.009765625,48.115234375,0)" xlink:href="#bv"/><use transform="matrix(0.009765625,0,0,0.009765625,61.7578125,0)" xlink:href="#br"/><use transform="matrix(0.009765625,0,0,0.009765625,73.916015625,0)" xlink:href="#aS"/><use transform="matrix(0.009765625,0,0,0.009765625,80.693359375,0)" xlink:href="#aU"/><use transform="matrix(0.009765625,0,0,0.009765625,93.69140625,0)" xlink:href="#aW"/></g><g id="am"><use transform="matrix(0.009765625,0,0,0.009765625,0,0)" xlink:href="#aX"/><use transform="matrix(0.009765625,0,0,0.009765625,12.138671875,0)" xlink:href="#bi"/><use transform="matrix(0.009765625,0,0,0.009765625,25.234375,0)" xlink:href="#bi"/><use transform="matrix(0.009765625,0,0,0.009765625,38.330078125,0)" xlink:href="#bx"/></g><g id="an"><use transform="matrix(0.009765625,0,0,0.009765625,0,0)" xlink:href="#bB"/><use transform="matrix(0.009765625,0,0,0.009765625,14.794921875,0)" xlink:href="#aT"/></g><path fill="#282c33" d="M894-485c0-198-143-335-345-335-87 0-192 26-315 79l136-730h637v140H483l-73 401c343-115 640 122 635 451-3 206-110 374-249 451-171 95-430 86-566-44-79-76-131-168-147-284h151c28 157 136 249 307 256 196 8 353-180 353-385" id="bJ"/><g id="ao"><use transform="matrix(0.009765625,0,0,0.009765625,0,0)" xlink:href="#bm"/><use transform="matrix(0.009765625,0,0,0.009765625,9.697265625,0)" xlink:href="#bJ"/></g><path fill="#282c33" d="M736 28c-207-6-335-95-432-228V0H165v-1508h139v607c103-125 231-209 436-215 302-8 558 269 558 574 0 303-261 578-562 570zM294-550c-5 242 192 448 431 443 175-4 305-97 373-219 77-138 77-303 0-441-68-122-199-222-371-222-254 0-427 176-433 439" id="bK"/><g id="ap"><use transform="matrix(0.009765625,0,0,0.009765625,0,0)" xlink:href="#aQ"/><use transform="matrix(0.009765625,0,0,0.009765625,14.8828125,0)" xlink:href="#aR"/><use transform="matrix(0.009765625,0,0,0.009765625,28.544921875,0)" xlink:href="#aS"/><use transform="matrix(0.009765625,0,0,0.009765625,35.322265625,0)" xlink:href="#aR"/><use transform="matrix(0.009765625,0,0,0.009765625,48.984375,0)" xlink:href="#bK"/><use transform="matrix(0.009765625,0,0,0.009765625,62.626953125,0)" xlink:href="#aR"/><use transform="matrix(0.009765625,0,0,0.009765625,76.2890625,0)" xlink:href="#bh"/><use transform="matrix(0.009765625,0,0,0.009765625,84.052734375,0)" xlink:href="#aU"/></g><path fill="#282c33" d="M158-1471h147V0H158v-1471" id="bL"/><g id="aq"><use transform="matrix(0.009765625,0,0,0.009765625,0,0)" xlink:href="#bL"/><use transform="matrix(0.009765625,0,0,0.009765625,4.521484375,0)" xlink:href="#aV"/><use transform="matrix(0.009765625,0,0,0.009765625,16.71875,0)" xlink:href="#bh"/><use transform="matrix(0.009765625,0,0,0.009765625,24.482421875,0)" xlink:href="#aS"/><use transform="matrix(0.009765625,0,0,0.009765625,31.259765625,0)" xlink:href="#aR"/><use transform="matrix(0.009765625,0,0,0.009765625,44.921875,0)" xlink:href="#aV"/><use transform="matrix(0.009765625,0,0,0.009765625,57.119140625,0)" xlink:href="#aY"/><use transform="matrix(0.009765625,0,0,0.009765625,70.05859375,0)" xlink:href="#aU"/></g><g id="ar"><use transform="matrix(0.009765625,0,0,0.009765625,0,0)" xlink:href="#bz"/><use transform="matrix(0.009765625,0,0,0.009765625,17.3828125,0)" xlink:href="#bd"/></g><g id="as"><use transform="matrix(0.009765625,0,0,0.009765625,0,0)" xlink:href="#bg"/><use transform="matrix(0.009765625,0,0,0.009765625,11.083984375,0)" xlink:href="#aT"/><use transform="matrix(0.009765625,0,0,0.009765625,27.34375,0)" xlink:href="#aU"/><use transform="matrix(0.009765625,0,0,0.009765625,40.341796875,0)" xlink:href="#aV"/><use transform="matrix(0.009765625,0,0,0.009765625,52.5390625,0)" xlink:href="#aS"/><use transform="matrix(0.009765625,0,0,0.009765625,59.31640625,0)" xlink:href="#aU"/><use transform="matrix(0.009765625,0,0,0.009765625,72.314453125,0)" xlink:href="#aW"/></g><g id="at"><use transform="matrix(0.009765625,0,0,0.009765625,0,0)" xlink:href="#aX"/><use transform="matrix(0.009765625,0,0,0.009765625,12.138671875,0)" xlink:href="#aU"/><use transform="matrix(0.009765625,0,0,0.009765625,25.13671875,0)" xlink:href="#bh"/><use transform="matrix(0.009765625,0,0,0.009765625,32.900390625,0)" xlink:href="#bi"/><use transform="matrix(0.009765625,0,0,0.009765625,45.99609375,0)" xlink:href="#br"/><use transform="matrix(0.009765625,0,0,0.009765625,58.154296875,0)" xlink:href="#aW"/><use transform="matrix(0.009765625,0,0,0.009765625,64.033203125,0)" xlink:href="#aY"/><use transform="matrix(0.009765625,0,0,0.009765625,76.97265625,0)" xlink:href="#aU"/></g><g id="au"><use transform="matrix(0.009765625,0,0,0.009765625,0,0)" xlink:href="#bt"/><use transform="matrix(0.009765625,0,0,0.009765625,11.8359375,0)" xlink:href="#bi"/><use transform="matrix(0.009765625,0,0,0.009765625,24.931640625,0)" xlink:href="#bi"/><use transform="matrix(0.009765625,0,0,0.009765625,38.02734375,0)" xlink:href="#bf"/></g><g id="av"><use transform="matrix(0.009765625,0,0,0.009765625,0,0)" xlink:href="#bd"/><use transform="matrix(0.009765625,0,0,0.009765625,9.9609375,0)" xlink:href="#bk"/><use transform="matrix(0.009765625,0,0,0.009765625,26.58203125,0)" xlink:href="#bn"/><use transform="matrix(0.009765625,0,0,0.009765625,30.5859375,0)" xlink:href="#aS"/><use transform="matrix(0.009765625,0,0,0.009765625,37.36328125,0)" xlink:href="#aY"/><use transform="matrix(0.009765625,0,0,0.009765625,50.302734375,0)" xlink:href="#be"/></g></defs></g></svg>